<?xml version="1.0" standalone="no"?>
<!DOCTYPE svg PUBLIC "-//W3C//DTD SVG 20010904//EN"
 "http://www.w3.org/TR/2001/REC-SVG-20010904/DTD/svg10.dtd">
<svg version="1.0" xmlns="http://www.w3.org/2000/svg"
 width="800.000000pt" height="800.000000pt" viewBox="0 0 800.000000 800.000000"
 preserveAspectRatio="xMidYMid meet">
<metadata>
Created by potrace 1.14, written by Peter Selinger 2001-2017
</metadata>
<g transform="translate(0.000000,800.000000) scale(0.100000,-0.100000)"
fill="#000000" stroke="none">
<path d="M2730 6815 l0 -205 -735 0 c-612 0 -737 -2 -741 -14 -3 -7 6 -45 20
-84 13 -39 22 -73 20 -75 -5 -5 21 -87 47 -152 10 -26 9 -37 -7 -70 -16 -34
-19 -59 -16 -170 2 -71 7 -146 11 -165 4 -20 4 -47 -1 -60 -15 -38 -4 -140 19
-187 12 -24 24 -66 28 -95 4 -29 14 -61 22 -70 8 -9 12 -22 8 -28 -4 -7 -3
-22 3 -33 91 -195 109 -260 117 -432 4 -71 8 -157 10 -190 2 -33 6 -117 9
-187 4 -116 14 -163 38 -179 4 -3 3 -27 -3 -55 -11 -51 -11 -53 -11 -149 0
-33 0 -69 0 -81 0 -12 7 -36 15 -55 8 -19 20 -63 27 -98 11 -61 56 -161 71
-161 12 0 29 -70 29 -120 1 -25 7 -71 14 -102 8 -31 11 -59 8 -63 -3 -3 -6
-59 -7 -123 -1 -115 -2 -120 -34 -168 -17 -28 -59 -70 -93 -94 -81 -60 -88
-80 -45 -134 18 -22 39 -57 47 -76 23 -58 41 -80 66 -80 37 0 104 -40 125 -74
18 -30 19 -67 19 -928 l0 -898 1856 0 c1764 0 1856 1 1849 18 -4 9 -7 28 -6
41 0 13 -4 30 -10 37 -6 8 -10 37 -9 66 1 29 2 71 3 93 2 47 -26 105 -89 185
-39 50 -51 58 -97 69 -41 9 -62 22 -98 59 -25 26 -57 53 -71 60 -53 28 -94 77
-89 105 1 4 -4 18 -11 30 -7 12 -12 27 -13 32 -1 35 -80 89 -171 119 -56 18
-98 56 -108 98 -5 24 -11 27 -73 35 -38 4 -73 7 -80 6 -7 0 -15 8 -18 18 -4
11 -13 19 -21 19 -8 0 -18 8 -22 19 -4 10 -37 44 -74 76 l-66 57 15 36 c19 46
23 226 5 244 -18 18 -14 46 9 58 17 9 19 17 13 43 -14 59 -5 150 16 172 11 12
20 30 20 42 0 11 9 28 20 38 28 25 24 54 -10 95 -17 19 -30 42 -30 52 0 19
-35 42 -50 33 -5 -3 -21 -3 -35 1 -22 5 -25 12 -25 48 0 77 11 113 36 125 22
10 59 75 50 90 -11 17 53 88 101 111 29 14 52 31 53 38 0 6 13 12 28 12 21 0
32 7 40 25 10 21 16 24 42 19 24 -5 30 -3 30 10 0 9 9 24 20 33 19 17 20 30
20 314 l0 296 25 -5 c29 -5 60 25 44 44 -11 13 -1 24 22 24 9 0 19 7 23 15 7
20 25 19 49 -2 17 -16 17 -14 -3 20 l-22 37 23 19 c13 10 56 44 94 75 39 31
75 56 80 56 6 0 49 37 96 83 47 46 101 93 120 105 36 22 149 141 234 245 64
79 84 99 201 197 123 103 282 197 371 219 41 10 185 57 218 71 11 5 37 14 58
20 21 7 41 18 43 25 3 7 24 18 48 24 23 6 62 26 87 46 24 19 48 35 53 35 5 0
14 8 21 17 10 13 16 15 26 6 11 -9 21 -5 44 15 28 24 29 25 6 19 -13 -3 -62
-1 -108 5 -73 9 -86 9 -101 -6 -23 -20 -56 -21 -72 -1 -6 8 -16 13 -22 12 -10
-2 -23 16 -32 45 -12 38 -55 53 -146 50 -196 -9 -255 -7 -252 7 2 9 -3 11 -15
7 -10 -4 -40 -12 -66 -19 -46 -10 -50 -10 -67 13 -10 14 -17 28 -14 31 7 12
-8 39 -22 39 -9 0 -14 12 -14 34 0 26 -4 33 -17 31 -22 -2 -53 -13 -73 -26 -8
-5 -33 -18 -56 -28 -22 -10 -62 -39 -90 -65 -27 -25 -60 -48 -74 -51 -14 -3
-44 -12 -67 -20 -29 -9 -45 -10 -49 -3 -7 10 -45 7 -78 -7 -17 -7 -18 -4 -14
23 4 28 2 32 -17 32 -41 0 -85 12 -79 22 3 5 3 24 0 43 -6 31 -9 33 -60 39
-33 5 -57 13 -60 22 -3 8 -17 14 -31 14 -14 0 -25 5 -25 12 0 6 -3 9 -6 5 -11
-10 -34 20 -34 45 -1 35 -32 66 -71 69 -19 2 -40 0 -47 -5 -7 -4 -22 -6 -35
-5 -12 2 -28 0 -34 -4 -16 -10 -17 -83 -1 -93 8 -5 -1 -12 -23 -20 -47 -17
-45 -18 -60 19 -7 17 -24 48 -37 67 -17 26 -22 43 -17 67 10 54 -14 72 -89 66
-47 -4 -65 -2 -74 10 -17 20 -6 44 24 51 15 4 24 14 24 26 0 17 -7 20 -40 20
-39 0 -181 61 -188 81 -2 5 -41 9 -86 9 -48 0 -87 5 -93 11 -9 9 -23 9 -57 -1
-26 -7 -46 -17 -46 -21 0 -5 -10 -9 -22 -9 -25 -1 -60 -23 -57 -36 4 -24 -5
-32 -46 -44 -25 -7 -80 -13 -122 -14 l-78 -1 -6 53 c-4 29 -9 55 -11 57 -5 5
-78 13 -173 20 -111 8 -125 12 -125 35 0 10 -5 22 -11 26 -19 11 -108 14 -114
3 -8 -12 -69 -2 -107 17 -15 8 -41 29 -58 46 -29 31 -31 37 -25 85 7 59 -11
162 -30 178 -8 5 -15 35 -18 65 -2 30 -14 105 -27 165 l-22 110 -45 29 c-39
25 -49 28 -78 19 -24 -8 -41 -7 -65 3 -18 8 -34 14 -36 14 -2 0 -4 -92 -4
-205z"/>
</g>
</svg>
