<svg version="1.1" viewBox="0.0 0.0 489.750656167979 165.26771653543307" fill="none" stroke="none" stroke-linecap="square" stroke-miterlimit="10" xmlns:xlink="http://www.w3.org/1999/xlink" xmlns="http://www.w3.org/2000/svg"><clipPath id="p.0"><path d="m0 0l489.75067 0l0 165.26772l-489.75067 0l0 -165.26772z" clip-rule="nonzero"/></clipPath><g clip-path="url(#p.0)"><path fill="#000000" fill-opacity="0.0" d="m0 0l489.75067 0l0 165.26772l-489.75067 0z" fill-rule="evenodd"/><path fill="#be332d" d="m2.4225721 516.5591l0 0c0 -94.04498 76.23851 -170.28348 170.28346 -170.28348l291.74805 0l0 0c45.161987 0 88.47427 17.940521 120.4086 49.874847c31.934326 31.934357 49.874878 75.24661 49.874878 120.40863l0 0l0 0c0 94.04492 -76.238525 170.28345 -170.28348 170.28345l-291.74805 0l0 0c-94.04496 0 -170.28346 -76.238525 -170.28346 -170.28345z" fill-rule="evenodd"/><path stroke="#ffffff" stroke-width="2.0" stroke-linejoin="round" stroke-linecap="butt" d="m2.4225721 516.5591l0 0c0 -94.04498 76.23851 -170.28348 170.28346 -170.28348l291.74805 0l0 0c45.161987 0 88.47427 17.940521 120.4086 49.874847c31.934326 31.934357 49.874878 75.24661 49.874878 120.40863l0 0l0 0c0 94.04492 -76.238525 170.28345 -170.28348 170.28345l-291.74805 0l0 0c-94.04496 0 -170.28346 -76.238525 -170.28346 -170.28345z" fill-rule="evenodd"/><path fill="#ffffff" d="m19.979002 517.18896l0 0c0 -85.556274 69.357086 -154.91336 154.91339 -154.91336l286.96063 0l0 0c41.08557 0 80.4884 16.321167 109.54028 45.373077c29.05188 29.05188 45.373108 68.45471 45.373108 109.54028l0 0l0 0c0 85.556335 -69.35712 154.91339 -154.91339 154.91339l-286.96063 0l0 0c-85.556305 0 -154.91339 -69.357056 -154.91339 -154.91339z" fill-rule="evenodd"/><path stroke="#ffffff" stroke-width="2.0" stroke-linejoin="round" stroke-linecap="butt" d="m19.979002 517.18896l0 0c0 -85.556274 69.357086 -154.91336 154.91339 -154.91336l286.96063 0l0 0c41.08557 0 80.4884 16.321167 109.54028 45.373077c29.05188 29.05188 45.373108 68.45471 45.373108 109.54028l0 0l0 0c0 85.556335 -69.35712 154.91339 -154.91339 154.91339l-286.96063 0l0 0c-85.556305 0 -154.91339 -69.357056 -154.91339 -154.91339z" fill-rule="evenodd"/><path fill="#000000" fill-opacity="0.0" d="m-73.103676 -85.70079l632.315 0l0 340.56693l-632.315 0z" fill-rule="evenodd"/><path fill="#fdfdfd" d="m107.598854 3.4501832l13.265625 0l0 157.96875l-103.78125 -127.640625l0 118.484375l-13.265626 0l0 -157.95312l103.78125 127.453125l0 -118.3125zm186.03735 0l0 148.8125l-14.015625 0l0 -120.671875l-62.65625 128.3125l-62.26561 -128.23438l0 120.59375l-13.453125 0l0 -148.8125l15.375 0l60.92186 125.09375l61.109375 -125.09375l14.984375 0zm88.74072 0l0 13.265626l-32.15625 0l0 135.54688l-14.015625 0l0 -135.54688l-32.515625 0l0 -13.265626l78.6875 0zm69.40784 150.875l-2.0625 0q-20.46875 0 -38.09375 -10.6875q-17.625 -10.703125 -27.828125 -28.40625q-10.1875 -17.71875 -10.1875 -37.75q0 -31.515621 22.765625 -54.17187q22.78125 -22.671875 54.46875 -22.671875q21.171875 0 42.0625 12.171875l0 16.59375q-22.78125 -15.515626 -42.0625 -15.515626q-26.015625 0 -44.625 18.6875q-18.59375 18.6875 -18.59375 44.812496q0 26.125 18.59375 44.90625q18.609375 18.765625 44.625 18.765625q19.28125 0 42.0625 -15.515625l0 16.546875q-19.890625 12.234375 -41.125 12.234375z" fill-rule="nonzero"/></g></svg>