<svg version="1.1" viewBox="0.0 0.0 1040.0 1048.0" fill="none" stroke="none" stroke-linecap="square" stroke-miterlimit="10" xmlns:xlink="http://www.w3.org/1999/xlink" xmlns="http://www.w3.org/2000/svg"><clipPath id="p.0"><path d="m0 0l1040.0 0l0 1048.0l-1040.0 0l0 -1048.0z" clip-rule="nonzero"/></clipPath><g clip-path="url(#p.0)"><path fill="#000000" fill-opacity="0.0" d="m0 0l1040.0 0l0 1048.0l-1040.0 0z" fill-rule="evenodd"/><path fill="#000000" fill-opacity="0.0" d="m2811.555 1221.5984c31.733398 -8.133423 209.60132 -31.600586 190.40161 -48.800537c-19.199951 -17.19983 -283.60107 -28.799194 -305.60107 -54.398926c-22.0 -25.599731 167.86743 -75.46582 173.60107 -99.19946c5.7333984 -23.733582 -115.999756 -36.00171 -139.1997 -43.202087" fill-rule="evenodd"/><path stroke="#cc6f77" stroke-width="12.0" stroke-linejoin="round" stroke-linecap="butt" d="m2811.555 1221.5984c31.733398 -8.133423 209.60132 -31.600586 190.40161 -48.800537c-19.199951 -17.19983 -283.60107 -28.799194 -305.60107 -54.398926c-22.0 -25.599731 167.86743 -75.46582 173.60107 -99.19946c5.7333984 -23.733582 -115.999756 -36.00171 -139.1997 -43.202087" fill-rule="evenodd"/><path fill="#fdfdfd" fill-opacity="0.9922" d="m-1160.0 -1072.0l1040.0 0l0 1040.0l-1040.0 0z" fill-rule="evenodd"/><path fill="#fff9f8" d="m-994.4002 -605.4039l190.40015 -236.02283l255.4914 236.02283z" fill-rule="evenodd"/><path stroke="#5ecfb8" stroke-width="24.0" stroke-linejoin="round" stroke-linecap="butt" d="m-994.4002 -605.4039l190.40015 -236.02283l255.4914 236.02283z" fill-rule="evenodd"/><path fill="#fceeec" d="m-871.389 -605.4029l258.07294 -315.14752l328.69653 315.14752z" fill-rule="evenodd"/><path stroke="#1abc9c" stroke-width="24.0" stroke-linejoin="round" stroke-linecap="butt" d="m-871.389 -605.4029l258.07294 -315.14752l328.69653 315.14752z" fill-rule="evenodd"/><path fill="#000000" fill-opacity="0.0" d="m-1160.0 -515.19556l1040.0 0l0 332.0l-1040.0 0z" fill-rule="evenodd"/><path fill="#1abc9c" d="m-1014.62854 -261.93152l0 -188.53125l36.078125 0l104.234375 140.85938l-7.546875 0q-1.078125 -8.34375 -1.890625 -16.28125q-0.796875 -7.953125 -1.46875 -16.171875q-0.671875 -8.21875 -1.078125 -16.96875q-0.40625 -8.75 -0.671875 -18.578125q-0.265625 -9.828125 -0.265625 -21.421875l0 -51.4375l39.59375 0l0 188.53125l-36.640625 0l-106.375 -142.20312l10.234375 0.265625q1.34375 14.0 2.28125 23.84375q0.953125 9.828125 1.625 17.109375q0.671875 7.265625 0.9375 12.65625q0.265625 5.375 0.390625 10.234375q0.140625 4.84375 0.140625 10.21875l0 67.875l-39.578125 0zm216.0011 0l0 -188.53125l36.890625 0l68.671875 111.765625l-24.234375 -0.265625l69.484375 -111.5l35.28125 0l0 188.53125l-39.59375 0l0 -64.640625q0 -24.234375 1.21875 -43.625q1.21875 -19.390625 4.171875 -38.515625l4.859375 12.65625l-55.21875 85.640625l-17.78125 0l-54.125 -85.109375l4.578125 -13.1875q2.953125 18.046875 4.15625 37.03125q1.21875 18.984375 1.21875 45.109375l0 64.640625l-39.578125 0zm274.4359 0l0 -152.17188l-54.9375 0l0 -36.359375l151.89062 0l0 36.359375l-56.546875 0l0 152.17188l-40.40625 0zm204.95618 2.6875q-20.734375 0 -38.109375 -7.125q-17.359375 -7.140625 -30.15625 -20.203125q-12.796875 -13.0625 -19.796875 -30.96875q-7.0 -17.921875 -7.0 -39.1875q0 -20.75 7.265625 -38.390625q7.265625 -17.640625 20.46875 -30.703125q13.203125 -13.0625 30.96875 -20.328125q17.78125 -7.28125 38.515625 -7.28125q13.46875 0 26.53125 3.640625q13.0625 3.640625 23.96875 10.640625q10.90625 7.0 18.71875 16.703125l-25.3125 28.0q-6.203125 -6.453125 -13.203125 -11.171875q-7.0 -4.71875 -14.671875 -7.265625q-7.671875 -2.5625 -16.296875 -2.5625q-11.578125 0 -21.6875 4.3125q-10.09375 4.296875 -17.640625 11.984375q-7.53125 7.671875 -11.984375 18.578125q-4.4375 10.90625 -4.4375 24.109375q0 13.46875 4.3125 24.375q4.3125 10.90625 12.109375 18.578125q7.8125 7.671875 18.71875 11.859375q10.90625 4.171875 24.109375 4.171875q8.625 0 16.703125 -2.421875q8.078125 -2.4375 14.9375 -6.734375q6.875 -4.3125 12.265625 -9.96875l19.921875 31.515625q-6.734375 7.265625 -17.640625 13.1875q-10.90625 5.921875 -24.375 9.296875q-13.46875 3.359375 -27.203125 3.359375z" fill-rule="nonzero"/><path fill="#000000" fill-opacity="0.0" d="m-591.20105 -599.2087c31.733582 -8.133423 209.60147 -31.600586 190.40158 -48.800537c-19.19992 -17.19989 -283.60104 -28.799194 -305.60104 -54.398926c-22.0 -25.599731 167.86743 -75.46588 173.60101 -99.19946c5.7336426 -23.733582 -115.99957 -36.00177 -139.19946 -43.202087" fill-rule="evenodd"/><path stroke="#cc6f77" stroke-width="12.0" stroke-linejoin="round" stroke-linecap="butt" d="m-591.20105 -599.2087c31.733582 -8.133423 209.60147 -31.600586 190.40158 -48.800537c-19.19992 -17.19989 -283.60104 -28.799194 -305.60104 -54.398926c-22.0 -25.599731 167.86743 -75.46588 173.60101 -99.19946c5.7336426 -23.733582 -115.99957 -36.00177 -139.19946 -43.202087" fill-rule="evenodd"/><path fill="#cc6f77" d="m-1048.0 -515.19556l458.91302 -90.20471l361.08698 90.20471z" fill-rule="evenodd"/><path stroke="#cc6f77" stroke-width="1.0" stroke-linejoin="round" stroke-linecap="butt" d="m-1048.0 -515.19556l458.91302 -90.20471l361.08698 90.20471z" fill-rule="evenodd"/><path fill="#fceeec" d="m-857.45667 -513.2113l263.54327 -86.299194l-259.4803 97.82678z" fill-rule="evenodd"/><path fill="#fceeec" d="m-407.64307 -510.53412l-188.0 -89.19684l182.26773 100.28345z" fill-rule="evenodd"/><path fill="#fceeec" d="m-628.27997 -507.5321l33.44879 -91.33856l-44.850403 86.236206z" fill-rule="evenodd"/><path fill="#fdfdfd" fill-opacity="0.9922" d="m-1157.5092 -515.19293l1036.0 0l0 15.748047l-1036.0 0z" fill-rule="evenodd"/><path fill="#000000" fill-opacity="0.0" d="m-611.9903 -920.8034l-130.36224 157.82678" fill-rule="evenodd"/><path stroke="#1abc9c" stroke-width="24.0" stroke-linejoin="round" stroke-linecap="butt" d="m-611.9903 -920.8034l-130.36224 157.82678" fill-rule="evenodd"/><path fill="#fdfdfd" fill-opacity="0.9922" d="m1881.5092 -420.6929l1660.0001 0l0 444.6929l-1660.0001 0z" fill-rule="evenodd"/><path fill="#000000" fill-opacity="0.0" d="m2616.311 -328.01364l1040.0 0l0 332.0l-1040.0 0z" fill-rule="evenodd"/><path fill="#111111" d="m2761.6824 -74.74964l0 -188.53125l36.078125 0l104.234375 140.85938l-7.546875 0q-1.078125 -8.343758 -1.890625 -16.281258q-0.796875 -7.953125 -1.46875 -16.171875q-0.671875 -8.21875 -1.078125 -16.96875q-0.40625 -8.75 -0.671875 -18.578125q-0.265625 -9.828125 -0.265625 -21.421875l0 -51.437485l39.59375 0l0 188.53125l-36.640625 0l-106.375 -142.20312l10.234375 0.265625q1.34375 14.0 2.28125 23.84375q0.953125 9.828125 1.625 17.109375q0.671875 7.265625 0.9375 12.65625q0.265625 5.375 0.390625 10.234375q0.140625 4.84375 0.140625 10.21875l0 67.87501l-39.578125 0zm216.00122 0l0 -188.53125l36.890625 0l68.671875 111.76561l-24.234375 -0.265625l69.484375 -111.499985l35.28125 0l0 188.53125l-39.59375 0l0 -64.64063q0 -24.234375 1.21875 -43.625q1.21875 -19.390625 4.171875 -38.515625l4.859375 12.65625l-55.21875 85.64063l-17.78125 0l-54.125 -85.10938l4.578125 -13.1875q2.953125 18.046875 4.15625 37.03125q1.21875 18.984375 1.21875 45.109375l0 64.64063l-39.578125 0zm274.4358 0l0 -152.17188l-54.9375 0l0 -36.35936l151.89062 0l0 36.35936l-56.546875 0l0 152.17188l-40.40625 0zm204.9563 2.6875q-20.734375 0 -38.109375 -7.125q-17.359375 -7.140625 -30.15625 -20.203125q-12.796875 -13.0625 -19.796875 -30.968758q-7.0 -17.921875 -7.0 -39.1875q0 -20.75 7.265625 -38.390625q7.265625 -17.640625 20.46875 -30.703125q13.203125 -13.0625 30.96875 -20.32811q17.78125 -7.28125 38.515625 -7.28125q13.46875 0 26.53125 3.640625q13.0625 3.640625 23.96875 10.64061q10.90625 7.0 18.71875 16.703125l-25.3125 28.0q-6.203125 -6.453125 -13.203125 -11.171875q-7.0 -4.71875 -14.671875 -7.265625q-7.671875 -2.5625 -16.296875 -2.5625q-11.578125 0 -21.6875 4.3125q-10.09375 4.296875 -17.640625 11.984375q-7.53125 7.671875 -11.984375 18.578125q-4.4375 10.90625 -4.4375 24.109375q0 13.46875 4.3125 24.375q4.3125 10.90625 12.109375 18.578133q7.8125 7.671875 18.71875 11.859375q10.90625 4.171875 24.109375 4.171875q8.625 0 16.703125 -2.421875q8.078125 -2.4375 14.9375 -6.734375q6.875 -4.3125 12.265625 -9.968758l19.921875 31.515633q-6.734375 7.265625 -17.640625 13.1875q-10.90625 5.921875 -24.375 9.296875q-13.46875 3.359375 -27.203125 3.359375z" fill-rule="nonzero"/><path fill="#efefef" d="m1959.109 -81.97266l190.40002 -236.02283l255.49146 236.02283z" fill-rule="evenodd"/><path stroke="#111111" stroke-width="24.0" stroke-linejoin="round" stroke-linecap="butt" d="m1959.109 -81.97266l190.40002 -236.02283l255.49146 236.02283z" fill-rule="evenodd"/><path fill="#efefef" d="m2082.12 -81.97165l258.073 -315.14752l328.69653 315.14752z" fill-rule="evenodd"/><path stroke="#111111" stroke-width="24.0" stroke-linejoin="round" stroke-linecap="butt" d="m2082.12 -81.97165l258.073 -315.14752l328.69653 315.14752z" fill-rule="evenodd"/><path fill="#000000" fill-opacity="0.0" d="m2362.3076 -75.7769c31.733398 -8.133423 209.60132 -31.600616 190.40137 -48.80053c-19.199707 -17.199913 -279.73438 -29.046364 -305.60083 -54.39895c-25.8667 -25.352585 144.66797 -73.98294 150.40137 -97.71652c5.7336426 -23.733612 -96.666504 -37.23755 -116.0 -44.68506" fill-rule="evenodd"/><path stroke="#cc6f77" stroke-width="12.0" stroke-linejoin="round" stroke-linecap="butt" d="m2362.3076 -75.7769c31.733398 -8.133423 209.60132 -31.600616 190.40137 -48.80053c-19.199707 -17.199913 -279.73438 -29.046364 -305.60083 -54.39895c-25.8667 -25.352585 144.66797 -73.98294 150.40137 -97.71652c5.7336426 -23.733612 -96.666504 -37.23755 -116.0 -44.68506" fill-rule="evenodd"/><path fill="#cc6f77" d="m1905.5092 8.235694l458.91296 -90.20473l361.08716 90.20473z" fill-rule="evenodd"/><path stroke="#1abc9c" stroke-width="1.0" stroke-linejoin="round" stroke-linecap="butt" d="m1905.5092 8.235694l458.91296 -90.20473l361.08716 90.20473z" fill-rule="evenodd"/><path fill="#fdfdfd" fill-opacity="0.9922" d="m2096.0525 10.219942l263.5432 -86.29921l-259.48022 97.82677z" fill-rule="evenodd"/><path fill="#fdfdfd" fill-opacity="0.9922" d="m2545.8662 12.897114l-188.0 -89.19685l182.26758 100.28346z" fill-rule="evenodd"/><path fill="#fdfdfd" fill-opacity="0.9922" d="m2325.2292 15.899133l33.44873 -91.338585l-44.85034 86.23622z" fill-rule="evenodd"/><path fill="#ffffff" d="m1796.0 8.238318l1036.0 0l0 15.748031l-1036.0 0z" fill-rule="evenodd"/><path fill="#000000" fill-opacity="0.0" d="m2341.5188 -397.37216l-130.36206 157.82675" fill-rule="evenodd"/><path stroke="#111111" stroke-width="24.0" stroke-linejoin="round" stroke-linecap="butt" d="m2341.5188 -397.37216l-130.36206 157.82675" fill-rule="evenodd"/><path fill="#fdfdfd" fill-opacity="0.9922" d="m0 0l1040.0 0l0 1040.0l-1040.0 0z" fill-rule="evenodd"/><path fill="#fdfdfd" fill-opacity="0.9922" d="m165.5998 466.5961l190.40015 -236.02281l255.4914 236.02281z" fill-rule="evenodd"/><path stroke="#111111" stroke-width="24.0" stroke-linejoin="round" stroke-linecap="butt" d="m165.5998 466.5961l190.40015 -236.02281l255.4914 236.02281z" fill-rule="evenodd"/><path fill="#fdfdfd" fill-opacity="0.9922" d="m288.61102 466.5971l258.07294 -315.1475l328.69653 315.1475z" fill-rule="evenodd"/><path stroke="#111111" stroke-width="24.0" stroke-linejoin="round" stroke-linecap="butt" d="m288.61102 466.5971l258.07294 -315.1475l328.69653 315.1475z" fill-rule="evenodd"/><path fill="#000000" fill-opacity="0.0" d="m0 556.80444l1040.0 0l0 332.0l-1040.0 0z" fill-rule="evenodd"/><path fill="#111111" d="m145.37143 810.0685l0 -188.53125l36.078125 0l104.234375 140.85938l-7.546875 0q-1.078125 -8.34375 -1.890625 -16.28125q-0.796875 -7.953125 -1.46875 -16.171875q-0.671875 -8.21875 -1.078125 -16.96875q-0.40625 -8.75 -0.671875 -18.578125q-0.265625 -9.828125 -0.265625 -21.421875l0 -51.4375l39.59375 0l0 188.53125l-36.640625 0l-106.375 -142.20312l10.234375 0.265625q1.34375 14.0 2.28125 23.84375q0.953125 9.828125 1.625 17.109375q0.671875 7.265625 0.9375 12.65625q0.265625 5.375 0.390625 10.234375q0.140625 4.84375 0.140625 10.21875l0 67.875l-39.578125 0zm216.00113 0l0 -188.53125l36.890625 0l68.671875 111.765625l-24.234375 -0.265625l69.484375 -111.5l35.28125 0l0 188.53125l-39.59375 0l0 -64.640625q0 -24.234375 1.21875 -43.625q1.21875 -19.390625 4.171875 -38.515625l4.859375 12.65625l-55.21875 85.640625l-17.78125 0l-54.125 -85.109375l4.578125 -13.1875q2.953125 18.046875 4.15625 37.03125q1.21875 18.984375 1.21875 45.109375l0 64.640625l-39.578125 0zm274.4359 0l0 -152.17188l-54.9375 0l0 -36.359375l151.89062 0l0 36.359375l-56.546875 0l0 152.17188l-40.40625 0zm204.95618 2.6875q-20.734375 0 -38.109375 -7.125q-17.359375 -7.140625 -30.15625 -20.203125q-12.796875 -13.0625 -19.796875 -30.96875q-7.0 -17.921875 -7.0 -39.1875q0 -20.75 7.265625 -38.390625q7.265625 -17.640625 20.46875 -30.703125q13.203125 -13.0625 30.96875 -20.328125q17.78125 -7.28125 38.515625 -7.28125q13.46875 0 26.53125 3.640625q13.0625 3.640625 23.96875 10.640625q10.90625 7.0 18.71875 16.703125l-25.3125 28.0q-6.203125 -6.453125 -13.203125 -11.171875q-7.0 -4.71875 -14.671875 -7.265625q-7.671875 -2.5625 -16.296875 -2.5625q-11.578125 0 -21.6875 4.3125q-10.09375 4.296875 -17.640625 11.984375q-7.53125 7.671875 -11.984375 18.578125q-4.4375 10.90625 -4.4375 24.109375q0 13.46875 4.3125 24.375q4.3125 10.90625 12.109375 18.578125q7.8125 7.671875 18.71875 11.859375q10.90625 4.171875 24.109375 4.171875q8.625 0 16.703125 -2.421875q8.078125 -2.4375 14.9375 -6.734375q6.875 -4.3125 12.265625 -9.96875l19.921875 31.515625q-6.734375 7.265625 -17.640625 13.1875q-10.90625 5.921875 -24.375 9.296875q-13.46875 3.359375 -27.203125 3.359375z" fill-rule="nonzero"/><path fill="#000000" fill-opacity="0.0" d="m568.79895 472.79135c31.733582 -8.133423 209.6015 -31.600616 190.40155 -48.800537c-19.19989 -17.19992 -283.60104 -28.799225 -305.60104 -54.398956c-22.0 -25.599731 167.86746 -75.46588 173.60104 -99.19946c5.7336426 -23.733597 -115.99954 -36.001755 -139.19946 -43.202103" fill-rule="evenodd"/><path stroke="#111111" stroke-width="12.0" stroke-linejoin="round" stroke-linecap="butt" d="m568.79895 472.79135c31.733582 -8.133423 209.6015 -31.600616 190.40155 -48.800537c-19.19989 -17.19992 -283.60104 -28.799225 -305.60104 -54.398956c-22.0 -25.599731 167.86746 -75.46588 173.60104 -99.19946c5.7336426 -23.733597 -115.99954 -36.001755 -139.19946 -43.202103" fill-rule="evenodd"/><path fill="#111111" d="m112.0 556.80444l458.91302 -90.20471l361.08698 90.20471z" fill-rule="evenodd"/><path stroke="#111111" stroke-width="1.0" stroke-linejoin="round" stroke-linecap="butt" d="m112.0 556.80444l458.91302 -90.20471l361.08698 90.20471z" fill-rule="evenodd"/><path fill="#fdfdfd" fill-opacity="0.9922" d="m302.5433 558.7887l263.5433 -86.299194l-259.48032 97.82678z" fill-rule="evenodd"/><path fill="#fdfdfd" fill-opacity="0.9922" d="m752.35693 561.4659l-188.0 -89.19684l182.2677 100.28345z" fill-rule="evenodd"/><path fill="#fdfdfd" fill-opacity="0.9922" d="m531.72003 564.4679l33.44879 -91.33859l-44.850403 86.23624z" fill-rule="evenodd"/><path fill="#fdfdfd" fill-opacity="0.9922" d="m2.4908137 556.80707l1036.0 0l0 15.748047l-1036.0 0z" fill-rule="evenodd"/><path fill="#000000" fill-opacity="0.0" d="m548.0097 151.1966l-130.36221 157.82678" fill-rule="evenodd"/><path stroke="#111111" stroke-width="24.0" stroke-linejoin="round" stroke-linecap="butt" d="m548.0097 151.1966l-130.36221 157.82678" fill-rule="evenodd"/><path fill="#ffffff" d="m1953.5092 132.0l1660.0001 0l0 444.69293l-1660.0001 0z" fill-rule="evenodd"/><path fill="#000000" fill-opacity="0.0" d="m2688.311 224.67926l1040.0 0l0 332.0l-1040.0 0z" fill-rule="evenodd"/><path fill="#1abc9c" d="m2833.6824 477.94327l0 -188.53125l36.078125 0l104.234375 140.85938l-7.546875 0q-1.078125 -8.34375 -1.890625 -16.28125q-0.796875 -7.953125 -1.46875 -16.171875q-0.671875 -8.21875 -1.078125 -16.96875q-0.40625 -8.75 -0.671875 -18.578125q-0.265625 -9.828125 -0.265625 -21.421875l0 -51.4375l39.59375 0l0 188.53125l-36.640625 0l-106.375 -142.20312l10.234375 0.265625q1.34375 14.0 2.28125 23.84375q0.953125 9.828125 1.625 17.109375q0.671875 7.265625 0.9375 12.65625q0.265625 5.375 0.390625 10.234375q0.140625 4.84375 0.140625 10.21875l0 67.875l-39.578125 0zm216.00122 0l0 -188.53125l36.890625 0l68.671875 111.765625l-24.234375 -0.265625l69.484375 -111.5l35.28125 0l0 188.53125l-39.59375 0l0 -64.640625q0 -24.234375 1.21875 -43.625q1.21875 -19.390625 4.171875 -38.515625l4.859375 12.65625l-55.21875 85.640625l-17.78125 0l-54.125 -85.109375l4.578125 -13.1875q2.953125 18.046875 4.15625 37.03125q1.21875 18.984375 1.21875 45.109375l0 64.640625l-39.578125 0zm274.4358 0l0 -152.17188l-54.9375 0l0 -36.359375l151.89062 0l0 36.359375l-56.546875 0l0 152.17188l-40.40625 0zm204.9563 2.6875q-20.734375 0 -38.109375 -7.125q-17.359375 -7.140625 -30.15625 -20.203125q-12.796875 -13.0625 -19.796875 -30.96875q-7.0 -17.921875 -7.0 -39.1875q0 -20.75 7.265625 -38.390625q7.265625 -17.640625 20.46875 -30.703125q13.203125 -13.0625 30.96875 -20.328125q17.78125 -7.28125 38.515625 -7.28125q13.46875 0 26.53125 3.640625q13.0625 3.640625 23.96875 10.640625q10.90625 7.0 18.71875 16.703125l-25.3125 28.0q-6.203125 -6.453125 -13.203125 -11.171875q-7.0 -4.71875 -14.671875 -7.265625q-7.671875 -2.5625 -16.296875 -2.5625q-11.578125 0 -21.6875 4.3125q-10.09375 4.296875 -17.640625 11.984375q-7.53125 7.671875 -11.984375 18.578125q-4.4375 10.90625 -4.4375 24.109375q0 13.46875 4.3125 24.375q4.3125 10.90625 12.109375 18.578125q7.8125 7.671875 18.71875 11.859375q10.90625 4.171875 24.109375 4.171875q8.625 0 16.703125 -2.421875q8.078125 -2.4375 14.9375 -6.734375q6.875 -4.3125 12.265625 -9.96875l19.921875 31.515625q-6.734375 7.265625 -17.640625 13.1875q-10.90625 5.921875 -24.375 9.296875q-13.46875 3.359375 -27.203125 3.359375z" fill-rule="nonzero"/><path fill="#fff9f8" d="m2031.109 470.72025l190.40002 -236.02281l255.49146 236.02281z" fill-rule="evenodd"/><path stroke="#5ecfb8" stroke-width="24.0" stroke-linejoin="round" stroke-linecap="butt" d="m2031.109 470.72025l190.40002 -236.02281l255.49146 236.02281z" fill-rule="evenodd"/><path fill="#fceeec" d="m2154.12 470.72125l258.073 -315.1475l328.69653 315.1475z" fill-rule="evenodd"/><path stroke="#1abc9c" stroke-width="24.0" stroke-linejoin="round" stroke-linecap="butt" d="m2154.12 470.72125l258.073 -315.1475l328.69653 315.1475z" fill-rule="evenodd"/><path fill="#000000" fill-opacity="0.0" d="m2434.3076 476.91602c31.733398 -8.133423 209.60132 -31.600616 190.40137 -48.800537c-19.199707 -17.19992 -279.73438 -29.046356 -305.60083 -54.398956c-25.8667 -25.35257 144.66797 -73.98294 150.40137 -97.71652c5.7336426 -23.733597 -96.666504 -37.237534 -116.0 -44.685043" fill-rule="evenodd"/><path stroke="#cc6f77" stroke-width="12.0" stroke-linejoin="round" stroke-linecap="butt" d="m2434.3076 476.91602c31.733398 -8.133423 209.60132 -31.600616 190.40137 -48.800537c-19.199707 -17.19992 -279.73438 -29.046356 -305.60083 -54.398956c-25.8667 -25.35257 144.66797 -73.98294 150.40137 -97.71652c5.7336426 -23.733597 -96.666504 -37.237534 -116.0 -44.685043" fill-rule="evenodd"/><path fill="#cc6f77" d="m1977.5092 560.9286l458.91296 -90.20471l361.08716 90.20471z" fill-rule="evenodd"/><path stroke="#cc6f77" stroke-width="1.0" stroke-linejoin="round" stroke-linecap="butt" d="m1977.5092 560.9286l458.91296 -90.20471l361.08716 90.20471z" fill-rule="evenodd"/><path fill="#fceeec" d="m2168.0525 562.91284l263.5432 -86.299194l-259.48022 97.82678z" fill-rule="evenodd"/><path fill="#fceeec" d="m2617.8662 565.59l-188.0 -89.19684l182.26758 100.28345z" fill-rule="evenodd"/><path fill="#fceeec" d="m2397.2292 568.59204l33.44873 -91.33859l-44.85034 86.23624z" fill-rule="evenodd"/><path fill="#ffffff" d="m1868.0 560.9312l1036.0 0l0 15.748047l-1036.0 0z" fill-rule="evenodd"/><path fill="#000000" fill-opacity="0.0" d="m2413.5188 155.32074l-130.36206 157.82678" fill-rule="evenodd"/><path stroke="#1abc9c" stroke-width="24.0" stroke-linejoin="round" stroke-linecap="butt" d="m2413.5188 155.32074l-130.36206 157.82678" fill-rule="evenodd"/></g></svg>