<svg version="1.1" viewBox="0.0 0.0 1676.0 448.0" fill="none" stroke="none" stroke-linecap="square" stroke-miterlimit="10" xmlns:xlink="http://www.w3.org/1999/xlink" xmlns="http://www.w3.org/2000/svg"><clipPath id="p.0"><path d="m0 0l1676.0 0l0 448.0l-1676.0 0l0 -448.0z" clip-rule="nonzero"/></clipPath><g clip-path="url(#p.0)"><path fill="#000000" fill-opacity="0.0" d="m0 0l1676.0 0l0 448.0l-1676.0 0z" fill-rule="evenodd"/><path fill="#000000" fill-opacity="0.0" d="m2811.555 1221.5984c31.733398 -8.133423 209.60132 -31.600586 190.40161 -48.800537c-19.199951 -17.19983 -283.60107 -28.799194 -305.60107 -54.398926c-22.0 -25.599731 167.86743 -75.46582 173.60107 -99.19946c5.7333984 -23.733582 -115.999756 -36.00171 -139.1997 -43.202087" fill-rule="evenodd"/><path stroke="#cc6f77" stroke-width="12.0" stroke-linejoin="round" stroke-linecap="butt" d="m2811.555 1221.5984c31.733398 -8.133423 209.60132 -31.600586 190.40161 -48.800537c-19.199951 -17.19983 -283.60107 -28.799194 -305.60107 -54.398926c-22.0 -25.599731 167.86743 -75.46582 173.60107 -99.19946c5.7333984 -23.733582 -115.999756 -36.00171 -139.1997 -43.202087" fill-rule="evenodd"/><path fill="#fdfdfd" fill-opacity="0.9922" d="m-1160.0 -1072.0l1040.0 0l0 1040.0l-1040.0 0z" fill-rule="evenodd"/><path fill="#fff9f8" d="m-994.4002 -605.4039l190.40015 -236.02283l255.4914 236.02283z" fill-rule="evenodd"/><path stroke="#5ecfb8" stroke-width="24.0" stroke-linejoin="round" stroke-linecap="butt" d="m-994.4002 -605.4039l190.40015 -236.02283l255.4914 236.02283z" fill-rule="evenodd"/><path fill="#fceeec" d="m-871.389 -605.4029l258.07294 -315.14752l328.69653 315.14752z" fill-rule="evenodd"/><path stroke="#1abc9c" stroke-width="24.0" stroke-linejoin="round" stroke-linecap="butt" d="m-871.389 -605.4029l258.07294 -315.14752l328.69653 315.14752z" fill-rule="evenodd"/><path fill="#000000" fill-opacity="0.0" d="m-1160.0 -515.19556l1040.0 0l0 332.0l-1040.0 0z" fill-rule="evenodd"/><path fill="#1abc9c" d="m-1014.62854 -261.93152l0 -188.53125l36.078125 0l104.234375 140.85938l-7.546875 0q-1.078125 -8.34375 -1.890625 -16.28125q-0.796875 -7.953125 -1.46875 -16.171875q-0.671875 -8.21875 -1.078125 -16.96875q-0.40625 -8.75 -0.671875 -18.578125q-0.265625 -9.828125 -0.265625 -21.421875l0 -51.4375l39.59375 0l0 188.53125l-36.640625 0l-106.375 -142.20312l10.234375 0.265625q1.34375 14.0 2.28125 23.84375q0.953125 9.828125 1.625 17.109375q0.671875 7.265625 0.9375 12.65625q0.265625 5.375 0.390625 10.234375q0.140625 4.84375 0.140625 10.21875l0 67.875l-39.578125 0zm216.0011 0l0 -188.53125l36.890625 0l68.671875 111.765625l-24.234375 -0.265625l69.484375 -111.5l35.28125 0l0 188.53125l-39.59375 0l0 -64.640625q0 -24.234375 1.21875 -43.625q1.21875 -19.390625 4.171875 -38.515625l4.859375 12.65625l-55.21875 85.640625l-17.78125 0l-54.125 -85.109375l4.578125 -13.1875q2.953125 18.046875 4.15625 37.03125q1.21875 18.984375 1.21875 45.109375l0 64.640625l-39.578125 0zm274.4359 0l0 -152.17188l-54.9375 0l0 -36.359375l151.89062 0l0 36.359375l-56.546875 0l0 152.17188l-40.40625 0zm204.95618 2.6875q-20.734375 0 -38.109375 -7.125q-17.359375 -7.140625 -30.15625 -20.203125q-12.796875 -13.0625 -19.796875 -30.96875q-7.0 -17.921875 -7.0 -39.1875q0 -20.75 7.265625 -38.390625q7.265625 -17.640625 20.46875 -30.703125q13.203125 -13.0625 30.96875 -20.328125q17.78125 -7.28125 38.515625 -7.28125q13.46875 0 26.53125 3.640625q13.0625 3.640625 23.96875 10.640625q10.90625 7.0 18.71875 16.703125l-25.3125 28.0q-6.203125 -6.453125 -13.203125 -11.171875q-7.0 -4.71875 -14.671875 -7.265625q-7.671875 -2.5625 -16.296875 -2.5625q-11.578125 0 -21.6875 4.3125q-10.09375 4.296875 -17.640625 11.984375q-7.53125 7.671875 -11.984375 18.578125q-4.4375 10.90625 -4.4375 24.109375q0 13.46875 4.3125 24.375q4.3125 10.90625 12.109375 18.578125q7.8125 7.671875 18.71875 11.859375q10.90625 4.171875 24.109375 4.171875q8.625 0 16.703125 -2.421875q8.078125 -2.4375 14.9375 -6.734375q6.875 -4.3125 12.265625 -9.96875l19.921875 31.515625q-6.734375 7.265625 -17.640625 13.1875q-10.90625 5.921875 -24.375 9.296875q-13.46875 3.359375 -27.203125 3.359375z" fill-rule="nonzero"/><path fill="#000000" fill-opacity="0.0" d="m-591.20105 -599.2087c31.733582 -8.133423 209.60147 -31.600586 190.40158 -48.800537c-19.19992 -17.19989 -283.60104 -28.799194 -305.60104 -54.398926c-22.0 -25.599731 167.86743 -75.46588 173.60101 -99.19946c5.7336426 -23.733582 -115.99957 -36.00177 -139.19946 -43.202087" fill-rule="evenodd"/><path stroke="#cc6f77" stroke-width="12.0" stroke-linejoin="round" stroke-linecap="butt" d="m-591.20105 -599.2087c31.733582 -8.133423 209.60147 -31.600586 190.40158 -48.800537c-19.19992 -17.19989 -283.60104 -28.799194 -305.60104 -54.398926c-22.0 -25.599731 167.86743 -75.46588 173.60101 -99.19946c5.7336426 -23.733582 -115.99957 -36.00177 -139.19946 -43.202087" fill-rule="evenodd"/><path fill="#cc6f77" d="m-1048.0 -515.19556l458.91302 -90.20471l361.08698 90.20471z" fill-rule="evenodd"/><path stroke="#cc6f77" stroke-width="1.0" stroke-linejoin="round" stroke-linecap="butt" d="m-1048.0 -515.19556l458.91302 -90.20471l361.08698 90.20471z" fill-rule="evenodd"/><path fill="#fceeec" d="m-857.45667 -513.2113l263.54327 -86.299194l-259.4803 97.82678z" fill-rule="evenodd"/><path fill="#fceeec" d="m-407.64307 -510.53412l-188.0 -89.19684l182.26773 100.28345z" fill-rule="evenodd"/><path fill="#fceeec" d="m-628.27997 -507.5321l33.44879 -91.33856l-44.850403 86.236206z" fill-rule="evenodd"/><path fill="#fdfdfd" fill-opacity="0.9922" d="m-1157.5092 -515.19293l1036.0 0l0 15.748047l-1036.0 0z" fill-rule="evenodd"/><path fill="#000000" fill-opacity="0.0" d="m-611.9903 -920.8034l-130.36224 157.82678" fill-rule="evenodd"/><path stroke="#1abc9c" stroke-width="24.0" stroke-linejoin="round" stroke-linecap="butt" d="m-611.9903 -920.8034l-130.36224 157.82678" fill-rule="evenodd"/><path fill="#fdfdfd" fill-opacity="0.9922" d="m9.509187 0l1660.0 0l0 444.6929l-1660.0 0z" fill-rule="evenodd"/><path fill="#000000" fill-opacity="0.0" d="m744.31104 92.67926l1040.0 0l0 332.0l-1040.0 0z" fill-rule="evenodd"/><path fill="#111111" d="m889.68243 345.94327l0 -188.53125l36.078125 0l104.234436 140.85938l-7.546936 0q-1.078125 -8.34375 -1.890625 -16.28125q-0.796875 -7.953125 -1.46875 -16.171875q-0.671875 -8.21875 -1.078125 -16.96875q-0.40625 -8.75 -0.671875 -18.578125q-0.265625 -9.828125 -0.265625 -21.421875l0 -51.4375l39.59381 0l0 188.53125l-36.640686 0l-106.375 -142.20312l10.234375 0.265625q1.34375 14.0 2.28125 23.84375q0.953125 9.828125 1.625 17.109375q0.671875 7.265625 0.9375 12.65625q0.265625 5.375 0.390625 10.234375q0.140625 4.84375 0.140625 10.21875l0 67.875l-39.578125 0zm216.00116 0l0 -188.53125l36.890625 0l68.671875 111.765625l-24.234375 -0.265625l69.484375 -111.5l35.28125 0l0 188.53125l-39.59375 0l0 -64.640625q0 -24.234375 1.21875 -43.625q1.21875 -19.390625 4.171875 -38.515625l4.859375 12.65625l-55.21875 85.640625l-17.78125 0l-54.125 -85.109375l4.578125 -13.1875q2.953125 18.046875 4.15625 37.03125q1.21875 18.984375 1.21875 45.109375l0 64.640625l-39.578125 0zm274.4359 0l0 -152.17188l-54.9375 0l0 -36.359375l151.89062 0l0 36.359375l-56.546875 0l0 152.17188l-40.40625 0zm204.95618 2.6875q-20.734375 0 -38.109375 -7.125q-17.359375 -7.140625 -30.15625 -20.203125q-12.796875 -13.0625 -19.796875 -30.96875q-7.0 -17.921875 -7.0 -39.1875q0 -20.75 7.265625 -38.390625q7.265625 -17.640625 20.46875 -30.703125q13.203125 -13.0625 30.96875 -20.328125q17.78125 -7.28125 38.515625 -7.28125q13.46875 0 26.53125 3.640625q13.0625 3.640625 23.96875 10.640625q10.90625 7.0 18.71875 16.703125l-25.3125 28.0q-6.203125 -6.453125 -13.203125 -11.171875q-7.0 -4.71875 -14.671875 -7.265625q-7.671875 -2.5625 -16.296875 -2.5625q-11.578125 0 -21.6875 4.3125q-10.09375 4.296875 -17.640625 11.984375q-7.53125 7.671875 -11.984375 18.578125q-4.4375 10.90625 -4.4375 24.109375q0 13.46875 4.3125 24.375q4.3125 10.90625 12.109375 18.578125q7.8125 7.671875 18.71875 11.859375q10.90625 4.171875 24.109375 4.171875q8.625 0 16.703125 -2.421875q8.078125 -2.4375 14.9375 -6.734375q6.875 -4.3125 12.265625 -9.96875l19.921875 31.515625q-6.734375 7.265625 -17.640625 13.1875q-10.90625 5.921875 -24.375 9.296875q-13.46875 3.359375 -27.203125 3.359375z" fill-rule="nonzero"/><path fill="#efefef" d="m87.108986 338.72025l190.40015 -236.02281l255.49136 236.02281z" fill-rule="evenodd"/><path stroke="#111111" stroke-width="24.0" stroke-linejoin="round" stroke-linecap="butt" d="m87.108986 338.72025l190.40015 -236.02281l255.49136 236.02281z" fill-rule="evenodd"/><path fill="#efefef" d="m210.1202 338.72125l258.07294 -315.1475l328.69656 315.1475z" fill-rule="evenodd"/><path stroke="#111111" stroke-width="24.0" stroke-linejoin="round" stroke-linecap="butt" d="m210.1202 338.72125l258.07294 -315.1475l328.69656 315.1475z" fill-rule="evenodd"/><path fill="#000000" fill-opacity="0.0" d="m490.30753 344.91602c31.733612 -8.133423 209.60147 -31.600616 190.40158 -48.800537c-19.199951 -17.19992 -279.7345 -29.046356 -305.60107 -54.39894c-25.866577 -25.352585 144.66797 -73.98294 150.40161 -97.71654c5.7335815 -23.733597 -96.66669 -37.237534 -116.00003 -44.685036" fill-rule="evenodd"/><path stroke="#cc6f77" stroke-width="12.0" stroke-linejoin="round" stroke-linecap="butt" d="m490.30753 344.91602c31.733612 -8.133423 209.60147 -31.600616 190.40158 -48.800537c-19.199951 -17.19992 -279.7345 -29.046356 -305.60107 -54.39894c-25.866577 -25.352585 144.66797 -73.98294 150.40161 -97.71654c5.7335815 -23.733597 -96.66669 -37.237534 -116.00003 -44.685036" fill-rule="evenodd"/><path fill="#cc6f77" d="m33.509186 428.92862l458.913 -90.20474l361.08704 90.20474z" fill-rule="evenodd"/><path stroke="#1abc9c" stroke-width="1.0" stroke-linejoin="round" stroke-linecap="butt" d="m33.509186 428.92862l458.913 -90.20474l361.08704 90.20474z" fill-rule="evenodd"/><path fill="#fdfdfd" fill-opacity="0.9922" d="m224.0525 430.91284l263.54327 -86.299194l-259.4803 97.82678z" fill-rule="evenodd"/><path fill="#fdfdfd" fill-opacity="0.9922" d="m673.86615 433.59003l-188.00003 -89.19684l182.26773 100.28345z" fill-rule="evenodd"/><path fill="#fdfdfd" fill-opacity="0.9922" d="m453.2292 436.59204l33.448822 -91.33859l-44.850372 86.23624z" fill-rule="evenodd"/><path fill="#ffffff" d="m-76.0 428.93124l1036.0 0l0 15.748016l-1036.0 0z" fill-rule="evenodd"/><path fill="#000000" fill-opacity="0.0" d="m469.5189 23.320736l-130.36221 157.82677" fill-rule="evenodd"/><path stroke="#111111" stroke-width="24.0" stroke-linejoin="round" stroke-linecap="butt" d="m469.5189 23.320736l-130.36221 157.82677" fill-rule="evenodd"/><path fill="#fdfdfd" fill-opacity="0.9922" d="m-1160.0 24.0l1040.0 0l0 1040.0l-1040.0 0z" fill-rule="evenodd"/><path fill="#fdfdfd" fill-opacity="0.9922" d="m-994.4002 490.5961l190.40015 -236.02281l255.4914 236.02281z" fill-rule="evenodd"/><path stroke="#111111" stroke-width="24.0" stroke-linejoin="round" stroke-linecap="butt" d="m-994.4002 490.5961l190.40015 -236.02281l255.4914 236.02281z" fill-rule="evenodd"/><path fill="#fdfdfd" fill-opacity="0.9922" d="m-871.389 490.5971l258.07294 -315.1475l328.69653 315.1475z" fill-rule="evenodd"/><path stroke="#111111" stroke-width="24.0" stroke-linejoin="round" stroke-linecap="butt" d="m-871.389 490.5971l258.07294 -315.1475l328.69653 315.1475z" fill-rule="evenodd"/><path fill="#000000" fill-opacity="0.0" d="m-1160.0 580.80444l1040.0 0l0 332.0l-1040.0 0z" fill-rule="evenodd"/><path fill="#111111" d="m-1014.62854 834.0685l0 -188.53125l36.078125 0l104.234375 140.85938l-7.546875 0q-1.078125 -8.34375 -1.890625 -16.28125q-0.796875 -7.953125 -1.46875 -16.171875q-0.671875 -8.21875 -1.078125 -16.96875q-0.40625 -8.75 -0.671875 -18.578125q-0.265625 -9.828125 -0.265625 -21.421875l0 -51.4375l39.59375 0l0 188.53125l-36.640625 0l-106.375 -142.20312l10.234375 0.265625q1.34375 14.0 2.28125 23.84375q0.953125 9.828125 1.625 17.109375q0.671875 7.265625 0.9375 12.65625q0.265625 5.375 0.390625 10.234375q0.140625 4.84375 0.140625 10.21875l0 67.875l-39.578125 0zm216.0011 0l0 -188.53125l36.890625 0l68.671875 111.765625l-24.234375 -0.265625l69.484375 -111.5l35.28125 0l0 188.53125l-39.59375 0l0 -64.640625q0 -24.234375 1.21875 -43.625q1.21875 -19.390625 4.171875 -38.515625l4.859375 12.65625l-55.21875 85.640625l-17.78125 0l-54.125 -85.109375l4.578125 -13.1875q2.953125 18.046875 4.15625 37.03125q1.21875 18.984375 1.21875 45.109375l0 64.640625l-39.578125 0zm274.4359 0l0 -152.17188l-54.9375 0l0 -36.359375l151.89062 0l0 36.359375l-56.546875 0l0 152.17188l-40.40625 0zm204.95618 2.6875q-20.734375 0 -38.109375 -7.125q-17.359375 -7.140625 -30.15625 -20.203125q-12.796875 -13.0625 -19.796875 -30.96875q-7.0 -17.921875 -7.0 -39.1875q0 -20.75 7.265625 -38.390625q7.265625 -17.640625 20.46875 -30.703125q13.203125 -13.0625 30.96875 -20.328125q17.78125 -7.28125 38.515625 -7.28125q13.46875 0 26.53125 3.640625q13.0625 3.640625 23.96875 10.640625q10.90625 7.0 18.71875 16.703125l-25.3125 28.0q-6.203125 -6.453125 -13.203125 -11.171875q-7.0 -4.71875 -14.671875 -7.265625q-7.671875 -2.5625 -16.296875 -2.5625q-11.578125 0 -21.6875 4.3125q-10.09375 4.296875 -17.640625 11.984375q-7.53125 7.671875 -11.984375 18.578125q-4.4375 10.90625 -4.4375 24.109375q0 13.46875 4.3125 24.375q4.3125 10.90625 12.109375 18.578125q7.8125 7.671875 18.71875 11.859375q10.90625 4.171875 24.109375 4.171875q8.625 0 16.703125 -2.421875q8.078125 -2.4375 14.9375 -6.734375q6.875 -4.3125 12.265625 -9.96875l19.921875 31.515625q-6.734375 7.265625 -17.640625 13.1875q-10.90625 5.921875 -24.375 9.296875q-13.46875 3.359375 -27.203125 3.359375z" fill-rule="nonzero"/><path fill="#000000" fill-opacity="0.0" d="m-591.20105 496.79135c31.733582 -8.133423 209.60147 -31.600616 190.40158 -48.800537c-19.19992 -17.19992 -283.60104 -28.799225 -305.60104 -54.398956c-22.0 -25.599731 167.86743 -75.46588 173.60101 -99.19946c5.7336426 -23.733612 -115.99957 -36.00177 -139.19946 -43.202103" fill-rule="evenodd"/><path stroke="#111111" stroke-width="12.0" stroke-linejoin="round" stroke-linecap="butt" d="m-591.20105 496.79135c31.733582 -8.133423 209.60147 -31.600616 190.40158 -48.800537c-19.19992 -17.19992 -283.60104 -28.799225 -305.60104 -54.398956c-22.0 -25.599731 167.86743 -75.46588 173.60101 -99.19946c5.7336426 -23.733612 -115.99957 -36.00177 -139.19946 -43.202103" fill-rule="evenodd"/><path fill="#111111" d="m-1048.0 580.80444l458.91302 -90.20471l361.08698 90.20471z" fill-rule="evenodd"/><path stroke="#cc6f77" stroke-width="1.0" stroke-linejoin="round" stroke-linecap="butt" d="m-1048.0 580.80444l458.91302 -90.20471l361.08698 90.20471z" fill-rule="evenodd"/><path fill="#fdfdfd" fill-opacity="0.9922" d="m-857.45667 582.7887l263.54327 -86.299194l-259.4803 97.82678z" fill-rule="evenodd"/><path fill="#fdfdfd" fill-opacity="0.9922" d="m-407.64307 585.4659l-188.0 -89.19684l182.26773 100.28345z" fill-rule="evenodd"/><path fill="#fdfdfd" fill-opacity="0.9922" d="m-628.27997 588.4679l33.44879 -91.33859l-44.850403 86.23624z" fill-rule="evenodd"/><path fill="#fdfdfd" fill-opacity="0.9922" d="m-1157.5092 580.80707l1036.0 0l0 15.748047l-1036.0 0z" fill-rule="evenodd"/><path fill="#000000" fill-opacity="0.0" d="m-611.9903 175.1966l-130.36224 157.82678" fill-rule="evenodd"/><path stroke="#111111" stroke-width="24.0" stroke-linejoin="round" stroke-linecap="butt" d="m-611.9903 175.1966l-130.36224 157.82678" fill-rule="evenodd"/><path fill="#ffffff" d="m9.509187 580.0l1660.0 0l0 444.69287l-1660.0 0z" fill-rule="evenodd"/><path fill="#000000" fill-opacity="0.0" d="m744.31104 672.67926l1040.0 0l0 332.0l-1040.0 0z" fill-rule="evenodd"/><path fill="#1abc9c" d="m889.68243 925.9433l0 -188.53125l36.078125 0l104.234436 140.85938l-7.546936 0q-1.078125 -8.34375 -1.890625 -16.28125q-0.796875 -7.953125 -1.46875 -16.171875q-0.671875 -8.21875 -1.078125 -16.96875q-0.40625 -8.75 -0.671875 -18.578125q-0.265625 -9.828125 -0.265625 -21.421875l0 -51.4375l39.59381 0l0 188.53125l-36.640686 0l-106.375 -142.20312l10.234375 0.265625q1.34375 14.0 2.28125 23.84375q0.953125 9.828125 1.625 17.109375q0.671875 7.265625 0.9375 12.65625q0.265625 5.375 0.390625 10.234375q0.140625 4.84375 0.140625 10.21875l0 67.875l-39.578125 0zm216.00116 0l0 -188.53125l36.890625 0l68.671875 111.765625l-24.234375 -0.265625l69.484375 -111.5l35.28125 0l0 188.53125l-39.59375 0l0 -64.640625q0 -24.234375 1.21875 -43.625q1.21875 -19.390625 4.171875 -38.515625l4.859375 12.65625l-55.21875 85.640625l-17.78125 0l-54.125 -85.109375l4.578125 -13.1875q2.953125 18.046875 4.15625 37.03125q1.21875 18.984375 1.21875 45.109375l0 64.640625l-39.578125 0zm274.4359 0l0 -152.17188l-54.9375 0l0 -36.359375l151.89062 0l0 36.359375l-56.546875 0l0 152.17188l-40.40625 0zm204.95618 2.6875q-20.734375 0 -38.109375 -7.125q-17.359375 -7.140625 -30.15625 -20.203125q-12.796875 -13.0625 -19.796875 -30.96875q-7.0 -17.921875 -7.0 -39.1875q0 -20.75 7.265625 -38.390625q7.265625 -17.640625 20.46875 -30.703125q13.203125 -13.0625 30.96875 -20.328125q17.78125 -7.28125 38.515625 -7.28125q13.46875 0 26.53125 3.640625q13.0625 3.640625 23.96875 10.640625q10.90625 7.0 18.71875 16.703125l-25.3125 28.0q-6.203125 -6.453125 -13.203125 -11.171875q-7.0 -4.71875 -14.671875 -7.265625q-7.671875 -2.5625 -16.296875 -2.5625q-11.578125 0 -21.6875 4.3125q-10.09375 4.296875 -17.640625 11.984375q-7.53125 7.671875 -11.984375 18.578125q-4.4375 10.90625 -4.4375 24.109375q0 13.46875 4.3125 24.375q4.3125 10.90625 12.109375 18.578125q7.8125 7.671875 18.71875 11.859375q10.90625 4.171875 24.109375 4.171875q8.625 0 16.703125 -2.421875q8.078125 -2.4375 14.9375 -6.734375q6.875 -4.3125 12.265625 -9.96875l19.921875 31.515625q-6.734375 7.265625 -17.640625 13.1875q-10.90625 5.921875 -24.375 9.296875q-13.46875 3.359375 -27.203125 3.359375z" fill-rule="nonzero"/><path fill="#fff9f8" d="m87.108986 918.7203l190.40015 -236.02283l255.49136 236.02283z" fill-rule="evenodd"/><path stroke="#5ecfb8" stroke-width="24.0" stroke-linejoin="round" stroke-linecap="butt" d="m87.108986 918.7203l190.40015 -236.02283l255.49136 236.02283z" fill-rule="evenodd"/><path fill="#fceeec" d="m210.1202 918.72125l258.07294 -315.14752l328.69656 315.14752z" fill-rule="evenodd"/><path stroke="#1abc9c" stroke-width="24.0" stroke-linejoin="round" stroke-linecap="butt" d="m210.1202 918.72125l258.07294 -315.14752l328.69656 315.14752z" fill-rule="evenodd"/><path fill="#000000" fill-opacity="0.0" d="m490.30753 924.916c31.733612 -8.133423 209.60147 -31.600647 190.40158 -48.800537c-19.199951 -17.19989 -279.7345 -29.046387 -305.60107 -54.398926c-25.866577 -25.3526 144.66797 -73.98297 150.40161 -97.71655c5.7335815 -23.733582 -96.66669 -37.23755 -116.00003 -44.68506" fill-rule="evenodd"/><path stroke="#cc6f77" stroke-width="12.0" stroke-linejoin="round" stroke-linecap="butt" d="m490.30753 924.916c31.733612 -8.133423 209.60147 -31.600647 190.40158 -48.800537c-19.199951 -17.19989 -279.7345 -29.046387 -305.60107 -54.398926c-25.866577 -25.3526 144.66797 -73.98297 150.40161 -97.71655c5.7335815 -23.733582 -96.66669 -37.23755 -116.00003 -44.68506" fill-rule="evenodd"/><path fill="#cc6f77" d="m33.509186 1008.9286l458.913 -90.20471l361.08704 90.20471z" fill-rule="evenodd"/><path stroke="#cc6f77" stroke-width="1.0" stroke-linejoin="round" stroke-linecap="butt" d="m33.509186 1008.9286l458.913 -90.20471l361.08704 90.20471z" fill-rule="evenodd"/><path fill="#fceeec" d="m224.0525 1010.91284l263.54327 -86.299194l-259.4803 97.82678z" fill-rule="evenodd"/><path fill="#fceeec" d="m673.86615 1013.59l-188.00003 -89.19684l182.26773 100.28345z" fill-rule="evenodd"/><path fill="#fceeec" d="m453.2292 1016.59204l33.448822 -91.33856l-44.850372 86.236206z" fill-rule="evenodd"/><path fill="#ffffff" d="m-76.0 1008.9312l1036.0 0l0 15.748108l-1036.0 0z" fill-rule="evenodd"/><path fill="#000000" fill-opacity="0.0" d="m469.5189 603.32074l-130.36221 157.82678" fill-rule="evenodd"/><path stroke="#1abc9c" stroke-width="24.0" stroke-linejoin="round" stroke-linecap="butt" d="m469.5189 603.32074l-130.36221 157.82678" fill-rule="evenodd"/></g></svg>