<?xml version="1.0" encoding="utf-8"?>
<!-- Generator: Adobe Adobe Illustrator 24.2.0, SVG Export Plug-In . SVG Version: 6.00 Build 0)  -->
<svg version="1.1" id="Layer_1" xmlns="http://www.w3.org/2000/svg" xmlns:xlink="http://www.w3.org/1999/xlink" x="0px" y="0px"
	 width="612px" height="204px" viewBox="0 0 612 204" style="enable-background:new 0 0 612 204;" xml:space="preserve">
<style type="text/css">
	.st0{fill:#5FBA36;}
	.st1{fill:#BA4C36;}
	.st2{fill:#FFFFFF;}
</style>
<path d="M267.92,62.76c-0.26-3.13,1.43-4.03,3.62-4.26c10.26-1.05,19-0.22,29.35,0.03c5.84,0.14,9.06,4.61,12.78,8.08
	c3.43,3.19,6.34,6.95,9.59,10.35c3.51,3.67,5.16,3.39,7.83-1.43c2.71-4.89,5.97-11.74,9.86-15.75c1.96-2.02,3.99-2.76,6.64-2.69
	c10,0.28,19.94,2.04,29.84,0.6c5.77-0.84,9.07,1.51,8.49,6.89c-1.67,15.44,1.72,30.73,0.97,46.06c-0.74,15.1-0.59,31.45,1.38,46.36
	c0.59,4.47-0.79,6.51-5.38,6.8c-12.65,0.81-25.31,0.03-37.97,0.33c-3.17,0.08-4.25-2.02-4.17-5.05c0.29-10.67-0.88-22.68-0.33-33.36
	c0.13-2.56-0.46-5-1.29-7.98c-3.01,2.43-5.47,4.72-7.08,7.94c-3.98,7.92-9.17,8.13-14,0.58c-1.72-2.69-3.37-5.41-6.33-7.55
	c-1.11,2.19-1.6,4.28-1.55,6.43c0.23,10.31-0.77,20.64,0.73,30.93c0.86,5.88-0.86,7.83-6.8,7.73c-10.98-0.18-21.96,0.26-32.94,0
	c-4.18-0.1-4.79-2.62-4.74-6.09c0.25-18.28,1.94-37.52,0.93-55.79C266.69,89.76,267.94,75.36,267.92,62.76z"/>
<path d="M197.92,162.06c-1.67,2.18-3.7,2.15-5.71,2.15c-10.33-0.01-20.66-0.1-30.99,0c-4.63,0.04-6.77-2.05-6.6-6.89
	c0.68-19.22-0.73-39.48-1.08-58.69c-0.21-11.58-1.87-24.74-0.73-36.34c0.3-3.08,1.07-5.22,4.16-5.19c7,0.06,14.63,0.02,21.67,0.53
	c4.47,0.33,7.92,2.05,10.79,5.55c4.74,5.8,9.99,11.17,13.68,17.84c0.39,0.71,0.77,1.44,1.75,1.82c0.69-6.91,1.14-13.39,1.69-19.87
	c0.3-3.57,0.85-5.07,5-4.74c10.45,0.85,20.95,0.44,31.43-0.42c8.07-0.66,8.44-0.22,8.27,7.93c-0.54,25.82,1.66,51.47,3.85,77.14
	c0.41,4.82,0.42,9.68,0.53,14.52c0.1,4.09-1.92,6.34-5.08,6.8c-9.78,1.43-21.06,0.52-30.84,0c-3.02-0.16-5.28-1.87-6.73-4.69
	c-2.74-5.34-5.8-11.19-8.25-16.75c-1.19-2.71-2.99-5.34-6.6-7.67C198.12,144.12,198.12,153.43,197.92,162.06z"/>
<path d="M476.56,109.92c-13.96-0.04-11.39-1.06-11.58,11.28c-0.2,12.36-0.13,24.73,1,37.06c0.38,4.13-1.17,5.8-5.36,5.74
	c-11.64-0.18-23.29-0.19-34.92,0.01c-4.18,0.07-5.68-1.59-5.48-5.69c0.73-14.41-1.08-28.79-0.68-43.18c0.13-4.6-1.81-5.63-5.66-5.1
	c-2.47,0.34-4.93,0.8-7.41,0.9c-6.08,0.25-7.13-0.75-7.16-6.8c-0.05-12.55,0.13-27.78-0.11-40.33c-0.09-4.54,1.87-5.84,5.87-6.08
	c21.42-1.29,42.87,0.74,64.32,0.69c4.63-0.01,9.16-1.28,13.91-0.33c3.79,0.76,5.13,2.68,4.94,6.23
	c-0.65,12.36-0.75,24.73-0.39,37.11c0.22,7.5-0.94,8.5-8.32,8.52C478.71,109.93,477.88,109.92,476.56,109.92z"/>
<path d="M526.05,160.81c-14.06-6.12-25.6-14.48-31.24-28.98c-4.32-11.11-4.42-22.35-0.04-33.55c4.41-11.26,11.01-20.96,20.95-27.98
	c13.47-9.51,28.18-14.84,45.01-12.06c0.33,0.05,0.66,0.11,0.99,0.15c11.87,1.36,11.59,1.38,12.53,13.72
	c0.63,8.29,1.03,16.53,0.58,24.95c-3.25,0.95-5.94-0.4-8.41-1.31c-10.1-3.7-18.75,0.97-27,5.17c-6.85,3.49-5.1,15.31,2.42,19.65
	c9.41,5.43,18.73,4.74,27.82-0.91c1.66-1.03,3.1-2.85,5.34-1.83c2.47,1.13,2.15,3.53,2.1,5.67c-0.19,9.32,0.1,18.62,1.45,27.85
	c0.39,2.65-0.68,4.33-2.87,5.8c-9.04,6.1-19.33,7.09-29.65,6.48C539.5,163.25,532.63,164.13,526.05,160.81z"/>
<g>
	<path d="M36.62,165.01c-3.19-0.01-3.32-0.03-3.23-3.24c0.92-30.41,0.02-60.83,0.42-91.24c0.14-10.44,0.16-20.88-0.05-31.32
		c-0.02-0.76,0.01-1.53-0.07-2.28c-0.31-3.08-0.32-3.58,2.88-3.58c7.27,0,15.7,0.07,23.25,0.07c19.04,0,34.04,0.06,51.69-0.01
		c2.14-0.01,4.29-0.23,6.43-0.26c2.11-0.03,2.47,0.6,1.51,2.53c-0.43,0.87-0.97,1.68-1.43,2.53c-1.03,1.88-2.58,2.76-4.76,2.68
		c-10.53-0.43-20.43-1.05-30.96-1.21c-13.2-0.2-26.44-0.77-39.61,1.03c-1.3,0.18-1.67,0.72-1.58,1.87
		c0.42,5.37,0.85,10.75,1.23,16.12c0.08,1.13,0.87,1.25,1.67,1.5c5.01,1.57,10.23,2.68,14.84,5.26c4.52,2.53,9.51,4.14,13.68,7.33
		c4.27,3.27,8.11,6.92,10.92,11.55c2.36,3.89,5.4,7.17,8.79,10.16c0.83,0.73,1.7,1.38,2.79,1.76c0.95,0.33,1.91,0.75,2.56,1.72
		c-0.7,1.23-1.92,1.45-2.99,1.78c-5.73,1.76-10.33,5.56-15.35,8.59c-2.69,1.62-2.61,4.89-0.27,7.01c3.25,2.94,7.26,4.32,11.38,5.26
		c2.22,0.5,4.18,1.5,6.13,2.46c2.52,1.23,2.73,5.39,0.51,7.07c-4.41,3.33-9.44,5.23-14.83,6.27c-1.58,0.3-3.09,0.91-4.41,1.77
		c-3.77,2.42-7.95,3.43-12.32,3.95c-5.91,0.72-11.73,1.9-17.54,3.16c-1.77,0.38-3.59-0.03-5.35,0.55c-0.88,0.29-1.21,0.63-1.18,1.59
		c0.11,2.77,0.18,5.54,0.1,8.31c-0.04,1.58,0.57,2.01,2.07,2c7.4-0.05,14.8,0.76,22.21,0.01c1.36-0.14,2.59-0.43,3.73-1.12
		c4.8-2.91,9.88-5.24,14.98-7.57c4.95-2.26,9.04-5.88,13.35-9.13c1.88-1.42,3.74-2.83,5.79-4.01c4.28-2.44,5.63-7.18,3.4-11.37
		c-0.56-1.06-1.52-1.58-2.37-2.26c-4.14-3.31-8.55-6.14-13.84-7.19c-2.47-0.49-4.79-1.18-6.99-2.43c-2.61-1.49-2.75-2.24-0.36-4.16
		c2.22-1.79,4.67-3.2,7.32-4.29c1.99-0.81,4.09-1.47,5.88-2.6c4.17-2.64,8.5-3.22,13.27-2.06c2.53,0.61,4.92,1.29,6.98,2.96
		c0.79,0.64,1.71,1.13,2.82,1.85c0.21-1.72,0.51-3.2,0.55-4.68c0.19-8.44,0.33-16.88,0.45-25.32c0.04-3.01-0.38-3.25-3.26-2.55
		c-1.99,0.48-3.99,1.21-6.11,0.56c-0.89-0.27-1.91-0.48-1.71-1.66c0.18-1.12,1.13-0.87,1.99-0.84c2.92,0.11,5.48-1.12,8.5-2.44
		c-1.7-0.21-2.92-0.21-4.12,0.36c-1.12,0.54-2.31,0.46-3.47,0.28c-0.8-0.12-1.47-0.63-1.44-1.52c0.03-1.03,0.88-1.16,1.67-1.11
		c1.64,0.1,3.14-0.37,4.64-0.94c3.59-1.36,4.05-2.14,3.57-6.46c-1.13,0.16-1.66,1.15-2.44,1.72c-2.38,1.75-4.12,2.03-5.89,0.86
		c-0.61-0.4-1.14-0.85-0.96-1.67c0.18-0.84,0.9-0.85,1.58-1.06c3.06-0.96,5.69-2.69,7.84-5.03c0.89-0.96,0.42-2.37,0.57-3.52
		c-0.64-0.57-1.12-0.14-1.62,0.02c-0.85,0.28-1.69,0.73-2.56,0.81c-1.24,0.11-3.04,0.63-3.35-1.07c-0.29-1.62,1.54-1.36,2.58-1.66
		c1.61-0.46,3.13-1.1,4.55-1.99c0.83-0.52,1.38-1.15,0.91-2.34c-2.75,0.41-5.41,3.34-8.96,0.28c2.24-0.5,3.83-1.25,5.34-2.13
		c2.99-1.75,4.59-4.28,4.39-7.87c-0.08-1.48-0.65-2.01-2.07-1.74c-0.81,0.15-1.64,0.36-2.46,0.08c-0.6-0.21-1.27-0.43-1.23-1.2
		c0.04-0.84,0.76-0.9,1.39-0.89c1.08,0.02,2.04-0.32,2.96-0.83c1.38-0.76,2.06-1.8,1.4-3.43c-1.07-0.39-2.01,0.43-3.04,0.34
		c-0.64-0.06-1.31-0.08-1.55-0.79c-0.25-0.73,0.23-1.31,0.83-1.47c3.62-0.92,4.83-3.41,4.82-6.89c0-0.87,0.09-2.32,1.3-2.23
		c1.32,0.09,1.41,1.55,1.47,2.63c0.19,3.38,0.44,6.78,0.39,10.16c-0.04,2.42,1.39,3.6,3.14,4.66c0.41,0.25,0.96,0.26,1.34,0.52
		c0.65,0.46,1.09,1.14,0.84,1.96c-0.25,0.82-1.02,0.89-1.72,0.75c-1.14-0.23-2.26-0.54-3.37-0.82c-0.73,0.42-0.7,1.12-0.48,1.67
		c1.08,2.7,2.25,5.35,5.13,6.68c0.86,0.4,2.11,0.72,1.66,1.97c-0.46,1.3-1.77,0.76-2.73,0.64c-1.63-0.2-2.34-1.85-3.67-2.57
		c-0.84,2.19-0.47,3.27,1.71,4.52c1.32,0.76,2.72,1.36,4.08,2.06c0.56,0.29,1.19,0.63,0.99,1.39c-0.22,0.81-0.98,0.96-1.69,0.87
		c-1.3-0.16-2.6-0.36-3.73-1.13c-0.61-0.42-1.29-0.74-1.97-1.12c-0.63,1.35-0.03,2.26,0.86,2.81c1.94,1.19,3.93,2.34,6.26,2.61
		c1.09,0.13,2.22,0.17,2.94,1.67c-3.62,1.4-7.05,1.08-10.59-0.31c1.5,2,2.94,4.15,5.29,4.92c1.95,0.64,3.84,1.32,5.65,2.26
		c0.63,0.33,1.66,0.32,1.47,1.41c-0.15,0.86-0.92,1.24-1.69,1.32c-2.85,0.3-5.67,0.21-8.28-1.19c-0.78-0.42-1.53-0.89-2.33-1.36
		c-1.11,2.03-0.19,3.26,1.38,4.19c1.5,0.88,3.14,1.45,4.9,1.59c0.35,0.03,0.71-0.04,1.03,0.06c0.81,0.25,2.16,0.05,2.16,1.15
		c0,1.29-1.34,1.23-2.27,1.14c-2.11-0.18-4.32,0.08-6.21-1.25c-0.46-0.32-1.06-0.61-1.48-0.03c-0.46,0.62-0.01,1.19,0.41,1.66
		c2.14,2.39,4.6,4.2,7.97,4.3c0.76,0.02,1.46,0.06,1.5,0.99c0.05,1.01-0.79,1.25-1.54,1.36c-1.89,0.29-3.7-0.23-5.53-0.63
		c-0.84-0.19-1.65-0.76-2.75-0.3c0.34,4.78,0.7,9.59,1.03,14.4c0.26,3.73,0.43,7.46,0.74,11.18c0.47,5.57,1.04,11.14,1.56,16.71
		c0.06,0.62,0.13,1.25,0.1,1.87c-0.34,7.52,0.94,12.22,1.25,20.89c0.23,6.35,0.75,13.29,1.25,19.63c0.14,1.78-0.45,2.36-2.36,2.33
		C116.08,164.59,56.7,165.03,36.62,165.01z"/>
</g>
</svg>
