<?xml version="1.0" encoding="utf-8"?>
<!-- Generator: Adobe Adobe Illustrator 24.2.0, SVG Export Plug-In . SVG Version: 6.00 Build 0)  -->
<svg version="1.1" id="Layer_1" xmlns="http://www.w3.org/2000/svg" xmlns:xlink="http://www.w3.org/1999/xlink" x="0px" y="0px"
	 width="612px" height="204px" viewBox="0 0 612 204" style="enable-background:new 0 0 612 204;" xml:space="preserve">
<style type="text/css">
	.st0{fill:#5FBA36;}
	.st1{fill:#BA4C36;}
	.st2{fill:#FFFFFF;}
</style>
<g>
	<path class="st2" d="M266.5,68.22c-0.23-2.7,1.23-3.48,3.12-3.67c8.84-0.9,16.37-0.19,25.29,0.03c5.04,0.12,7.81,3.98,11.01,6.96
		c2.95,2.75,5.46,5.99,8.26,8.92c3.02,3.16,4.45,2.93,6.75-1.23c2.34-4.22,5.14-10.12,8.5-13.57c1.69-1.74,3.44-2.38,5.72-2.31
		c8.62,0.24,17.18,1.76,25.72,0.52c4.97-0.72,7.82,1.3,7.32,5.94c-1.44,13.31,1.48,26.48,0.83,39.7c-0.64,13.02-0.5,27.1,1.19,39.95
		c0.51,3.85-0.68,5.61-4.63,5.86c-10.91,0.7-21.81,0.02-32.72,0.28c-2.73,0.07-3.66-1.74-3.59-4.35c0.25-9.2-0.76-19.55-0.29-28.75
		c0.11-2.21-0.4-4.3-1.11-6.88c-2.6,2.09-4.71,4.07-6.1,6.84c-3.43,6.83-7.9,7-12.06,0.5c-1.48-2.32-2.9-4.66-5.46-6.5
		c-0.96,1.88-1.38,3.69-1.34,5.54c0.19,8.88-0.67,17.78,0.63,26.66c0.74,5.06-0.74,6.75-5.86,6.67c-9.46-0.15-18.92,0.23-28.38,0
		c-3.61-0.08-4.12-2.26-4.08-5.25c0.22-15.75,1.68-32.34,0.8-48.08C265.45,91.49,266.52,79.09,266.5,68.22z"/>
	<path class="st2" d="M201.18,153.46c-1.44,1.88-3.19,1.85-4.92,1.85c-8.9-0.01-17.8-0.08-26.7,0c-3.99,0.04-5.83-1.77-5.68-5.94
		c0.59-16.57-0.63-34.02-0.94-50.57c-0.18-9.98-1.61-21.32-0.63-31.31c0.26-2.66,0.92-4.49,3.58-4.47
		c6.03,0.05,12.61,0.01,18.67,0.46c3.85,0.28,6.83,1.76,9.3,4.78c4.08,5,8.61,9.62,11.79,15.37c0.34,0.61,0.66,1.24,1.51,1.56
		c0.59-5.96,0.99-11.54,1.45-17.12c0.26-3.07,0.73-4.37,4.31-4.08c9.01,0.73,18.05,0.38,27.08-0.36c6.95-0.57,7.27-0.19,7.13,6.83
		c-0.46,22.25,1.43,44.36,3.32,66.48c0.35,4.15,0.36,8.34,0.46,12.51c0.08,3.52-1.65,5.46-4.38,5.86c-8.43,1.23-18.15,0.45-26.58,0
		c-2.6-0.14-4.55-1.61-5.8-4.05c-2.36-4.6-5-9.64-7.11-14.43c-1.03-2.34-2.58-4.6-5.69-6.61
		C201.35,138.01,201.35,146.03,201.18,153.46z"/>
	<path class="st2" d="M448.31,109.4c-12.03-0.04-9.81-0.91-9.98,9.72c-0.17,10.65-0.11,21.31,0.86,31.93c0.33,3.56-1.01,5-4.62,4.95
		c-10.03-0.16-20.07-0.16-30.1,0c-3.6,0.06-4.9-1.37-4.72-4.91c0.63-12.42-0.93-24.81-0.58-37.22c0.11-3.96-1.56-4.85-4.88-4.39
		c-2.13,0.3-4.25,0.69-6.39,0.78c-5.24,0.22-6.15-0.64-6.17-5.86c-0.04-10.81,0.12-23.94-0.09-34.75c-0.07-3.91,1.61-5.04,5.06-5.24
		c18.46-1.12,36.94,0.64,55.43,0.59c3.99-0.01,7.9-1.11,11.99-0.29c3.26,0.65,4.42,2.31,4.26,5.37
		c-0.56,10.65-0.65,21.31-0.34,31.98c0.19,6.46-0.81,7.32-7.17,7.34C450.16,109.4,449.44,109.4,448.31,109.4z"/>
	<path class="st2" d="M493.96,153.25c-12.11-5.27-22.06-12.48-26.92-24.97c-3.73-9.58-3.81-19.26-0.03-28.91
		c3.8-9.7,9.49-18.07,18.06-24.11c11.6-8.19,24.29-12.79,38.79-10.39c0.28,0.05,0.57,0.09,0.85,0.13
		c10.23,1.17,9.99,1.19,10.8,11.82c0.54,7.15,0.89,14.25,0.5,21.5c-2.8,0.82-5.12-0.35-7.25-1.13c-8.71-3.19-16.16,0.84-23.27,4.46
		c-5.91,3.01-4.39,13.19,2.08,16.93c8.11,4.68,16.15,4.09,23.98-0.78c1.43-0.89,2.67-2.46,4.6-1.58c2.13,0.97,1.85,3.04,1.81,4.88
		c-0.17,8.03,0.08,16.04,1.25,24c0.33,2.28-0.59,3.73-2.47,5c-7.79,5.25-16.66,6.11-25.55,5.58
		C505.55,155.36,499.62,156.11,493.96,153.25z"/>
	<g>
		<path class="st2" d="M62.17,156.01c-2.75-0.01-2.86-0.03-2.78-2.79c0.79-26.21,0.02-52.42,0.37-78.63
			c0.12-9,0.14-17.99-0.05-26.99c-0.01-0.66,0.01-1.32-0.06-1.97c-0.27-2.65-0.28-3.09,2.48-3.09c6.27,0,13.53,0.06,20.04,0.06
			c16.41,0,29.33,0.06,44.54-0.01c1.85-0.01,3.69-0.2,5.54-0.22c1.82-0.03,2.13,0.52,1.3,2.18c-0.37,0.75-0.83,1.45-1.23,2.18
			c-0.89,1.62-2.22,2.38-4.1,2.31c-9.07-0.37-17.6-0.9-26.68-1.04c-11.37-0.17-22.79-0.67-34.13,0.89
			c-1.12,0.15-1.44,0.62-1.36,1.62c0.36,4.63,0.73,9.26,1.06,13.89c0.07,0.98,0.75,1.07,1.44,1.29c4.32,1.35,8.81,2.31,12.79,4.53
			c3.89,2.18,8.2,3.57,11.79,6.32c3.68,2.82,6.99,5.97,9.41,9.95c2.04,3.35,4.65,6.18,7.57,8.76c0.72,0.63,1.47,1.19,2.4,1.52
			c0.82,0.29,1.65,0.65,2.21,1.48c-0.6,1.06-1.66,1.25-2.58,1.54c-4.94,1.52-8.9,4.79-13.23,7.4c-2.32,1.4-2.25,4.22-0.24,6.04
			c2.8,2.54,6.26,3.73,9.81,4.53c1.92,0.43,3.6,1.29,5.28,2.12c2.17,1.06,2.35,4.64,0.44,6.09c-3.8,2.87-8.14,4.51-12.78,5.4
			c-1.36,0.26-2.66,0.79-3.8,1.52c-3.25,2.08-6.85,2.95-10.62,3.41c-5.09,0.62-10.11,1.64-15.12,2.73c-1.53,0.33-3.1-0.03-4.61,0.48
			c-0.76,0.25-1.05,0.54-1.01,1.37c0.09,2.39,0.15,4.78,0.09,7.16c-0.04,1.36,0.49,1.74,1.78,1.73c6.38-0.05,12.76,0.65,19.14,0.01
			c1.17-0.12,2.23-0.37,3.21-0.96c4.14-2.51,8.51-4.52,12.91-6.52c4.27-1.95,7.79-5.06,11.5-7.87c1.62-1.22,3.22-2.44,4.99-3.45
			c3.69-2.11,4.85-6.18,2.93-9.8c-0.49-0.91-1.31-1.36-2.04-1.95c-3.57-2.85-7.37-5.3-11.93-6.19c-2.13-0.42-4.13-1.01-6.02-2.09
			c-2.25-1.28-2.37-1.93-0.31-3.58c1.91-1.54,4.03-2.76,6.31-3.69c1.71-0.7,3.52-1.26,5.07-2.24c3.6-2.28,7.32-2.78,11.43-1.78
			c2.18,0.53,4.24,1.11,6.01,2.55c0.68,0.55,1.47,0.97,2.43,1.59c0.18-1.48,0.44-2.75,0.47-4.03c0.16-7.27,0.28-14.55,0.39-21.82
			c0.04-2.6-0.33-2.8-2.81-2.2c-1.72,0.42-3.44,1.05-5.27,0.48c-0.76-0.24-1.65-0.41-1.48-1.43c0.16-0.97,0.97-0.75,1.72-0.72
			c2.51,0.09,4.72-0.97,7.32-2.1c-1.46-0.18-2.52-0.18-3.55,0.31c-0.96,0.46-1.99,0.4-2.99,0.24c-0.69-0.11-1.27-0.54-1.24-1.31
			c0.02-0.89,0.76-1,1.44-0.96c1.41,0.09,2.7-0.32,4-0.81c3.09-1.17,3.49-1.84,3.07-5.56c-0.97,0.13-1.43,0.99-2.1,1.48
			c-2.05,1.51-3.55,1.75-5.08,0.74c-0.52-0.34-0.98-0.73-0.83-1.44c0.16-0.73,0.78-0.73,1.36-0.92c2.64-0.83,4.9-2.32,6.76-4.33
			c0.77-0.83,0.37-2.04,0.49-3.03c-0.55-0.49-0.97-0.12-1.4,0.02c-0.74,0.24-1.46,0.63-2.21,0.7c-1.07,0.1-2.62,0.55-2.88-0.92
			c-0.25-1.4,1.33-1.17,2.22-1.43c1.39-0.4,2.7-0.95,3.92-1.72c0.72-0.45,1.19-0.99,0.78-2.01c-2.37,0.35-4.66,2.88-7.72,0.24
			c1.93-0.43,3.3-1.08,4.6-1.84c2.58-1.51,3.95-3.69,3.78-6.78c-0.07-1.27-0.56-1.73-1.78-1.5c-0.7,0.13-1.41,0.31-2.12,0.07
			c-0.51-0.18-1.09-0.37-1.06-1.03c0.03-0.73,0.66-0.77,1.2-0.76c0.93,0.02,1.76-0.28,2.55-0.71c1.19-0.65,1.78-1.55,1.21-2.95
			c-0.93-0.34-1.73,0.37-2.62,0.29c-0.55-0.05-1.13-0.07-1.34-0.68c-0.21-0.63,0.2-1.13,0.72-1.26c3.12-0.79,4.16-2.94,4.15-5.94
			c0-0.75,0.07-2,1.12-1.92c1.14,0.08,1.22,1.33,1.27,2.27c0.16,2.92,0.38,5.84,0.33,8.76c-0.03,2.09,1.2,3.1,2.71,4.02
			c0.35,0.21,0.83,0.22,1.16,0.45c0.56,0.39,0.94,0.98,0.72,1.69c-0.22,0.71-0.88,0.77-1.48,0.64c-0.98-0.2-1.95-0.47-2.9-0.7
			c-0.63,0.37-0.6,0.97-0.41,1.44c0.93,2.32,1.94,4.61,4.42,5.76c0.74,0.34,1.82,0.62,1.43,1.69c-0.4,1.12-1.53,0.65-2.36,0.55
			c-1.41-0.17-2.02-1.6-3.17-2.22c-0.72,1.89-0.4,2.82,1.47,3.89c1.14,0.65,2.35,1.17,3.51,1.77c0.48,0.25,1.03,0.54,0.85,1.2
			c-0.19,0.7-0.85,0.82-1.45,0.75c-1.12-0.14-2.24-0.31-3.22-0.98c-0.53-0.36-1.11-0.64-1.7-0.97c-0.54,1.17-0.03,1.94,0.74,2.42
			c1.67,1.03,3.38,2.01,5.39,2.25c0.94,0.11,1.92,0.15,2.54,1.44c-3.12,1.21-6.08,0.93-9.12-0.26c1.29,1.72,2.53,3.58,4.56,4.24
			c1.68,0.55,3.31,1.14,4.87,1.95c0.54,0.28,1.43,0.28,1.27,1.21c-0.13,0.75-0.79,1.07-1.46,1.14c-2.46,0.26-4.88,0.18-7.14-1.02
			c-0.67-0.36-1.32-0.76-2.01-1.17c-0.96,1.75-0.16,2.81,1.19,3.61c1.3,0.76,2.7,1.25,4.22,1.37c0.3,0.02,0.62-0.03,0.89,0.05
			c0.69,0.22,1.86,0.05,1.86,0.99c0,1.11-1.15,1.06-1.96,0.99c-1.82-0.16-3.72,0.07-5.35-1.07c-0.4-0.28-0.92-0.52-1.28-0.03
			c-0.39,0.54-0.01,1.02,0.35,1.43c1.84,2.06,3.97,3.62,6.87,3.7c0.66,0.02,1.26,0.05,1.3,0.85c0.04,0.87-0.68,1.07-1.33,1.17
			c-1.63,0.25-3.19-0.2-4.76-0.55c-0.73-0.16-1.42-0.66-2.37-0.26c0.3,4.12,0.6,8.27,0.89,12.41c0.22,3.21,0.37,6.43,0.64,9.63
			c0.41,4.8,0.89,9.6,1.34,14.4c0.05,0.53,0.11,1.07,0.09,1.61c-0.29,6.48,0.81,10.53,1.08,18c0.2,5.47,0.65,11.46,1.08,16.92
			c0.12,1.53-0.39,2.03-2.04,2.01C130.65,155.64,79.48,156.03,62.17,156.01z"/>
	</g>
</g>
</svg>
