<svg version="1.1" viewBox="0.0 0.0 5093.0 194.0" fill="none" stroke="none" stroke-linecap="square" stroke-miterlimit="10" xmlns:xlink="http://www.w3.org/1999/xlink" xmlns="http://www.w3.org/2000/svg"><clipPath id="p.0"><path d="m0 0l5093.0 0l0 194.0l-5093.0 0l0 -194.0z" clip-rule="nonzero"/></clipPath><g clip-path="url(#p.0)"><path fill="#000000" fill-opacity="0.0" d="m0 0l5093.0 0l0 194.0l-5093.0 0z" fill-rule="evenodd"/><path fill="#000000" fill-opacity="0.0" d="m-368.44516 2845.5984c31.733612 -8.133301 209.6015 -31.600586 190.40158 -48.800537c-19.199905 -17.199951 -283.60104 -28.799072 -305.60104 -54.398926c-22.0 -25.59961 167.86746 -75.46582 173.60104 -99.19946c5.733612 -23.733643 -115.99957 -36.00171 -139.19946 -43.20215" fill-rule="evenodd"/><path stroke="#cc6f77" stroke-width="12.0" stroke-linejoin="round" stroke-linecap="butt" d="m-368.44516 2845.5984c31.733612 -8.133301 209.6015 -31.600586 190.40158 -48.800537c-19.199905 -17.199951 -283.60104 -28.799072 -305.60104 -54.398926c-22.0 -25.59961 167.86746 -75.46582 173.60104 -99.19946c5.733612 -23.733643 -115.99957 -36.00171 -139.19946 -43.20215" fill-rule="evenodd"/><path fill="#fdfdfd" fill-opacity="0.9922" d="m-1367.0105 -984.0l828.0 0l0 828.0l-828.0 0z" fill-rule="evenodd"/><path fill="#fdfdfd" fill-opacity="0.9922" d="m-1312.3661 -652.60077l190.40015 -236.02277l255.4914 236.02277z" fill-rule="evenodd"/><path stroke="#111111" stroke-width="24.0" stroke-linejoin="round" stroke-linecap="butt" d="m-1312.3661 -652.60077l190.40015 -236.02277l255.4914 236.02277z" fill-rule="evenodd"/><path fill="#fdfdfd" fill-opacity="0.9922" d="m-1189.3549 -652.59973l258.07294 -315.14752l328.69653 315.14752z" fill-rule="evenodd"/><path stroke="#111111" stroke-width="24.0" stroke-linejoin="round" stroke-linecap="butt" d="m-1189.3549 -652.59973l258.07294 -315.14752l328.69653 315.14752z" fill-rule="evenodd"/><path fill="#000000" fill-opacity="0.0" d="m-921.4451 -636.79004c33.77997 -9.735779 219.83331 -39.612427 202.67975 -58.414673c-17.153503 -18.802307 -283.601 -28.799255 -305.60107 -54.398987c-22.0 -25.599731 167.8675 -75.46588 173.60107 -99.19946c5.7336426 -23.733582 -115.99951 -36.00171 -139.19946 -43.202087" fill-rule="evenodd"/><path stroke="#111111" stroke-width="24.0" stroke-linejoin="round" stroke-linecap="butt" d="m-921.4451 -636.79004c33.77997 -9.735779 219.83331 -39.612427 202.67975 -58.414673c-17.153503 -18.802307 -283.601 -28.799255 -305.60107 -54.398987c-22.0 -25.599731 167.8675 -75.46588 173.60107 -99.19946c5.7336426 -23.733582 -115.99951 -36.00171 -139.19946 -43.202087" fill-rule="evenodd"/><path fill="#111111" d="m-1365.9658 -562.3924l458.91296 -90.20471l361.08698 90.20471z" fill-rule="evenodd"/><path fill="#fdfdfd" fill-opacity="0.9922" d="m-1188.7874 -554.0525l277.37006 -92.66144l-274.252 101.543335z" fill-rule="evenodd"/><path fill="#fdfdfd" fill-opacity="0.9922" d="m-725.7952 -554.83496l-186.91339 -91.30707l183.35437 98.17322z" fill-rule="evenodd"/><path fill="#fdfdfd" fill-opacity="0.9922" d="m-946.4199 -554.808l33.543274 -91.30707l-44.75592 86.2677z" fill-rule="evenodd"/><path fill="#fdfdfd" fill-opacity="0.9922" d="m-1367.0105 -562.39105l952.5669 0l0 28.409424l-952.5669 0z" fill-rule="evenodd"/><path fill="#000000" fill-opacity="0.0" d="m-929.9562 -968.00024l-130.36218 157.82678" fill-rule="evenodd"/><path stroke="#111111" stroke-width="24.0" stroke-linejoin="round" stroke-linecap="butt" d="m-929.9562 -968.00024l-130.36218 157.82678" fill-rule="evenodd"/><path fill="#fdfdfd" fill-opacity="0.9922" d="m-1367.0105 -543.3097l453.7953 -103.165344l-451.9685 110.944824z" fill-rule="evenodd"/><path fill="#fdfdfd" fill-opacity="0.9922" d="m-519.98846 -515.0521l-391.748 -130.83466l394.2047 123.212585z" fill-rule="evenodd"/><path fill="#fdfdfd" fill-opacity="0.9922" d="m-843.8425 -558.2652l-68.23627 -87.653564l57.93701 94.70868z" fill-rule="evenodd"/><path fill="#fdfdfd" fill-opacity="0.9922" d="m-1064.1548 -533.9686l149.60632 -111.71655l-156.72449 101.44879z" fill-rule="evenodd"/><path fill="#000000" fill-opacity="0.0" d="m-1367.0105 -522.0l2072.0 0l0 332.0l-2072.0 0z" fill-rule="evenodd"/><path fill="#111111" d="m-1336.7449 -260.0l0 -186.65625l35.734375 0l103.1875 139.45312l-7.453125 0q-1.078125 -8.265625 -1.875 -16.125q-0.796875 -7.875 -1.46875 -16.0q-0.65625 -8.140625 -1.0625 -16.796875q-0.40625 -8.671875 -0.671875 -18.40625q-0.265625 -9.734375 -0.265625 -21.203125l0 -50.921875l39.203125 0l0 186.65625l-36.265625 0l-105.328125 -140.79688l10.125 0.265625q1.34375 13.875 2.265625 23.609375q0.9375 9.71875 1.609375 16.921875q0.671875 7.203125 0.9375 12.546875q0.265625 5.328125 0.390625 10.125q0.140625 4.796875 0.140625 10.125l0 67.203125l-39.203125 0zm213.85828 0l0 -186.65625l36.53125 0l67.99994 110.65625l-23.999939 -0.265625l68.796814 -110.390625l34.9375 0l0 186.65625l-39.203125 0l0 -64.0q0 -24.0 1.203125 -43.1875q1.203125 -19.203125 4.125 -38.140625l4.796875 12.53125l-54.65625 84.796875l-17.593689 0l-53.609375 -84.265625l4.53125 -13.0625q2.9375 17.859375 4.140625 36.671875q1.203125 18.796875 1.203125 44.65625l0 64.0l-39.203125 0zm271.72827 0l0 -150.65625l-54.40625 0l0 -36.0l150.39062 0l0 36.0l-55.984375 0l0 150.65625l-40.0 0zm202.91528 2.671875q-20.53125 0 -37.734375 -7.0625q-17.1875 -7.078125 -29.859375 -20.0q-12.671875 -12.9375 -19.609375 -30.671875q-6.921875 -17.734375 -6.921875 -38.796875q0 -20.53125 7.203125 -38.0q7.203125 -17.46875 20.265625 -30.390625q13.0625 -12.9375 30.65625 -20.140625q17.609375 -7.203125 38.140625 -7.203125q13.328125 0 26.25 3.609375q12.9375 3.59375 23.734375 10.53125q10.8125 6.921875 18.546875 16.53125l-25.0625 27.734375q-6.140625 -6.40625 -13.078125 -11.0625q-6.921875 -4.671875 -14.53125 -7.203125q-7.59375 -2.546875 -16.125 -2.546875q-11.46875 0 -21.46875 4.265625q-10.0 4.265625 -17.46875 11.875q-7.46875 7.59375 -11.875 18.40625q-4.390625 10.796875 -4.390625 23.859375q0 13.328125 4.265625 24.125q4.265625 10.796875 12.0 18.40625q7.734375 7.59375 18.53125 11.734375q10.796875 4.125 23.875 4.125q8.53125 0 16.53125 -2.390625q8.0 -2.40625 14.796875 -6.671875q6.796875 -4.265625 12.125 -9.859375l19.734375 31.1875q-6.65625 7.203125 -17.46875 13.078125q-10.796875 5.859375 -24.125 9.203125q-13.328125 3.328125 -26.9375 3.328125z" fill-rule="nonzero"/><path fill="#000000" fill-opacity="0.0" d="m-664.49866 815.5236l-206.26514 -0.9816284l257.72443 -316.25983l328.45407 315.44617l-242.2756 0" fill-rule="evenodd"/><path stroke="#fdfdfd" stroke-width="24.0" stroke-linejoin="round" stroke-linecap="butt" d="m-664.49866 815.5236l-206.26514 -0.9816284l257.72443 -316.25983l328.45407 315.44617l-242.2756 0" fill-rule="evenodd"/><path fill="#cc6f77" d="m-1048.5814 903.5648l458.91302 -90.20471l361.087 90.20471z" fill-rule="evenodd"/><path fill="#000000" fill-opacity="0.0" d="m-732.55383 643.8097l-72.35693 -65.03937l-189.43042 234.95801l122.76373 -0.81103516z" fill-rule="evenodd"/><path stroke="#fdfdfd" stroke-width="24.0" stroke-linejoin="round" stroke-linecap="butt" d="m-732.55383 643.8097l-72.35693 -65.03937l-189.43042 234.95801l122.76373 -0.81103516z" fill-rule="evenodd"/><path fill="#fdfdfd" fill-opacity="0.9922" d="m-664.6877 827.5236l-34.0 -24.123352l173.06299 -1.6246948l0.71917725 24.0l-10.81366 0l-53.561646 -13.125977z" fill-rule="evenodd"/><path fill="#000000" fill-opacity="0.0" d="m-589.2483 825.5236c31.311462 -9.128601 207.49081 -36.576538 187.86874 -54.771667c-19.62204 -18.195068 -283.60104 -28.799194 -305.60104 -54.398926c-22.0 -25.599731 167.8675 -75.46588 173.60107 -99.19946c5.7335815 -23.733643 -115.99957 -36.00177 -139.19946 -43.20215" fill-rule="evenodd"/><path stroke="#cc6f77" stroke-width="24.0" stroke-linejoin="round" stroke-linecap="butt" d="m-589.2483 825.5236c31.311462 -9.128601 207.49081 -36.576538 187.86874 -54.771667c-19.62204 -18.195068 -283.60104 -28.799194 -305.60104 -54.398926c-22.0 -25.599731 167.8675 -75.46588 173.60107 -99.19946c5.7335815 -23.733643 -115.99957 -36.00177 -139.19946 -43.20215" fill-rule="evenodd"/><path fill="#000000" fill-opacity="0.0" d="m-1048.5814 903.5648l820.0 0" fill-rule="evenodd"/><path stroke="#fff9f8" stroke-width="4.0" stroke-linejoin="round" stroke-linecap="butt" d="m-1048.5814 903.5648l820.0 0" fill-rule="evenodd"/><path fill="#000000" fill-opacity="0.0" d="m-612.5717 497.95694l-130.36218 157.82675" fill-rule="evenodd"/><path stroke="#fdfdfd" stroke-width="24.0" stroke-linejoin="round" stroke-linecap="butt" d="m-612.5717 497.95694l-130.36218 157.82675" fill-rule="evenodd"/><path fill="#fff9f8" d="m-589.3438 812.6496l-54.46985 90.868774l13.937012 0z" fill-rule="evenodd"/><path fill="#fff9f8" d="m-589.4068 812.5866l146.99734 90.99475l15.939636 0z" fill-rule="evenodd"/><path fill="#fff9f8" d="m-589.2808 812.6496l45.43567 90.868774l15.249329 0z" fill-rule="evenodd"/><path fill="#fff9f8" d="m-589.2808 812.6496l247.43567 90.99475l13.375336 0z" fill-rule="evenodd"/><path fill="#fff9f8" d="m-228.59451 903.58185l-359.3281 -91.049866l348.70343 91.049866z" fill-rule="evenodd"/><path fill="#fff9f8" d="m-589.4068 812.7126l-141.40686 90.868774l-15.687683 0z" fill-rule="evenodd"/><path fill="#fff9f8" d="m-589.3438 812.6496l-241.59583 90.93176l-15.81366 0z" fill-rule="evenodd"/><path fill="#fff9f8" d="m-929.6273 903.58136l-18.719116 0l359.0656 -90.93176z" fill-rule="evenodd"/><path fill="#fff9f8" d="m-1048.4397 903.58185l459.9843 -91.049866l-444.04462 91.049866z" fill-rule="evenodd"/><path fill="#000000" fill-opacity="0.0" d="m-30.812992 -71.43619l5176.0 0l0 332.0l-5176.0 0z" fill-rule="evenodd"/><path fill="#1abc9c" d="m-0.54736716 190.56381l0 -186.65625l35.734375 0l103.1875 139.45312l-7.453125 0q-1.078125 -8.265625 -1.875 -16.125q-0.796875 -7.875 -1.4687576 -16.0q-0.65625 -8.140625 -1.0625 -16.796875q-0.40625 -8.671875 -0.671875 -18.40625q-0.265625 -9.734375 -0.265625 -21.203125l0 -50.921875l39.203133 0l0 186.65625l-36.265625 0l-105.328125 -140.79688l10.125 0.265625q1.34375 13.875 2.265625 23.609375q0.9375 9.71875 1.609375 16.921875q0.671875 7.203125 0.9375 12.546875q0.265625 5.328125 0.390625 10.125q0.140625 4.796875 0.140625 10.125l0 67.203125l-39.203125 0zm296.79575 2.671875q-20.8125 0 -38.140625 -7.203125q-17.328125 -7.203125 -30.265625 -20.125q-12.9375 -12.9375 -19.875 -30.671875q-6.921875 -17.734375 -6.921875 -38.53125q0 -21.0625 6.921875 -38.65625q6.9375 -17.609375 19.875 -30.546875q12.9375 -12.9375 30.265625 -20.125q17.328125 -7.203125 37.859375 -7.203125q20.8125 0 38.0 7.203125q17.203125 7.1875 30.140625 20.265625q12.9375 13.0625 19.859375 30.671875q6.9375 17.59375 6.9375 38.390625q0 20.796875 -6.9375 38.40625q-6.921875 17.59375 -19.859375 30.65625q-12.9375 13.0625 -30.140625 20.265625q-17.1875 7.203125 -37.71875 7.203125zm-0.28125 -37.875q12.0 0 21.859375 -4.390625q9.875 -4.40625 17.078125 -12.265625q7.203125 -7.875 11.328125 -18.53125q4.140625 -10.671875 4.140625 -23.46875q0 -12.796875 -4.140625 -23.46875q-4.125 -10.671875 -11.328125 -18.53125q-7.203125 -7.875 -17.078125 -12.265625q-9.859375 -4.40625 -21.859375 -4.40625q-11.71875 0 -21.59375 4.40625q-9.859375 4.390625 -17.328125 12.265625q-7.46875 7.859375 -11.34375 18.53125q-3.859375 10.671875 -3.859375 23.46875q0 12.796875 3.859375 23.46875q3.875 10.65625 11.34375 18.53125q7.46875 7.859375 17.328125 12.265625q9.875 4.390625 21.59375 4.390625zm131.202 35.203125l0 -186.65625l82.65625 0q17.34375 0 31.46875 7.875q14.140625 7.859375 22.265625 21.1875q8.140625 13.328125 8.140625 30.40625q0 16.796875 -8.140625 30.53125q-8.125 13.71875 -22.265625 21.71875q-14.125 8.0 -31.46875 8.0l-43.984375 0l0 66.9375l-38.671875 0zm105.859375 0l-47.46875 -84.265625l41.078125 -6.671875l52.796875 91.203125l-46.40625 -0.265625zm-67.1875 -99.46875l42.125 0q7.203125 0 12.65625 -3.328125q5.46875 -3.328125 8.40625 -9.328125q2.9375 -6.0 2.9375 -13.46875q0 -8.0 -3.46875 -13.859375q-3.46875 -5.875 -10.140625 -9.203125q-6.65625 -3.34375 -15.453125 -3.34375l-37.0625 0l0 52.53125zm181.59161 99.46875l0 -150.65625l-54.40625 0l0 -36.0l150.39062 0l0 36.0l-55.984375 0l0 150.65625l-40.0 0zm246.64966 0l0 -186.65625l40.0 0l0 186.65625l-40.0 0zm-117.59375 0l0 -186.65625l40.0 0l0 186.65625l-40.0 0zm16.0 -74.9375l0.265625 -36.265625l121.859375 0l0 36.265625l-122.125 0zm190.12524 74.9375l0 -186.65625l126.125 0l0 35.203125l-86.921875 0l0 116.25l88.796875 0l0 35.203125l-128.0 0zm18.671875 -78.125l0 -34.140625l94.65625 0l0 34.140625l-94.65625 0zm150.65479 78.125l0 -186.65625l82.65625 0q17.34375 0 31.46875 7.875q14.140625 7.859375 22.265625 21.1875q8.140625 13.328125 8.140625 30.40625q0 16.796875 -8.140625 30.53125q-8.125 13.71875 -22.265625 21.71875q-14.125 8.0 -31.46875 8.0l-43.984375 0l0 66.9375l-38.671875 0zm105.859375 0l-47.46875 -84.265625l41.078125 -6.671875l52.796875 91.203125l-46.40625 -0.265625zm-67.1875 -99.46875l42.125 0q7.203125 0 12.65625 -3.328125q5.46875 -3.328125 8.40625 -9.328125q2.9375 -6.0 2.9375 -13.46875q0 -8.0 -3.46875 -13.859375q-3.46875 -5.875 -10.140625 -9.203125q-6.65625 -3.34375 -15.453125 -3.34375l-37.0625 0l0 52.53125zm147.98743 99.46875l0 -186.65625l35.734375 0l103.1875 139.45312l-7.453125 0q-1.078125 -8.265625 -1.875 -16.125q-0.796875 -7.875 -1.46875 -16.0q-0.65625 -8.140625 -1.0625 -16.796875q-0.40625 -8.671875 -0.671875 -18.40625q-0.265625 -9.734375 -0.265625 -21.203125l0 -50.921875l39.203125 0l0 186.65625l-36.265625 0l-105.328125 -140.79688l10.125 0.265625q1.34375 13.875 2.265625 23.609375q0.9375 9.71875 1.609375 16.921875q0.671875 7.203125 0.9375 12.546875q0.265625 5.328125 0.390625 10.125q0.140625 4.796875 0.140625 10.125l0 67.203125l-39.203125 0zm295.72168 0l0 -186.65625l36.53125 0l68.0 110.65625l-24.0 -0.265625l68.796875 -110.390625l34.9375 0l0 186.65625l-39.203125 0l0 -64.0q0 -24.0 1.203125 -43.1875q1.203125 -19.203125 4.125 -38.140625l4.796875 12.53125l-54.65625 84.796875l-17.59375 0l-53.609375 -84.265625l4.53125 -13.0625q2.9375 17.859375 4.140625 36.671875q1.203125 18.796875 1.203125 44.65625l0 64.0l-39.203125 0zm227.99402 0l0 -34.40625l31.203125 0l0 -117.859375l-31.203125 0l0 -34.390625l102.390625 0l0 34.390625l-31.203125 0l0 117.859375l31.203125 0l0 34.40625l-102.390625 0zm146.12463 0l0 -186.65625l35.734253 0l103.1875 139.45312l-7.453125 0q-1.078125 -8.265625 -1.875 -16.125q-0.796875 -7.875 -1.46875 -16.0q-0.65625 -8.140625 -1.0625 -16.796875q-0.40625 -8.671875 -0.671875 -18.40625q-0.265625 -9.734375 -0.265625 -21.203125l0 -50.921875l39.203125 0l0 186.65625l-36.265625 0l-105.328125 -140.79688l10.125 0.265625q1.34375 13.875 2.265625 23.609375q0.9375 9.71875 1.609375 16.921875q0.671875 7.203125 0.9375 12.546875q0.265625 5.328125 0.390625 10.125q0.140625 4.796875 0.140625 10.125l0 67.203125l-39.203003 0zm213.85828 0l0 -186.65625l35.734375 0l103.1875 139.45312l-7.453125 0q-1.078125 -8.265625 -1.875 -16.125q-0.796875 -7.875 -1.46875 -16.0q-0.65625 -8.140625 -1.0625 -16.796875q-0.40625 -8.671875 -0.671875 -18.40625q-0.265625 -9.734375 -0.265625 -21.203125l0 -50.921875l39.203125 0l0 186.65625l-36.265625 0l-105.328125 -140.79688l10.125 0.265625q1.34375 13.875 2.265625 23.609375q0.9375 9.71875 1.609375 16.921875q0.671875 7.203125 0.9375 12.546875q0.265625 5.328125 0.390625 10.125q0.140625 4.796875 0.140625 10.125l0 67.203125l-39.203125 0zm213.85815 0l0 -186.65625l126.125 0l0 35.203125l-86.921875 0l0 116.25l88.796875 0l0 35.203125l-128.0 0zm18.671875 -78.125l0 -34.140625l94.65625 0l0 34.140625l-94.65625 0zm211.18604 80.796875q-17.328125 0 -31.59375 -4.265625q-14.265625 -4.265625 -25.34375 -12.53125q-11.0625 -8.28125 -19.859375 -20.0l25.0625 -28.546875q13.0625 18.140625 26.0 24.671875q12.9375 6.53125 28.140625 6.53125q8.265625 0 14.796875 -2.390625q6.53125 -2.40625 10.265625 -6.53125q3.734375 -4.140625 3.734375 -10.0q0 -4.28125 -1.875 -7.875q-1.859375 -3.59375 -5.328125 -6.390625q-3.46875 -2.8125 -8.265625 -5.078125q-4.796875 -2.265625 -10.671875 -4.0q-5.859375 -1.734375 -12.796875 -2.796875q-14.9375 -3.46875 -26.140625 -8.390625q-11.1875 -4.9375 -18.65625 -12.265625q-7.46875 -7.34375 -11.078125 -16.671875q-3.59375 -9.328125 -3.59375 -21.0625q0 -12.0 5.328125 -22.265625q5.34375 -10.265625 14.8125 -17.734375q9.46875 -7.46875 21.859375 -11.46875q12.40625 -4.0 26.265625 -4.0q17.0625 0 29.859375 3.734375q12.8125 3.734375 22.265625 11.0625q9.46875 7.328125 15.875 17.734375l-25.328125 24.53125q-5.609375 -7.46875 -12.140625 -12.53125q-6.53125 -5.0625 -14.140625 -7.59375q-7.59375 -2.546875 -15.59375 -2.546875q-8.796875 0 -15.203125 2.28125q-6.390625 2.265625 -10.0 6.671875q-3.59375 4.390625 -3.59375 10.25q0 4.796875 2.40625 8.53125q2.40625 3.734375 6.9375 6.546875q4.53125 2.796875 10.921875 4.9375q6.40625 2.125 14.140625 3.71875q14.65625 2.9375 26.390625 7.734375q11.734375 4.796875 20.125 11.59375q8.40625 6.796875 12.9375 16.0q4.546875 9.203125 4.546875 20.671875q0 18.9375 -9.078125 32.265625q-9.0625 13.328125 -25.0625 20.40625q-16.0 7.0625 -37.328125 7.0625zm190.66626 0q-20.8125 0 -38.140625 -7.203125q-17.328125 -7.203125 -30.265625 -20.125q-12.9375 -12.9375 -19.875 -30.671875q-6.921875 -17.734375 -6.921875 -38.53125q0 -21.0625 6.921875 -38.65625q6.9375 -17.609375 19.875 -30.546875q12.9375 -12.9375 30.265625 -20.125q17.328125 -7.203125 37.859375 -7.203125q20.8125 0 38.0 7.203125q17.203125 7.1875 30.140625 20.265625q12.9375 13.0625 19.859375 30.671875q6.9375 17.59375 6.9375 38.390625q0 20.796875 -6.9375 38.40625q-6.921875 17.59375 -19.859375 30.65625q-12.9375 13.0625 -30.140625 20.265625q-17.1875 7.203125 -37.71875 7.203125zm-0.28125 -37.875q12.0 0 21.859375 -4.390625q9.875 -4.40625 17.078125 -12.265625q7.203125 -7.875 11.328125 -18.53125q4.140625 -10.671875 4.140625 -23.46875q0 -12.796875 -4.140625 -23.46875q-4.125 -10.671875 -11.328125 -18.53125q-7.203125 -7.875 -17.078125 -12.265625q-9.859375 -4.40625 -21.859375 -4.40625q-11.71875 0 -21.59375 4.40625q-9.859375 4.390625 -17.328125 12.265625q-7.46875 7.859375 -11.34375 18.53125q-3.859375 10.671875 -3.859375 23.46875q0 12.796875 3.859375 23.46875q3.875 10.65625 11.34375 18.53125q7.46875 7.859375 17.328125 12.265625q9.875 4.390625 21.59375 4.390625zm162.1394 35.203125l0 -150.65625l-54.40625 0l0 -36.0l150.39062 0l0 36.0l-55.984375 0l0 150.65625l-40.0 0zm93.31641 0l73.34375 -186.65625l35.71875 0l72.796875 186.65625l-41.0625 0l-37.59375 -100.53125q-1.59375 -4.265625 -3.875 -10.921875q-2.265625 -6.671875 -4.671875 -14.140625q-2.390625 -7.46875 -4.53125 -14.265625q-2.125 -6.796875 -3.1875 -11.328125l7.203125 0q-1.609375 5.859375 -3.609375 12.390625q-2.0 6.53125 -4.140625 13.34375q-2.125 6.796875 -4.53125 13.203125q-2.390625 6.390625 -4.515625 12.515625l-37.609375 99.734375l-39.734375 0zm34.140625 -39.203125l13.0625 -32.0l85.59375 0l13.34375 32.0l-112.0 0zm294.65942 39.203125l0 -150.65625l-54.40625 0l0 -36.0l150.39062 0l0 36.0l-55.984375 0l0 150.65625l-40.0 0zm129.05591 0l0 -186.65625l82.65625 0q17.34375 0 31.46875 7.875q14.140625 7.859375 22.265625 21.1875q8.140625 13.328125 8.140625 30.40625q0 16.796875 -8.140625 30.53125q-8.125 13.71875 -22.265625 21.71875q-14.125 8.0 -31.46875 8.0l-43.984375 0l0 66.9375l-38.671875 0zm105.859375 0l-47.46875 -84.265625l41.078125 -6.671875l52.796875 91.203125l-46.40625 -0.265625zm-67.1875 -99.46875l42.125 0q7.203125 0 12.65625 -3.328125q5.46875 -3.328125 8.40625 -9.328125q2.9375 -6.0 2.9375 -13.46875q0 -8.0 -3.46875 -13.859375q-3.46875 -5.875 -10.140625 -9.203125q-6.65625 -3.34375 -15.453125 -3.34375l-37.0625 0l0 52.53125zm125.5813 99.46875l73.34375 -186.65625l35.71875 0l72.796875 186.65625l-41.0625 0l-37.59375 -100.53125q-1.59375 -4.265625 -3.875 -10.921875q-2.265625 -6.671875 -4.671875 -14.140625q-2.390625 -7.46875 -4.53125 -14.265625q-2.125 -6.796875 -3.1875 -11.328125l7.203125 0q-1.609375 5.859375 -3.609375 12.390625q-2.0 6.53125 -4.140625 13.34375q-2.125 6.796875 -4.53125 13.203125q-2.390625 6.390625 -4.515625 12.515625l-37.609375 99.734375l-39.734375 0zm34.140625 -39.203125l13.0625 -32.0l85.59375 0l13.34375 32.0l-112.0 0zm250.38428 41.875q-20.53125 0 -37.734375 -7.0625q-17.1875 -7.078125 -29.859375 -20.0q-12.671875 -12.9375 -19.609375 -30.671875q-6.921875 -17.734375 -6.921875 -38.796875q0 -20.53125 7.203125 -38.0q7.203125 -17.46875 20.265625 -30.390625q13.0625 -12.9375 30.65625 -20.140625q17.609375 -7.203125 38.140625 -7.203125q13.328125 0 26.25 3.609375q12.9375 3.59375 23.734375 10.53125q10.8125 6.921875 18.546875 16.53125l-25.0625 27.734375q-6.140625 -6.40625 -13.078125 -11.0625q-6.921875 -4.671875 -14.53125 -7.203125q-7.59375 -2.546875 -16.125 -2.546875q-11.46875 0 -21.46875 4.265625q-10.0 4.265625 -17.46875 11.875q-7.46875 7.59375 -11.875 18.40625q-4.390625 10.796875 -4.390625 23.859375q0 13.328125 4.265625 24.125q4.265625 10.796875 12.0 18.40625q7.734375 7.59375 18.53125 11.734375q10.796875 4.125 23.875 4.125q8.53125 0 16.53125 -2.390625q8.0 -2.40625 14.796875 -6.671875q6.796875 -4.265625 12.125 -9.859375l19.734375 31.1875q-6.65625 7.203125 -17.46875 13.078125q-10.796875 5.859375 -24.125 9.203125q-13.328125 3.328125 -26.9375 3.328125zm131.9917 -57.875l-8.53125 -36.265625l94.40625 -95.1875l48.53125 0l-134.40625 131.45312zm-30.125 55.203125l0 -186.65625l40.0 0l0 186.65625l-40.0 0zm121.0625 0l-69.859375 -92.53125l27.453125 -24.0l89.875 116.53125l-47.46875 0zm239.18555 2.671875q-20.53125 0 -37.734375 -7.0625q-17.1875 -7.078125 -29.859375 -20.0q-12.671875 -12.9375 -19.609375 -30.671875q-6.921875 -17.734375 -6.921875 -38.796875q0 -20.53125 7.203125 -38.0q7.203125 -17.46875 20.265625 -30.390625q13.0625 -12.9375 30.65625 -20.140625q17.609375 -7.203125 38.140625 -7.203125q13.328125 0 26.25 3.609375q12.9375 3.59375 23.734375 10.53125q10.8125 6.921875 18.546875 16.53125l-25.0625 27.734375q-6.140625 -6.40625 -13.078125 -11.0625q-6.921875 -4.671875 -14.53125 -7.203125q-7.59375 -2.546875 -16.125 -2.546875q-11.46875 0 -21.46875 4.265625q-10.0 4.265625 -17.46875 11.875q-7.46875 7.59375 -11.875 18.40625q-4.390625 10.796875 -4.390625 23.859375q0 13.328125 4.265625 24.125q4.265625 10.796875 12.0 18.40625q7.734375 7.59375 18.53125 11.734375q10.796875 4.125 23.875 4.125q8.53125 0 16.53125 -2.390625q8.0 -2.40625 14.796875 -6.671875q6.796875 -4.265625 12.125 -9.859375l19.734375 31.1875q-6.65625 7.203125 -17.46875 13.078125q-10.796875 5.859375 -24.125 9.203125q-13.328125 3.328125 -26.9375 3.328125zm101.8667 -2.671875l0 -186.65625l40.0 0l0 150.65625l84.53125 0l0 36.0l-124.53125 0zm233.05713 1.59375q-22.671875 0 -40.40625 -9.453125q-17.71875 -9.46875 -27.859375 -26.140625q-10.125 -16.671875 -10.125 -37.734375l0 -115.1875l40.265625 0l0 112.796875q0 11.1875 5.0625 20.125q5.0625 8.9375 13.71875 14.265625q8.671875 5.328125 19.34375 5.328125q10.9375 0 19.859375 -5.328125q8.9375 -5.328125 14.140625 -14.265625q5.203125 -8.9375 5.203125 -20.125l0 -112.796875l38.921875 0l0 115.1875q0 21.0625 -10.0 37.734375q-10.0 16.671875 -27.859375 26.140625q-17.859375 9.453125 -40.265625 9.453125zm125.06201 -1.59375l0 -186.65625l81.0625 0q18.671875 0 31.59375 5.46875q12.9375 5.46875 19.59375 15.875q6.671875 10.390625 6.671875 24.78125q0 16.0 -8.0 26.671875q-8.0 10.65625 -22.921875 14.65625l-0.265625 -5.328125q12.53125 2.9375 21.71875 9.609375q9.203125 6.65625 14.265625 16.53125q5.078125 9.859375 5.078125 22.390625q0 13.875 -4.53125 24.40625q-4.53125 10.53125 -13.34375 17.46875q-8.796875 6.921875 -20.671875 10.53125q-11.859375 3.59375 -26.515625 3.59375l-83.734375 0zm38.40625 -34.671875l43.71875 0q8.53125 0 14.53125 -2.53125q6.0 -2.53125 9.203125 -7.859375q3.203125 -5.328125 3.203125 -12.53125q0 -6.9375 -3.46875 -11.734375q-3.46875 -4.796875 -9.734375 -7.328125q-6.265625 -2.546875 -15.0625 -2.546875l-42.390625 0l0 44.53125zm0 -76.25l37.859375 0q7.203125 0 12.53125 -2.671875q5.328125 -2.671875 8.125 -7.203125q2.8125 -4.53125 2.8125 -10.671875q0 -9.859375 -6.40625 -15.1875q-6.390625 -5.34375 -19.46875 -5.34375l-35.453125 0l0 41.078125z" fill-rule="nonzero"/></g></svg>