<svg version="1.1" viewBox="0.0 0.0 2432.0 432.0" fill="none" stroke="none" stroke-linecap="square" stroke-miterlimit="10" xmlns:xlink="http://www.w3.org/1999/xlink" xmlns="http://www.w3.org/2000/svg"><clipPath id="p.0"><path d="m0 0l2432.0 0l0 432.0l-2432.0 0l0 -432.0z" clip-rule="nonzero"/></clipPath><g clip-path="url(#p.0)"><path fill="#000000" fill-opacity="0.0" d="m0 0l2432.0 0l0 432.0l-2432.0 0z" fill-rule="evenodd"/><path fill="#000000" fill-opacity="0.0" d="m-368.44516 2845.5984c31.733612 -8.133301 209.6015 -31.600586 190.40158 -48.800537c-19.199905 -17.199951 -283.60104 -28.799072 -305.60104 -54.398926c-22.0 -25.59961 167.86746 -75.46582 173.60104 -99.19946c5.733612 -23.733643 -115.99957 -36.00171 -139.19946 -43.20215" fill-rule="evenodd"/><path stroke="#cc6f77" stroke-width="12.0" stroke-linejoin="round" stroke-linecap="butt" d="m-368.44516 2845.5984c31.733612 -8.133301 209.6015 -31.600586 190.40158 -48.800537c-19.199905 -17.199951 -283.60104 -28.799072 -305.60104 -54.398926c-22.0 -25.59961 167.86746 -75.46582 173.60104 -99.19946c5.733612 -23.733643 -115.99957 -36.00171 -139.19946 -43.20215" fill-rule="evenodd"/><path fill="#fdfdfd" fill-opacity="0.9922" d="m-1160.0 -1072.0l1040.0 0l0 1040.0l-1040.0 0z" fill-rule="evenodd"/><path fill="#fff9f8" d="m-994.4002 -605.4039l190.40015 -236.02283l255.4914 236.02283z" fill-rule="evenodd"/><path stroke="#5ecfb8" stroke-width="24.0" stroke-linejoin="round" stroke-linecap="butt" d="m-994.4002 -605.4039l190.40015 -236.02283l255.4914 236.02283z" fill-rule="evenodd"/><path fill="#fceeec" d="m-871.389 -605.4029l258.07294 -315.14752l328.69653 315.14752z" fill-rule="evenodd"/><path stroke="#1abc9c" stroke-width="24.0" stroke-linejoin="round" stroke-linecap="butt" d="m-871.389 -605.4029l258.07294 -315.14752l328.69653 315.14752z" fill-rule="evenodd"/><path fill="#000000" fill-opacity="0.0" d="m-1160.0 -515.19556l1040.0 0l0 332.0l-1040.0 0z" fill-rule="evenodd"/><path fill="#1abc9c" d="m-1014.62854 -261.93152l0 -188.53125l36.078125 0l104.234375 140.85938l-7.546875 0q-1.078125 -8.34375 -1.890625 -16.28125q-0.796875 -7.953125 -1.46875 -16.171875q-0.671875 -8.21875 -1.078125 -16.96875q-0.40625 -8.75 -0.671875 -18.578125q-0.265625 -9.828125 -0.265625 -21.421875l0 -51.4375l39.59375 0l0 188.53125l-36.640625 0l-106.375 -142.20312l10.234375 0.265625q1.34375 14.0 2.28125 23.84375q0.953125 9.828125 1.625 17.109375q0.671875 7.265625 0.9375 12.65625q0.265625 5.375 0.390625 10.234375q0.140625 4.84375 0.140625 10.21875l0 67.875l-39.578125 0zm216.0011 0l0 -188.53125l36.890625 0l68.671875 111.765625l-24.234375 -0.265625l69.484375 -111.5l35.28125 0l0 188.53125l-39.59375 0l0 -64.640625q0 -24.234375 1.21875 -43.625q1.21875 -19.390625 4.171875 -38.515625l4.859375 12.65625l-55.21875 85.640625l-17.78125 0l-54.125 -85.109375l4.578125 -13.1875q2.953125 18.046875 4.15625 37.03125q1.21875 18.984375 1.21875 45.109375l0 64.640625l-39.578125 0zm274.4359 0l0 -152.17188l-54.9375 0l0 -36.359375l151.89062 0l0 36.359375l-56.546875 0l0 152.17188l-40.40625 0zm204.95618 2.6875q-20.734375 0 -38.109375 -7.125q-17.359375 -7.140625 -30.15625 -20.203125q-12.796875 -13.0625 -19.796875 -30.96875q-7.0 -17.921875 -7.0 -39.1875q0 -20.75 7.265625 -38.390625q7.265625 -17.640625 20.46875 -30.703125q13.203125 -13.0625 30.96875 -20.328125q17.78125 -7.28125 38.515625 -7.28125q13.46875 0 26.53125 3.640625q13.0625 3.640625 23.96875 10.640625q10.90625 7.0 18.71875 16.703125l-25.3125 28.0q-6.203125 -6.453125 -13.203125 -11.171875q-7.0 -4.71875 -14.671875 -7.265625q-7.671875 -2.5625 -16.296875 -2.5625q-11.578125 0 -21.6875 4.3125q-10.09375 4.296875 -17.640625 11.984375q-7.53125 7.671875 -11.984375 18.578125q-4.4375 10.90625 -4.4375 24.109375q0 13.46875 4.3125 24.375q4.3125 10.90625 12.109375 18.578125q7.8125 7.671875 18.71875 11.859375q10.90625 4.171875 24.109375 4.171875q8.625 0 16.703125 -2.421875q8.078125 -2.4375 14.9375 -6.734375q6.875 -4.3125 12.265625 -9.96875l19.921875 31.515625q-6.734375 7.265625 -17.640625 13.1875q-10.90625 5.921875 -24.375 9.296875q-13.46875 3.359375 -27.203125 3.359375z" fill-rule="nonzero"/><path fill="#000000" fill-opacity="0.0" d="m-591.20105 -599.2087c31.733582 -8.133423 209.60147 -31.600586 190.40158 -48.800537c-19.19992 -17.19989 -283.60104 -28.799194 -305.60104 -54.398926c-22.0 -25.599731 167.86743 -75.46588 173.60101 -99.19946c5.7336426 -23.733582 -115.99957 -36.00177 -139.19946 -43.202087" fill-rule="evenodd"/><path stroke="#cc6f77" stroke-width="12.0" stroke-linejoin="round" stroke-linecap="butt" d="m-591.20105 -599.2087c31.733582 -8.133423 209.60147 -31.600586 190.40158 -48.800537c-19.19992 -17.19989 -283.60104 -28.799194 -305.60104 -54.398926c-22.0 -25.599731 167.86743 -75.46588 173.60101 -99.19946c5.7336426 -23.733582 -115.99957 -36.00177 -139.19946 -43.202087" fill-rule="evenodd"/><path fill="#cc6f77" d="m-1048.0 -515.19556l458.91302 -90.20471l361.08698 90.20471z" fill-rule="evenodd"/><path stroke="#cc6f77" stroke-width="1.0" stroke-linejoin="round" stroke-linecap="butt" d="m-1048.0 -515.19556l458.91302 -90.20471l361.08698 90.20471z" fill-rule="evenodd"/><path fill="#fceeec" d="m-857.45667 -513.2113l263.54327 -86.299194l-259.4803 97.82678z" fill-rule="evenodd"/><path fill="#fceeec" d="m-407.64307 -510.53412l-188.0 -89.19684l182.26773 100.28345z" fill-rule="evenodd"/><path fill="#fceeec" d="m-628.27997 -507.5321l33.44879 -91.33856l-44.850403 86.236206z" fill-rule="evenodd"/><path fill="#fdfdfd" fill-opacity="0.9922" d="m-1157.5092 -515.19293l1036.0 0l0 15.748047l-1036.0 0z" fill-rule="evenodd"/><path fill="#000000" fill-opacity="0.0" d="m-611.9903 -920.8034l-130.36224 157.82678" fill-rule="evenodd"/><path stroke="#1abc9c" stroke-width="24.0" stroke-linejoin="round" stroke-linecap="butt" d="m-611.9903 -920.8034l-130.36224 157.82678" fill-rule="evenodd"/><path fill="#fdfdfd" fill-opacity="0.9922" d="m-1298.4908 1203.3071l1660.0 0l0 444.69287l-1660.0 0z" fill-rule="evenodd"/><path fill="#000000" fill-opacity="0.0" d="m-563.68896 1295.9863l1040.0 0l0 332.0l-1040.0 0z" fill-rule="evenodd"/><path fill="#111111" d="m-418.31754 1549.2504l0 -188.53125l36.078125 0l104.234375 140.85938l-7.546875 0q-1.078125 -8.34375 -1.890625 -16.28125q-0.796875 -7.953125 -1.46875 -16.171875q-0.671875 -8.21875 -1.078125 -16.96875q-0.40625 -8.75 -0.671875 -18.578125q-0.265625 -9.828125 -0.265625 -21.421875l0 -51.4375l39.593735 0l0 188.53125l-36.64061 0l-106.375 -142.20312l10.234375 0.265625q1.34375 14.0 2.28125 23.84375q0.953125 9.828125 1.625 17.109375q0.671875 7.265625 0.9375 12.65625q0.265625 5.375 0.390625 10.234375q0.140625 4.84375 0.140625 10.21875l0 67.875l-39.578125 0zm216.00111 0l0 -188.53125l36.890625 0l68.671875 111.765625l-24.234375 -0.265625l69.484375 -111.5l35.28125 0l0 188.53125l-39.59375 0l0 -64.640625q0 -24.234375 1.21875 -43.625q1.21875 -19.390625 4.171875 -38.515625l4.859375 12.65625l-55.218754 85.640625l-17.78125 0l-54.125 -85.109375l4.578125 -13.1875q2.953125 18.046875 4.15625 37.03125q1.21875 18.984375 1.21875 45.109375l0 64.640625l-39.578125 0zm274.4359 0l0 -152.17188l-54.937496 0l0 -36.359375l151.89062 0l0 36.359375l-56.546875 0l0 152.17188l-40.40625 0zm204.95619 2.6875q-20.734375 0 -38.10939 -7.125q-17.359375 -7.140625 -30.15625 -20.203125q-12.796875 -13.0625 -19.796875 -30.96875q-7.0 -17.921875 -7.0 -39.1875q0 -20.75 7.265625 -38.390625q7.265625 -17.640625 20.46875 -30.703125q13.203125 -13.0625 30.96875 -20.328125q17.781265 -7.28125 38.51564 -7.28125q13.46875 0 26.53125 3.640625q13.0625 3.640625 23.96875 10.640625q10.90625 7.0 18.71875 16.703125l-25.3125 28.0q-6.203125 -6.453125 -13.203125 -11.171875q-7.0 -4.71875 -14.671875 -7.265625q-7.671875 -2.5625 -16.296875 -2.5625q-11.578125 0 -21.6875 4.3125q-10.093765 4.296875 -17.64064 11.984375q-7.53125 7.671875 -11.984375 18.578125q-4.4375 10.90625 -4.4375 24.109375q0 13.46875 4.3125 24.375q4.3125 10.90625 12.109375 18.578125q7.8125 7.671875 18.718765 11.859375q10.90625 4.171875 24.109375 4.171875q8.625 0 16.703125 -2.421875q8.078125 -2.4375 14.9375 -6.734375q6.875 -4.3125 12.265625 -9.96875l19.921875 31.515625q-6.734375 7.265625 -17.640625 13.1875q-10.90625 5.921875 -24.375 9.296875q-13.46875 3.359375 -27.203125 3.359375z" fill-rule="nonzero"/><path fill="#efefef" d="m-1220.891 1542.0273l190.40015 -236.02283l255.49133 236.02283z" fill-rule="evenodd"/><path stroke="#111111" stroke-width="24.0" stroke-linejoin="round" stroke-linecap="butt" d="m-1220.891 1542.0273l190.40015 -236.02283l255.49133 236.02283z" fill-rule="evenodd"/><path fill="#efefef" d="m-1097.8798 1542.0283l258.07294 -315.14746l328.6965 315.14746z" fill-rule="evenodd"/><path stroke="#111111" stroke-width="24.0" stroke-linejoin="round" stroke-linecap="butt" d="m-1097.8798 1542.0283l258.07294 -315.14746l328.6965 315.14746z" fill-rule="evenodd"/><path fill="#000000" fill-opacity="0.0" d="m-824.1938 1550.0c32.81714 -8.429565 215.01923 -33.08142 196.9029 -50.577393c-18.116394 -17.496094 -279.7345 -29.046387 -305.60107 -54.398926c-25.866577 -25.352661 144.66797 -73.98303 150.40161 -97.71655c5.7335815 -23.733643 -96.66669 -37.23755 -116.0 -44.68506" fill-rule="evenodd"/><path stroke="#cc6f77" stroke-width="12.0" stroke-linejoin="round" stroke-linecap="butt" d="m-824.1938 1550.0c32.81714 -8.429565 215.01923 -33.08142 196.9029 -50.577393c-18.116394 -17.496094 -279.7345 -29.046387 -305.60107 -54.398926c-25.866577 -25.352661 144.66797 -73.98303 150.40161 -97.71655c5.7335815 -23.733643 -96.66669 -37.23755 -116.0 -44.68506" fill-rule="evenodd"/><path fill="#cc6f77" d="m-1274.4908 1632.2357l458.91302 -90.20471l361.087 90.20471z" fill-rule="evenodd"/><path fill="#fdfdfd" fill-opacity="0.9922" d="m-1083.9475 1634.22l263.54333 -86.299194l-259.48035 97.82678z" fill-rule="evenodd"/><path fill="#fdfdfd" fill-opacity="0.9922" d="m-634.13385 1636.8971l-188.0 -89.19678l182.2677 100.28345z" fill-rule="evenodd"/><path fill="#fdfdfd" fill-opacity="0.9922" d="m-854.7708 1639.8992l33.448853 -91.33862l-44.850403 86.236206z" fill-rule="evenodd"/><path fill="#ffffff" d="m-1384.0 1632.2383l1036.0 0l0 15.748047l-1036.0 0z" fill-rule="evenodd"/><path fill="#000000" fill-opacity="0.0" d="m-838.48114 1226.6278l-130.36218 157.82678" fill-rule="evenodd"/><path stroke="#111111" stroke-width="24.0" stroke-linejoin="round" stroke-linecap="butt" d="m-838.48114 1226.6278l-130.36218 157.82678" fill-rule="evenodd"/><path fill="#fdfdfd" fill-opacity="0.9922" d="m-1160.0 112.0l1040.0 0l0 1040.0l-1040.0 0z" fill-rule="evenodd"/><path fill="#fdfdfd" fill-opacity="0.9922" d="m-994.4002 578.5961l190.40015 -236.02286l255.4914 236.02286z" fill-rule="evenodd"/><path stroke="#111111" stroke-width="24.0" stroke-linejoin="round" stroke-linecap="butt" d="m-994.4002 578.5961l190.40015 -236.02286l255.4914 236.02286z" fill-rule="evenodd"/><path fill="#fdfdfd" fill-opacity="0.9922" d="m-871.389 578.5971l258.07294 -315.1475l328.69653 315.1475z" fill-rule="evenodd"/><path stroke="#111111" stroke-width="24.0" stroke-linejoin="round" stroke-linecap="butt" d="m-871.389 578.5971l258.07294 -315.1475l328.69653 315.1475z" fill-rule="evenodd"/><path fill="#000000" fill-opacity="0.0" d="m-1160.0 668.80444l1040.0 0l0 332.0l-1040.0 0z" fill-rule="evenodd"/><path fill="#111111" d="m-1014.62854 922.0685l0 -188.53125l36.078125 0l104.234375 140.85938l-7.546875 0q-1.078125 -8.34375 -1.890625 -16.28125q-0.796875 -7.953125 -1.46875 -16.171875q-0.671875 -8.21875 -1.078125 -16.96875q-0.40625 -8.75 -0.671875 -18.578125q-0.265625 -9.828125 -0.265625 -21.421875l0 -51.4375l39.59375 0l0 188.53125l-36.640625 0l-106.375 -142.20312l10.234375 0.265625q1.34375 14.0 2.28125 23.84375q0.953125 9.828125 1.625 17.109375q0.671875 7.265625 0.9375 12.65625q0.265625 5.375 0.390625 10.234375q0.140625 4.84375 0.140625 10.21875l0 67.875l-39.578125 0zm216.0011 0l0 -188.53125l36.890625 0l68.671875 111.765625l-24.234375 -0.265625l69.484375 -111.5l35.28125 0l0 188.53125l-39.59375 0l0 -64.640625q0 -24.234375 1.21875 -43.625q1.21875 -19.390625 4.171875 -38.515625l4.859375 12.65625l-55.21875 85.640625l-17.78125 0l-54.125 -85.109375l4.578125 -13.1875q2.953125 18.046875 4.15625 37.03125q1.21875 18.984375 1.21875 45.109375l0 64.640625l-39.578125 0zm274.4359 0l0 -152.17188l-54.9375 0l0 -36.359375l151.89062 0l0 36.359375l-56.546875 0l0 152.17188l-40.40625 0zm204.95618 2.6875q-20.734375 0 -38.109375 -7.125q-17.359375 -7.140625 -30.15625 -20.203125q-12.796875 -13.0625 -19.796875 -30.96875q-7.0 -17.921875 -7.0 -39.1875q0 -20.75 7.265625 -38.390625q7.265625 -17.640625 20.46875 -30.703125q13.203125 -13.0625 30.96875 -20.328125q17.78125 -7.28125 38.515625 -7.28125q13.46875 0 26.53125 3.640625q13.0625 3.640625 23.96875 10.640625q10.90625 7.0 18.71875 16.703125l-25.3125 28.0q-6.203125 -6.453125 -13.203125 -11.171875q-7.0 -4.71875 -14.671875 -7.265625q-7.671875 -2.5625 -16.296875 -2.5625q-11.578125 0 -21.6875 4.3125q-10.09375 4.296875 -17.640625 11.984375q-7.53125 7.671875 -11.984375 18.578125q-4.4375 10.90625 -4.4375 24.109375q0 13.46875 4.3125 24.375q4.3125 10.90625 12.109375 18.578125q7.8125 7.671875 18.71875 11.859375q10.90625 4.171875 24.109375 4.171875q8.625 0 16.703125 -2.421875q8.078125 -2.4375 14.9375 -6.734375q6.875 -4.3125 12.265625 -9.96875l19.921875 31.515625q-6.734375 7.265625 -17.640625 13.1875q-10.90625 5.921875 -24.375 9.296875q-13.46875 3.359375 -27.203125 3.359375z" fill-rule="nonzero"/><path fill="#000000" fill-opacity="0.0" d="m-591.20105 584.7913c31.733582 -8.133423 209.60147 -31.600586 190.40158 -48.800537c-19.19992 -17.19989 -283.60104 -28.799194 -305.60104 -54.398926c-22.0 -25.599731 167.86743 -75.46588 173.60101 -99.19946c5.7336426 -23.733612 -115.99957 -36.00177 -139.19946 -43.202118" fill-rule="evenodd"/><path stroke="#111111" stroke-width="12.0" stroke-linejoin="round" stroke-linecap="butt" d="m-591.20105 584.7913c31.733582 -8.133423 209.60147 -31.600586 190.40158 -48.800537c-19.19992 -17.19989 -283.60104 -28.799194 -305.60104 -54.398926c-22.0 -25.599731 167.86743 -75.46588 173.60101 -99.19946c5.7336426 -23.733612 -115.99957 -36.00177 -139.19946 -43.202118" fill-rule="evenodd"/><path fill="#111111" d="m-1048.0 668.80444l458.91302 -90.20471l361.08698 90.20471z" fill-rule="evenodd"/><path stroke="#111111" stroke-width="1.0" stroke-linejoin="round" stroke-linecap="butt" d="m-1048.0 668.80444l458.91302 -90.20471l361.08698 90.20471z" fill-rule="evenodd"/><path fill="#fdfdfd" fill-opacity="0.9922" d="m-857.45667 670.7887l263.54327 -86.299194l-259.4803 97.82678z" fill-rule="evenodd"/><path fill="#fdfdfd" fill-opacity="0.9922" d="m-407.64307 673.4659l-188.0 -89.19684l182.26773 100.28345z" fill-rule="evenodd"/><path fill="#fdfdfd" fill-opacity="0.9922" d="m-628.27997 676.4679l33.44879 -91.33856l-44.850403 86.236206z" fill-rule="evenodd"/><path fill="#fdfdfd" fill-opacity="0.9922" d="m-1157.5092 668.80707l1036.0 0l0 15.748047l-1036.0 0z" fill-rule="evenodd"/><path fill="#000000" fill-opacity="0.0" d="m-611.9903 263.1966l-130.36224 157.82678" fill-rule="evenodd"/><path stroke="#111111" stroke-width="24.0" stroke-linejoin="round" stroke-linecap="butt" d="m-611.9903 263.1966l-130.36224 157.82678" fill-rule="evenodd"/><path fill="#ffffff" d="m-1226.4908 1756.0l1660.0 0l0 444.69287l-1660.0 0z" fill-rule="evenodd"/><path fill="#000000" fill-opacity="0.0" d="m-491.68896 1848.6793l1040.0 0l0 331.99988l-1040.0 0z" fill-rule="evenodd"/><path fill="#1abc9c" d="m-346.31754 2101.9434l0 -188.53137l36.078125 0l104.23436 140.8595l-7.546875 0q-1.078125 -8.343872 -1.890625 -16.281372q-0.796875 -7.953125 -1.46875 -16.171875q-0.671875 -8.21875 -1.078125 -16.96875q-0.40625 -8.75 -0.671875 -18.578125q-0.265625 -9.828125 -0.265625 -21.421875l0 -51.4375l39.59375 0l0 188.53137l-36.640625 0l-106.374985 -142.20325l10.234375 0.265625q1.34375 14.0 2.28125 23.84375q0.953125 9.828125 1.625 17.109375q0.671875 7.265625 0.9375 12.65625q0.265625 5.375 0.390625 10.234375q0.140625 4.84375 0.140625 10.21875l0 67.87512l-39.578125 0zm216.00111 0l0 -188.53137l36.890625 0l68.671875 111.765625l-24.234375 -0.265625l69.484375 -111.5l35.28125 0l0 188.53137l-39.59375 0l0 -64.64075q0 -24.234375 1.21875 -43.625q1.21875 -19.390625 4.171875 -38.515625l4.859375 12.65625l-55.21875 85.64075l-17.78125 0l-54.125004 -85.1095l4.578125 -13.1875q2.953125 18.046875 4.15625 37.03125q1.21875 18.984375 1.21875 45.109375l0 64.64075l-39.578125 0zm274.4359 0l0 -152.172l-54.9375 0l0 -36.359375l151.89062 0l0 36.359375l-56.546875 0l0 152.172l-40.40625 0zm204.95619 2.6875q-20.734375 0 -38.109375 -7.125q-17.359375 -7.140625 -30.15625 -20.203125q-12.796875 -13.0625 -19.796875 -30.968872q-7.0000153 -17.921875 -7.0000153 -39.1875q0 -20.75 7.2656403 -38.390625q7.265625 -17.640625 20.46875 -30.703125q13.203125 -13.0625 30.96875 -20.328125q17.78125 -7.28125 38.515625 -7.28125q13.46875 0 26.53125 3.640625q13.0625 3.640625 23.96875 10.640625q10.90625 7.0 18.71875 16.703125l-25.3125 28.0q-6.203125 -6.453125 -13.203125 -11.171875q-7.0 -4.71875 -14.671875 -7.265625q-7.671875 -2.5625 -16.296875 -2.5625q-11.578125 0 -21.6875 4.3125q-10.09375 4.296875 -17.640625 11.984375q-7.53125 7.671875 -11.984375 18.578125q-4.4375 10.90625 -4.4375 24.109375q0 13.46875 4.3125 24.375q4.3125 10.90625 12.109375 18.578247q7.8125 7.671875 18.71875 11.859375q10.90625 4.171875 24.109375 4.171875q8.625 0 16.703125 -2.421875q8.078125 -2.4375 14.9375 -6.734375q6.875 -4.3125 12.265625 -9.968872l19.921875 31.515747q-6.734375 7.265625 -17.640625 13.1875q-10.90625 5.921875 -24.375 9.296875q-13.46875 3.359375 -27.203125 3.359375z" fill-rule="nonzero"/><path fill="#fff9f8" d="m-1148.891 2094.7202l190.40015 -236.02283l255.49133 236.02283z" fill-rule="evenodd"/><path stroke="#5ecfb8" stroke-width="24.0" stroke-linejoin="round" stroke-linecap="butt" d="m-1148.891 2094.7202l190.40015 -236.02283l255.49133 236.02283z" fill-rule="evenodd"/><path fill="#fceeec" d="m-1025.8798 2094.7212l258.07294 -315.14746l328.6965 315.14746z" fill-rule="evenodd"/><path stroke="#1abc9c" stroke-width="24.0" stroke-linejoin="round" stroke-linecap="butt" d="m-1025.8798 2094.7212l258.07294 -315.14746l328.6965 315.14746z" fill-rule="evenodd"/><path fill="#000000" fill-opacity="0.0" d="m-745.6925 2100.916c31.733643 -8.133545 209.6015 -31.600586 190.40161 -48.800537c-19.199951 -17.199951 -279.7345 -29.046387 -305.60107 -54.398926c-25.866577 -25.35254 144.66797 -73.98291 150.40161 -97.71655c5.7335815 -23.733643 -96.66669 -37.23755 -116.0 -44.68506" fill-rule="evenodd"/><path stroke="#cc6f77" stroke-width="12.0" stroke-linejoin="round" stroke-linecap="butt" d="m-745.6925 2100.916c31.733643 -8.133545 209.6015 -31.600586 190.40161 -48.800537c-19.199951 -17.199951 -279.7345 -29.046387 -305.60107 -54.398926c-25.866577 -25.35254 144.66797 -73.98291 150.40161 -97.71655c5.7335815 -23.733643 -96.66669 -37.23755 -116.0 -44.68506" fill-rule="evenodd"/><path fill="#cc6f77" d="m-1202.4908 2184.9287l458.91302 -90.204834l361.087 90.204834z" fill-rule="evenodd"/><path stroke="#cc6f77" stroke-width="1.0" stroke-linejoin="round" stroke-linecap="butt" d="m-1202.4908 2184.9287l458.91302 -90.204834l361.087 90.204834z" fill-rule="evenodd"/><path fill="#fceeec" d="m-1011.9475 2186.9128l263.54333 -86.29932l-259.48035 97.826904z" fill-rule="evenodd"/><path fill="#fceeec" d="m-562.13385 2189.59l-188.0 -89.19702l182.2677 100.28369z" fill-rule="evenodd"/><path fill="#fceeec" d="m-782.7708 2192.592l33.448853 -91.33862l-44.850403 86.23633z" fill-rule="evenodd"/><path fill="#ffffff" d="m-1312.0 2184.9312l1036.0 0l0 15.748047l-1036.0 0z" fill-rule="evenodd"/><path fill="#000000" fill-opacity="0.0" d="m-766.48114 1779.3207l-130.36218 157.82678" fill-rule="evenodd"/><path stroke="#1abc9c" stroke-width="24.0" stroke-linejoin="round" stroke-linecap="butt" d="m-766.48114 1779.3207l-130.36218 157.82678" fill-rule="evenodd"/><path fill="#fdfdfd" fill-opacity="0.9922" d="m0 4.0l2436.0 0l0 428.0l-2436.0 0z" fill-rule="evenodd"/><path fill="#fdfdfd" fill-opacity="0.9922" d="m54.644417 335.39926l190.40015 -236.02283l255.4914 236.02283z" fill-rule="evenodd"/><path stroke="#111111" stroke-width="24.0" stroke-linejoin="round" stroke-linecap="butt" d="m54.644417 335.39926l190.40015 -236.02283l255.4914 236.02283z" fill-rule="evenodd"/><path fill="#fdfdfd" fill-opacity="0.9922" d="m177.65564 335.40027l258.07294 -315.14752l328.69653 315.14752z" fill-rule="evenodd"/><path stroke="#111111" stroke-width="24.0" stroke-linejoin="round" stroke-linecap="butt" d="m177.65564 335.40027l258.07294 -315.14752l328.69653 315.14752z" fill-rule="evenodd"/><path fill="#000000" fill-opacity="0.0" d="m849.0446 51.385826l2072.0 0l0 332.0l-2072.0 0z" fill-rule="evenodd"/><path fill="#111111" d="m903.57587 409.38583l0 -373.32812l71.46875 0l206.39069 278.92188l-14.921875 0q-2.140625 -16.53125 -3.75 -32.265625q-1.59375 -15.734375 -2.921875 -32.0q-1.328125 -16.265625 -2.140625 -33.59375q-0.796875 -17.328125 -1.328125 -36.796875q-0.53125 -19.46875 -0.53125 -42.40625l0 -101.85938l78.40625 0l0 373.32812l-72.546875 0l-210.65631 -281.59375l20.265625 0.5312576q2.671875 27.734375 4.53125 47.203125q1.875 19.46875 3.203125 33.875q1.328125 14.390625 1.859375 25.0625q0.546875 10.65625 0.8125 20.265625q0.265625 9.59375 0.265625 20.25l0 134.40625l-78.40625 0zm427.72906 0l0 -373.32812l73.06262 0l136.0 221.32812l-48.0 -0.53125l137.60938 -220.79688l69.859375 0l0 373.32812l-78.40625 0l0 -128.0q0 -48.0 2.40625 -86.390625q2.40625 -38.40625 8.265625 -76.26563l9.609375 25.062508l-109.34375 169.59375l-35.203125 0l-107.1875 -168.53125l9.0625 -26.125008q5.859375 35.718758 8.265625 73.32813q2.40625 37.59375 2.40625 89.328125l0 128.0l-78.40637 0zm543.47046 0l0 -301.32812l-108.8125 0l0 -72.0l300.79688 0l0 72.0l-112.0 0l0 301.32812l-79.984375 0zm405.85596 5.328125q-41.0625 0 -75.46875 -14.125q-34.390625 -14.140625 -59.734375 -40.0q-25.328125 -25.875 -39.203125 -61.328125q-13.859375 -35.46875 -13.859375 -77.609375q0 -41.0625 14.390625 -75.984375q14.40625 -34.937508 40.53125 -60.796883q26.140625 -25.875 61.34375 -40.28125q35.203125 -14.40625 76.265625 -14.40625q26.671875 0 52.53125 7.203125q25.875 7.203125 47.46875 21.078125q21.59375 13.859375 37.0625 33.0625l-50.125 55.468758q-12.265625 -12.8125 -26.140625 -22.140633q-13.859375 -9.328125 -29.0625 -14.390625q-15.203125 -5.078125 -32.265625 -5.078125q-22.9375 0 -42.9375 8.53125q-20.0 8.53125 -34.9375 23.734383q-14.921875 15.203125 -23.734375 36.8125q-8.796875 21.59375 -8.796875 47.71875q0 26.671875 8.53125 48.28125q8.546875 21.59375 24.0 36.796875q15.46875 15.1875 37.0625 23.453125q21.609375 8.265625 47.75 8.265625q17.0625 0 33.0625 -4.796875q16.0 -4.796875 29.59375 -13.328125q13.609375 -8.53125 24.265625 -19.734375l39.46875 62.40625q-13.328125 14.390625 -34.9375 26.125q-21.59375 11.734375 -48.265625 18.40625q-26.65625 6.65625 -53.859375 6.65625z" fill-rule="nonzero"/><path fill="#000000" fill-opacity="0.0" d="m445.56534 351.20996c33.77997 -9.735779 219.83334 -39.612396 202.67978 -58.414673c-17.153503 -18.802277 -283.601 -28.799225 -305.601 -54.398956c-22.0 -25.599747 167.86743 -75.46588 173.60101 -99.19948c5.7336426 -23.733597 -115.99954 -36.001755 -139.19946 -43.202103" fill-rule="evenodd"/><path stroke="#cc6f77" stroke-width="24.0" stroke-linejoin="round" stroke-linecap="butt" d="m445.56534 351.20996c33.77997 -9.735779 219.83334 -39.612396 202.67978 -58.414673c-17.153503 -18.802277 -283.601 -28.799225 -305.601 -54.398956c-22.0 -25.599747 167.86743 -75.46588 173.60101 -99.19948c5.7336426 -23.733597 -115.99954 -36.001755 -139.19946 -43.202103" fill-rule="evenodd"/><path fill="#cc6f77" d="m1.0446194 425.6076l458.913 -90.20471l361.087 90.20471z" fill-rule="evenodd"/><path fill="#fdfdfd" fill-opacity="0.9922" d="m178.22311 433.94748l277.3701 -92.66141l-274.25195 101.543304z" fill-rule="evenodd"/><path fill="#fdfdfd" fill-opacity="0.9922" d="m641.2153 433.16507l-186.91339 -91.3071l183.35437 98.17325z" fill-rule="evenodd"/><path fill="#fdfdfd" fill-opacity="0.9922" d="m420.59055 433.19205l33.543304 -91.3071l-44.75589 86.26773z" fill-rule="evenodd"/><path fill="#fdfdfd" fill-opacity="0.9922" d="m0 425.60892l952.56696 0l0 28.409454l-952.56696 0z" fill-rule="evenodd"/><path fill="#000000" fill-opacity="0.0" d="m437.05432 19.99974l-130.36221 157.82677" fill-rule="evenodd"/><path stroke="#111111" stroke-width="24.0" stroke-linejoin="round" stroke-linecap="butt" d="m437.05432 19.99974l-130.36221 157.82677" fill-rule="evenodd"/><path fill="#fdfdfd" fill-opacity="0.9922" d="m-5.249344E-7 444.69028l453.7953 -103.165344l-451.9685 110.944885z" fill-rule="evenodd"/><path fill="#fdfdfd" fill-opacity="0.9922" d="m847.02203 472.94785l-391.74802 -130.83463l394.20474 123.212585z" fill-rule="evenodd"/><path fill="#fdfdfd" fill-opacity="0.9922" d="m523.16797 429.7348l-68.23624 -87.653534l57.93698 94.70865z" fill-rule="evenodd"/><path fill="#fdfdfd" fill-opacity="0.9922" d="m302.8557 454.03134l149.6063 -111.71652l-156.7244 101.44882z" fill-rule="evenodd"/></g></svg>