<svg version="1.1" viewBox="0.0 0.0 762.0 194.0" fill="none" stroke="none" stroke-linecap="square" stroke-miterlimit="10" xmlns:xlink="http://www.w3.org/1999/xlink" xmlns="http://www.w3.org/2000/svg"><clipPath id="p.0"><path d="m0 0l762.0 0l0 194.0l-762.0 0l0 -194.0z" clip-rule="nonzero"/></clipPath><g clip-path="url(#p.0)"><path fill="#000000" fill-opacity="0.0" d="m0 0l762.0 0l0 194.0l-762.0 0z" fill-rule="evenodd"/><path fill="#000000" fill-opacity="0.0" d="m-368.44516 2845.5984c31.733612 -8.133301 209.6015 -31.600586 190.40158 -48.800537c-19.199905 -17.199951 -283.60104 -28.799072 -305.60104 -54.398926c-22.0 -25.59961 167.86746 -75.46582 173.60104 -99.19946c5.733612 -23.733643 -115.99957 -36.00171 -139.19946 -43.20215" fill-rule="evenodd"/><path stroke="#cc6f77" stroke-width="12.0" stroke-linejoin="round" stroke-linecap="butt" d="m-368.44516 2845.5984c31.733612 -8.133301 209.6015 -31.600586 190.40158 -48.800537c-19.199905 -17.199951 -283.60104 -28.799072 -305.60104 -54.398926c-22.0 -25.59961 167.86746 -75.46582 173.60104 -99.19946c5.733612 -23.733643 -115.99957 -36.00171 -139.19946 -43.20215" fill-rule="evenodd"/><path fill="#fdfdfd" fill-opacity="0.9922" d="m-1367.0105 -984.0l828.0 0l0 828.0l-828.0 0z" fill-rule="evenodd"/><path fill="#fdfdfd" fill-opacity="0.9922" d="m-1312.3661 -652.60077l190.40015 -236.02277l255.4914 236.02277z" fill-rule="evenodd"/><path stroke="#111111" stroke-width="24.0" stroke-linejoin="round" stroke-linecap="butt" d="m-1312.3661 -652.60077l190.40015 -236.02277l255.4914 236.02277z" fill-rule="evenodd"/><path fill="#fdfdfd" fill-opacity="0.9922" d="m-1189.3549 -652.59973l258.07294 -315.14752l328.69653 315.14752z" fill-rule="evenodd"/><path stroke="#111111" stroke-width="24.0" stroke-linejoin="round" stroke-linecap="butt" d="m-1189.3549 -652.59973l258.07294 -315.14752l328.69653 315.14752z" fill-rule="evenodd"/><path fill="#000000" fill-opacity="0.0" d="m-921.4451 -636.79004c33.77997 -9.735779 219.83331 -39.612427 202.67975 -58.414673c-17.153503 -18.802307 -283.601 -28.799255 -305.60107 -54.398987c-22.0 -25.599731 167.8675 -75.46588 173.60107 -99.19946c5.7336426 -23.733582 -115.99951 -36.00171 -139.19946 -43.202087" fill-rule="evenodd"/><path stroke="#111111" stroke-width="24.0" stroke-linejoin="round" stroke-linecap="butt" d="m-921.4451 -636.79004c33.77997 -9.735779 219.83331 -39.612427 202.67975 -58.414673c-17.153503 -18.802307 -283.601 -28.799255 -305.60107 -54.398987c-22.0 -25.599731 167.8675 -75.46588 173.60107 -99.19946c5.7336426 -23.733582 -115.99951 -36.00171 -139.19946 -43.202087" fill-rule="evenodd"/><path fill="#111111" d="m-1365.9658 -562.3924l458.91296 -90.20471l361.08698 90.20471z" fill-rule="evenodd"/><path fill="#fdfdfd" fill-opacity="0.9922" d="m-1188.7874 -554.0525l277.37006 -92.66144l-274.252 101.543335z" fill-rule="evenodd"/><path fill="#fdfdfd" fill-opacity="0.9922" d="m-725.7952 -554.83496l-186.91339 -91.30707l183.35437 98.17322z" fill-rule="evenodd"/><path fill="#fdfdfd" fill-opacity="0.9922" d="m-946.4199 -554.808l33.543274 -91.30707l-44.75592 86.2677z" fill-rule="evenodd"/><path fill="#fdfdfd" fill-opacity="0.9922" d="m-1367.0105 -562.39105l952.5669 0l0 28.409424l-952.5669 0z" fill-rule="evenodd"/><path fill="#000000" fill-opacity="0.0" d="m-929.9562 -968.00024l-130.36218 157.82678" fill-rule="evenodd"/><path stroke="#111111" stroke-width="24.0" stroke-linejoin="round" stroke-linecap="butt" d="m-929.9562 -968.00024l-130.36218 157.82678" fill-rule="evenodd"/><path fill="#fdfdfd" fill-opacity="0.9922" d="m-1367.0105 -543.3097l453.7953 -103.165344l-451.9685 110.944824z" fill-rule="evenodd"/><path fill="#fdfdfd" fill-opacity="0.9922" d="m-519.98846 -515.0521l-391.748 -130.83466l394.2047 123.212585z" fill-rule="evenodd"/><path fill="#fdfdfd" fill-opacity="0.9922" d="m-843.8425 -558.2652l-68.23627 -87.653564l57.93701 94.70868z" fill-rule="evenodd"/><path fill="#fdfdfd" fill-opacity="0.9922" d="m-1064.1548 -533.9686l149.60632 -111.71655l-156.72449 101.44879z" fill-rule="evenodd"/><path fill="#000000" fill-opacity="0.0" d="m-1367.0105 -522.0l2072.0 0l0 332.0l-2072.0 0z" fill-rule="evenodd"/><path fill="#111111" d="m-1336.7449 -260.0l0 -186.65625l35.734375 0l103.1875 139.45312l-7.453125 0q-1.078125 -8.265625 -1.875 -16.125q-0.796875 -7.875 -1.46875 -16.0q-0.65625 -8.140625 -1.0625 -16.796875q-0.40625 -8.671875 -0.671875 -18.40625q-0.265625 -9.734375 -0.265625 -21.203125l0 -50.921875l39.203125 0l0 186.65625l-36.265625 0l-105.328125 -140.79688l10.125 0.265625q1.34375 13.875 2.265625 23.609375q0.9375 9.71875 1.609375 16.921875q0.671875 7.203125 0.9375 12.546875q0.265625 5.328125 0.390625 10.125q0.140625 4.796875 0.140625 10.125l0 67.203125l-39.203125 0zm213.85828 0l0 -186.65625l36.53125 0l67.99994 110.65625l-23.999939 -0.265625l68.796814 -110.390625l34.9375 0l0 186.65625l-39.203125 0l0 -64.0q0 -24.0 1.203125 -43.1875q1.203125 -19.203125 4.125 -38.140625l4.796875 12.53125l-54.65625 84.796875l-17.593689 0l-53.609375 -84.265625l4.53125 -13.0625q2.9375 17.859375 4.140625 36.671875q1.203125 18.796875 1.203125 44.65625l0 64.0l-39.203125 0zm271.72827 0l0 -150.65625l-54.40625 0l0 -36.0l150.39062 0l0 36.0l-55.984375 0l0 150.65625l-40.0 0zm202.91528 2.671875q-20.53125 0 -37.734375 -7.0625q-17.1875 -7.078125 -29.859375 -20.0q-12.671875 -12.9375 -19.609375 -30.671875q-6.921875 -17.734375 -6.921875 -38.796875q0 -20.53125 7.203125 -38.0q7.203125 -17.46875 20.265625 -30.390625q13.0625 -12.9375 30.65625 -20.140625q17.609375 -7.203125 38.140625 -7.203125q13.328125 0 26.25 3.609375q12.9375 3.59375 23.734375 10.53125q10.8125 6.921875 18.546875 16.53125l-25.0625 27.734375q-6.140625 -6.40625 -13.078125 -11.0625q-6.921875 -4.671875 -14.53125 -7.203125q-7.59375 -2.546875 -16.125 -2.546875q-11.46875 0 -21.46875 4.265625q-10.0 4.265625 -17.46875 11.875q-7.46875 7.59375 -11.875 18.40625q-4.390625 10.796875 -4.390625 23.859375q0 13.328125 4.265625 24.125q4.265625 10.796875 12.0 18.40625q7.734375 7.59375 18.53125 11.734375q10.796875 4.125 23.875 4.125q8.53125 0 16.53125 -2.390625q8.0 -2.40625 14.796875 -6.671875q6.796875 -4.265625 12.125 -9.859375l19.734375 31.1875q-6.65625 7.203125 -17.46875 13.078125q-10.796875 5.859375 -24.125 9.203125q-13.328125 3.328125 -26.9375 3.328125z" fill-rule="nonzero"/><path fill="#000000" fill-opacity="0.0" d="m-664.49866 815.5236l-206.26514 -0.9816284l257.72443 -316.25983l328.45407 315.44617l-242.2756 0" fill-rule="evenodd"/><path stroke="#fdfdfd" stroke-width="24.0" stroke-linejoin="round" stroke-linecap="butt" d="m-664.49866 815.5236l-206.26514 -0.9816284l257.72443 -316.25983l328.45407 315.44617l-242.2756 0" fill-rule="evenodd"/><path fill="#cc6f77" d="m-1048.5814 903.5648l458.91302 -90.20471l361.087 90.20471z" fill-rule="evenodd"/><path fill="#000000" fill-opacity="0.0" d="m-732.55383 643.8097l-72.35693 -65.03937l-189.43042 234.95801l122.76373 -0.81103516z" fill-rule="evenodd"/><path stroke="#fdfdfd" stroke-width="24.0" stroke-linejoin="round" stroke-linecap="butt" d="m-732.55383 643.8097l-72.35693 -65.03937l-189.43042 234.95801l122.76373 -0.81103516z" fill-rule="evenodd"/><path fill="#fdfdfd" fill-opacity="0.9922" d="m-664.6877 827.5236l-34.0 -24.123352l173.06299 -1.6246948l0.71917725 24.0l-10.81366 0l-53.561646 -13.125977z" fill-rule="evenodd"/><path fill="#000000" fill-opacity="0.0" d="m-589.2483 825.5236c31.311462 -9.128601 207.49081 -36.576538 187.86874 -54.771667c-19.62204 -18.195068 -283.60104 -28.799194 -305.60104 -54.398926c-22.0 -25.599731 167.8675 -75.46588 173.60107 -99.19946c5.7335815 -23.733643 -115.99957 -36.00177 -139.19946 -43.20215" fill-rule="evenodd"/><path stroke="#cc6f77" stroke-width="24.0" stroke-linejoin="round" stroke-linecap="butt" d="m-589.2483 825.5236c31.311462 -9.128601 207.49081 -36.576538 187.86874 -54.771667c-19.62204 -18.195068 -283.60104 -28.799194 -305.60104 -54.398926c-22.0 -25.599731 167.8675 -75.46588 173.60107 -99.19946c5.7335815 -23.733643 -115.99957 -36.00177 -139.19946 -43.20215" fill-rule="evenodd"/><path fill="#000000" fill-opacity="0.0" d="m-1048.5814 903.5648l820.0 0" fill-rule="evenodd"/><path stroke="#fff9f8" stroke-width="4.0" stroke-linejoin="round" stroke-linecap="butt" d="m-1048.5814 903.5648l820.0 0" fill-rule="evenodd"/><path fill="#000000" fill-opacity="0.0" d="m-612.5717 497.95694l-130.36218 157.82675" fill-rule="evenodd"/><path stroke="#fdfdfd" stroke-width="24.0" stroke-linejoin="round" stroke-linecap="butt" d="m-612.5717 497.95694l-130.36218 157.82675" fill-rule="evenodd"/><path fill="#fff9f8" d="m-589.3438 812.6496l-54.46985 90.868774l13.937012 0z" fill-rule="evenodd"/><path fill="#fff9f8" d="m-589.4068 812.5866l146.99734 90.99475l15.939636 0z" fill-rule="evenodd"/><path fill="#fff9f8" d="m-589.2808 812.6496l45.43567 90.868774l15.249329 0z" fill-rule="evenodd"/><path fill="#fff9f8" d="m-589.2808 812.6496l247.43567 90.99475l13.375336 0z" fill-rule="evenodd"/><path fill="#fff9f8" d="m-228.59451 903.58185l-359.3281 -91.049866l348.70343 91.049866z" fill-rule="evenodd"/><path fill="#fff9f8" d="m-589.4068 812.7126l-141.40686 90.868774l-15.687683 0z" fill-rule="evenodd"/><path fill="#fff9f8" d="m-589.3438 812.6496l-241.59583 90.93176l-15.81366 0z" fill-rule="evenodd"/><path fill="#fff9f8" d="m-929.6273 903.58136l-18.719116 0l359.0656 -90.93176z" fill-rule="evenodd"/><path fill="#fff9f8" d="m-1048.4397 903.58185l459.9843 -91.049866l-444.04462 91.049866z" fill-rule="evenodd"/><path fill="#000000" fill-opacity="0.0" d="m-30.812992 -71.43619l5176.0 0l0 332.0l-5176.0 0z" fill-rule="evenodd"/><path fill="#fdfdfd" d="m-0.54736716 190.56381l0 -186.65625l35.734375 0l103.1875 139.45312l-7.453125 0q-1.078125 -8.265625 -1.875 -16.125q-0.796875 -7.875 -1.4687576 -16.0q-0.65625 -8.140625 -1.0625 -16.796875q-0.40625 -8.671875 -0.671875 -18.40625q-0.265625 -9.734375 -0.265625 -21.203125l0 -50.921875l39.203133 0l0 186.65625l-36.265625 0l-105.328125 -140.79688l10.125 0.265625q1.34375 13.875 2.265625 23.609375q0.9375 9.71875 1.609375 16.921875q0.671875 7.203125 0.9375 12.546875q0.265625 5.328125 0.390625 10.125q0.140625 4.796875 0.140625 10.125l0 67.203125l-39.203125 0zm213.85825 0l0 -186.65625l36.53125 0l68.0 110.65625l-24.0 -0.265625l68.796875 -110.390625l34.9375 0l0 186.65625l-39.203125 0l0 -64.0q0 -24.0 1.203125 -43.1875q1.203125 -19.203125 4.125 -38.140625l4.796875 12.53125l-54.65625 84.796875l-17.59375 0l-53.609375 -84.265625l4.53125 -13.0625q2.9375 17.859375 4.140625 36.671875q1.203125 18.796875 1.203125 44.65625l0 64.0l-39.203125 0zm271.7283 0l0 -150.65625l-54.40622 0l0 -36.0l150.3906 0l0 36.0l-55.984375 0l0 150.65625l-40.0 0zm202.91528 2.671875q-20.53125 0 -37.734375 -7.0625q-17.1875 -7.078125 -29.859375 -20.0q-12.671875 -12.9375 -19.609375 -30.671875q-6.921875 -17.734375 -6.921875 -38.796875q0 -20.53125 7.203125 -38.0q7.203125 -17.46875 20.265625 -30.390625q13.0625 -12.9375 30.65625 -20.140625q17.609375 -7.203125 38.140625 -7.203125q13.328125 0 26.25 3.609375q12.9375 3.59375 23.734375 10.53125q10.8125 6.921875 18.546875 16.53125l-25.0625 27.734375q-6.140625 -6.40625 -13.078125 -11.0625q-6.921875 -4.671875 -14.53125 -7.203125q-7.59375 -2.546875 -16.125 -2.546875q-11.46875 0 -21.46875 4.265625q-10.0 4.265625 -17.46875 11.875q-7.46875 7.59375 -11.875 18.40625q-4.390625 10.796875 -4.390625 23.859375q0 13.328125 4.265625 24.125q4.265625 10.796875 12.0 18.40625q7.734375 7.59375 18.53125 11.734375q10.796875 4.125 23.875 4.125q8.53125 0 16.53125 -2.390625q8.0 -2.40625 14.796875 -6.671875q6.796875 -4.265625 12.125 -9.859375l19.734375 31.1875q-6.65625 7.203125 -17.46875 13.078125q-10.796875 5.859375 -24.125 9.203125q-13.328125 3.328125 -26.9375 3.328125z" fill-rule="nonzero"/></g></svg>