<svg version="1.1" viewBox="0.0 0.0 817.8871391076116 419.51181102362204" fill="none" stroke="none" stroke-linecap="square" stroke-miterlimit="10" xmlns:xlink="http://www.w3.org/1999/xlink" xmlns="http://www.w3.org/2000/svg"><clipPath id="p.0"><path d="m0 0l817.88715 0l0 419.5118l-817.88715 0l0 -419.5118z" clip-rule="nonzero"/></clipPath><g clip-path="url(#p.0)"><path fill="#000000" fill-opacity="0.0" d="m0 0l817.88715 0l0 419.5118l-817.88715 0z" fill-rule="evenodd"/><path fill="#000000" fill-opacity="0.0" d="m383.5013 330.24933l-206.26509 -0.9815979l257.72443 -316.25986l328.45404 315.4462l-242.27557 0" fill-rule="evenodd"/><path stroke="#fdfdfd" stroke-width="24.0" stroke-linejoin="round" stroke-linecap="butt" d="m383.5013 330.24933l-206.26509 -0.9815979l257.72443 -316.25986l328.45404 315.4462l-242.27557 0" fill-rule="evenodd"/><path fill="#000000" fill-opacity="0.0" d="m-368.44516 2845.5984c31.733612 -8.133301 209.6015 -31.600586 190.40158 -48.800537c-19.199905 -17.199951 -283.60104 -28.799072 -305.60104 -54.398926c-22.0 -25.59961 167.86746 -75.46582 173.60104 -99.19946c5.733612 -23.733643 -115.99957 -36.00171 -139.19946 -43.20215" fill-rule="evenodd"/><path stroke="#cc6f77" stroke-width="12.0" stroke-linejoin="round" stroke-linecap="butt" d="m-368.44516 2845.5984c31.733612 -8.133301 209.6015 -31.600586 190.40158 -48.800537c-19.199905 -17.199951 -283.60104 -28.799072 -305.60104 -54.398926c-22.0 -25.59961 167.86746 -75.46582 173.60104 -99.19946c5.733612 -23.733643 -115.99957 -36.00171 -139.19946 -43.20215" fill-rule="evenodd"/><path fill="#fdfdfd" fill-opacity="0.9922" d="m-1160.0 -1072.0l1040.0 0l0 1040.0l-1040.0 0z" fill-rule="evenodd"/><path fill="#fff9f8" d="m-994.4002 -605.4039l190.40015 -236.02283l255.4914 236.02283z" fill-rule="evenodd"/><path stroke="#5ecfb8" stroke-width="24.0" stroke-linejoin="round" stroke-linecap="butt" d="m-994.4002 -605.4039l190.40015 -236.02283l255.4914 236.02283z" fill-rule="evenodd"/><path fill="#fceeec" d="m-871.389 -605.4029l258.07294 -315.14752l328.69653 315.14752z" fill-rule="evenodd"/><path stroke="#1abc9c" stroke-width="24.0" stroke-linejoin="round" stroke-linecap="butt" d="m-871.389 -605.4029l258.07294 -315.14752l328.69653 315.14752z" fill-rule="evenodd"/><path fill="#000000" fill-opacity="0.0" d="m-1160.0 -515.19556l1040.0 0l0 332.0l-1040.0 0z" fill-rule="evenodd"/><path fill="#1abc9c" d="m-1014.62854 -261.93152l0 -188.53125l36.078125 0l104.234375 140.85938l-7.546875 0q-1.078125 -8.34375 -1.890625 -16.28125q-0.796875 -7.953125 -1.46875 -16.171875q-0.671875 -8.21875 -1.078125 -16.96875q-0.40625 -8.75 -0.671875 -18.578125q-0.265625 -9.828125 -0.265625 -21.421875l0 -51.4375l39.59375 0l0 188.53125l-36.640625 0l-106.375 -142.20312l10.234375 0.265625q1.34375 14.0 2.28125 23.84375q0.953125 9.828125 1.625 17.109375q0.671875 7.265625 0.9375 12.65625q0.265625 5.375 0.390625 10.234375q0.140625 4.84375 0.140625 10.21875l0 67.875l-39.578125 0zm216.0011 0l0 -188.53125l36.890625 0l68.671875 111.765625l-24.234375 -0.265625l69.484375 -111.5l35.28125 0l0 188.53125l-39.59375 0l0 -64.640625q0 -24.234375 1.21875 -43.625q1.21875 -19.390625 4.171875 -38.515625l4.859375 12.65625l-55.21875 85.640625l-17.78125 0l-54.125 -85.109375l4.578125 -13.1875q2.953125 18.046875 4.15625 37.03125q1.21875 18.984375 1.21875 45.109375l0 64.640625l-39.578125 0zm274.4359 0l0 -152.17188l-54.9375 0l0 -36.359375l151.89062 0l0 36.359375l-56.546875 0l0 152.17188l-40.40625 0zm204.95618 2.6875q-20.734375 0 -38.109375 -7.125q-17.359375 -7.140625 -30.15625 -20.203125q-12.796875 -13.0625 -19.796875 -30.96875q-7.0 -17.921875 -7.0 -39.1875q0 -20.75 7.265625 -38.390625q7.265625 -17.640625 20.46875 -30.703125q13.203125 -13.0625 30.96875 -20.328125q17.78125 -7.28125 38.515625 -7.28125q13.46875 0 26.53125 3.640625q13.0625 3.640625 23.96875 10.640625q10.90625 7.0 18.71875 16.703125l-25.3125 28.0q-6.203125 -6.453125 -13.203125 -11.171875q-7.0 -4.71875 -14.671875 -7.265625q-7.671875 -2.5625 -16.296875 -2.5625q-11.578125 0 -21.6875 4.3125q-10.09375 4.296875 -17.640625 11.984375q-7.53125 7.671875 -11.984375 18.578125q-4.4375 10.90625 -4.4375 24.109375q0 13.46875 4.3125 24.375q4.3125 10.90625 12.109375 18.578125q7.8125 7.671875 18.71875 11.859375q10.90625 4.171875 24.109375 4.171875q8.625 0 16.703125 -2.421875q8.078125 -2.4375 14.9375 -6.734375q6.875 -4.3125 12.265625 -9.96875l19.921875 31.515625q-6.734375 7.265625 -17.640625 13.1875q-10.90625 5.921875 -24.375 9.296875q-13.46875 3.359375 -27.203125 3.359375z" fill-rule="nonzero"/><path fill="#000000" fill-opacity="0.0" d="m-591.20105 -599.2087c31.733582 -8.133423 209.60147 -31.600586 190.40158 -48.800537c-19.19992 -17.19989 -283.60104 -28.799194 -305.60104 -54.398926c-22.0 -25.599731 167.86743 -75.46588 173.60101 -99.19946c5.7336426 -23.733582 -115.99957 -36.00177 -139.19946 -43.202087" fill-rule="evenodd"/><path stroke="#cc6f77" stroke-width="12.0" stroke-linejoin="round" stroke-linecap="butt" d="m-591.20105 -599.2087c31.733582 -8.133423 209.60147 -31.600586 190.40158 -48.800537c-19.19992 -17.19989 -283.60104 -28.799194 -305.60104 -54.398926c-22.0 -25.599731 167.86743 -75.46588 173.60101 -99.19946c5.7336426 -23.733582 -115.99957 -36.00177 -139.19946 -43.202087" fill-rule="evenodd"/><path fill="#cc6f77" d="m-1048.0 -515.19556l458.91302 -90.20471l361.08698 90.20471z" fill-rule="evenodd"/><path stroke="#cc6f77" stroke-width="1.0" stroke-linejoin="round" stroke-linecap="butt" d="m-1048.0 -515.19556l458.91302 -90.20471l361.08698 90.20471z" fill-rule="evenodd"/><path fill="#fceeec" d="m-857.45667 -513.2113l263.54327 -86.299194l-259.4803 97.82678z" fill-rule="evenodd"/><path fill="#fceeec" d="m-407.64307 -510.53412l-188.0 -89.19684l182.26773 100.28345z" fill-rule="evenodd"/><path fill="#fceeec" d="m-628.27997 -507.5321l33.44879 -91.33856l-44.850403 86.236206z" fill-rule="evenodd"/><path fill="#fdfdfd" fill-opacity="0.9922" d="m-1157.5092 -515.19293l1036.0 0l0 15.748047l-1036.0 0z" fill-rule="evenodd"/><path fill="#000000" fill-opacity="0.0" d="m-611.9903 -920.8034l-130.36224 157.82678" fill-rule="evenodd"/><path stroke="#1abc9c" stroke-width="24.0" stroke-linejoin="round" stroke-linecap="butt" d="m-611.9903 -920.8034l-130.36224 157.82678" fill-rule="evenodd"/><path fill="#fdfdfd" fill-opacity="0.9922" d="m-1298.4908 1203.3071l1660.0 0l0 444.69287l-1660.0 0z" fill-rule="evenodd"/><path fill="#000000" fill-opacity="0.0" d="m-563.68896 1295.9863l1040.0 0l0 332.0l-1040.0 0z" fill-rule="evenodd"/><path fill="#111111" d="m-418.31754 1549.2504l0 -188.53125l36.078125 0l104.234375 140.85938l-7.546875 0q-1.078125 -8.34375 -1.890625 -16.28125q-0.796875 -7.953125 -1.46875 -16.171875q-0.671875 -8.21875 -1.078125 -16.96875q-0.40625 -8.75 -0.671875 -18.578125q-0.265625 -9.828125 -0.265625 -21.421875l0 -51.4375l39.593735 0l0 188.53125l-36.64061 0l-106.375 -142.20312l10.234375 0.265625q1.34375 14.0 2.28125 23.84375q0.953125 9.828125 1.625 17.109375q0.671875 7.265625 0.9375 12.65625q0.265625 5.375 0.390625 10.234375q0.140625 4.84375 0.140625 10.21875l0 67.875l-39.578125 0zm216.00111 0l0 -188.53125l36.890625 0l68.671875 111.765625l-24.234375 -0.265625l69.484375 -111.5l35.28125 0l0 188.53125l-39.59375 0l0 -64.640625q0 -24.234375 1.21875 -43.625q1.21875 -19.390625 4.171875 -38.515625l4.859375 12.65625l-55.218754 85.640625l-17.78125 0l-54.125 -85.109375l4.578125 -13.1875q2.953125 18.046875 4.15625 37.03125q1.21875 18.984375 1.21875 45.109375l0 64.640625l-39.578125 0zm274.4359 0l0 -152.17188l-54.937496 0l0 -36.359375l151.89062 0l0 36.359375l-56.546875 0l0 152.17188l-40.40625 0zm204.95619 2.6875q-20.734375 0 -38.10939 -7.125q-17.359375 -7.140625 -30.15625 -20.203125q-12.796875 -13.0625 -19.796875 -30.96875q-7.0 -17.921875 -7.0 -39.1875q0 -20.75 7.265625 -38.390625q7.265625 -17.640625 20.46875 -30.703125q13.203125 -13.0625 30.96875 -20.328125q17.781265 -7.28125 38.51564 -7.28125q13.46875 0 26.53125 3.640625q13.0625 3.640625 23.96875 10.640625q10.90625 7.0 18.71875 16.703125l-25.3125 28.0q-6.203125 -6.453125 -13.203125 -11.171875q-7.0 -4.71875 -14.671875 -7.265625q-7.671875 -2.5625 -16.296875 -2.5625q-11.578125 0 -21.6875 4.3125q-10.093765 4.296875 -17.64064 11.984375q-7.53125 7.671875 -11.984375 18.578125q-4.4375 10.90625 -4.4375 24.109375q0 13.46875 4.3125 24.375q4.3125 10.90625 12.109375 18.578125q7.8125 7.671875 18.718765 11.859375q10.90625 4.171875 24.109375 4.171875q8.625 0 16.703125 -2.421875q8.078125 -2.4375 14.9375 -6.734375q6.875 -4.3125 12.265625 -9.96875l19.921875 31.515625q-6.734375 7.265625 -17.640625 13.1875q-10.90625 5.921875 -24.375 9.296875q-13.46875 3.359375 -27.203125 3.359375z" fill-rule="nonzero"/><path fill="#efefef" d="m-1220.891 1542.0273l190.40015 -236.02283l255.49133 236.02283z" fill-rule="evenodd"/><path stroke="#111111" stroke-width="24.0" stroke-linejoin="round" stroke-linecap="butt" d="m-1220.891 1542.0273l190.40015 -236.02283l255.49133 236.02283z" fill-rule="evenodd"/><path fill="#efefef" d="m-1097.8798 1542.0283l258.07294 -315.14746l328.6965 315.14746z" fill-rule="evenodd"/><path stroke="#111111" stroke-width="24.0" stroke-linejoin="round" stroke-linecap="butt" d="m-1097.8798 1542.0283l258.07294 -315.14746l328.6965 315.14746z" fill-rule="evenodd"/><path fill="#000000" fill-opacity="0.0" d="m-824.1938 1550.0c32.81714 -8.429565 215.01923 -33.08142 196.9029 -50.577393c-18.116394 -17.496094 -279.7345 -29.046387 -305.60107 -54.398926c-25.866577 -25.352661 144.66797 -73.98303 150.40161 -97.71655c5.7335815 -23.733643 -96.66669 -37.23755 -116.0 -44.68506" fill-rule="evenodd"/><path stroke="#cc6f77" stroke-width="12.0" stroke-linejoin="round" stroke-linecap="butt" d="m-824.1938 1550.0c32.81714 -8.429565 215.01923 -33.08142 196.9029 -50.577393c-18.116394 -17.496094 -279.7345 -29.046387 -305.60107 -54.398926c-25.866577 -25.352661 144.66797 -73.98303 150.40161 -97.71655c5.7335815 -23.733643 -96.66669 -37.23755 -116.0 -44.68506" fill-rule="evenodd"/><path fill="#cc6f77" d="m-1274.4908 1632.2357l458.91302 -90.20471l361.087 90.20471z" fill-rule="evenodd"/><path fill="#fdfdfd" fill-opacity="0.9922" d="m-1083.9475 1634.22l263.54333 -86.299194l-259.48035 97.82678z" fill-rule="evenodd"/><path fill="#fdfdfd" fill-opacity="0.9922" d="m-634.13385 1636.8971l-188.0 -89.19678l182.2677 100.28345z" fill-rule="evenodd"/><path fill="#fdfdfd" fill-opacity="0.9922" d="m-854.7708 1639.8992l33.448853 -91.33862l-44.850403 86.236206z" fill-rule="evenodd"/><path fill="#ffffff" d="m-1384.0 1632.2383l1036.0 0l0 15.748047l-1036.0 0z" fill-rule="evenodd"/><path fill="#000000" fill-opacity="0.0" d="m-838.48114 1226.6278l-130.36218 157.82678" fill-rule="evenodd"/><path stroke="#111111" stroke-width="24.0" stroke-linejoin="round" stroke-linecap="butt" d="m-838.48114 1226.6278l-130.36218 157.82678" fill-rule="evenodd"/><path fill="#fdfdfd" fill-opacity="0.9922" d="m-1160.0 112.0l1040.0 0l0 1040.0l-1040.0 0z" fill-rule="evenodd"/><path fill="#fdfdfd" fill-opacity="0.9922" d="m-994.4002 578.5961l190.40015 -236.02286l255.4914 236.02286z" fill-rule="evenodd"/><path stroke="#111111" stroke-width="24.0" stroke-linejoin="round" stroke-linecap="butt" d="m-994.4002 578.5961l190.40015 -236.02286l255.4914 236.02286z" fill-rule="evenodd"/><path fill="#fdfdfd" fill-opacity="0.9922" d="m-871.389 578.5971l258.07294 -315.1475l328.69653 315.1475z" fill-rule="evenodd"/><path stroke="#111111" stroke-width="24.0" stroke-linejoin="round" stroke-linecap="butt" d="m-871.389 578.5971l258.07294 -315.1475l328.69653 315.1475z" fill-rule="evenodd"/><path fill="#000000" fill-opacity="0.0" d="m-1160.0 668.80444l1040.0 0l0 332.0l-1040.0 0z" fill-rule="evenodd"/><path fill="#111111" d="m-1014.62854 922.0685l0 -188.53125l36.078125 0l104.234375 140.85938l-7.546875 0q-1.078125 -8.34375 -1.890625 -16.28125q-0.796875 -7.953125 -1.46875 -16.171875q-0.671875 -8.21875 -1.078125 -16.96875q-0.40625 -8.75 -0.671875 -18.578125q-0.265625 -9.828125 -0.265625 -21.421875l0 -51.4375l39.59375 0l0 188.53125l-36.640625 0l-106.375 -142.20312l10.234375 0.265625q1.34375 14.0 2.28125 23.84375q0.953125 9.828125 1.625 17.109375q0.671875 7.265625 0.9375 12.65625q0.265625 5.375 0.390625 10.234375q0.140625 4.84375 0.140625 10.21875l0 67.875l-39.578125 0zm216.0011 0l0 -188.53125l36.890625 0l68.671875 111.765625l-24.234375 -0.265625l69.484375 -111.5l35.28125 0l0 188.53125l-39.59375 0l0 -64.640625q0 -24.234375 1.21875 -43.625q1.21875 -19.390625 4.171875 -38.515625l4.859375 12.65625l-55.21875 85.640625l-17.78125 0l-54.125 -85.109375l4.578125 -13.1875q2.953125 18.046875 4.15625 37.03125q1.21875 18.984375 1.21875 45.109375l0 64.640625l-39.578125 0zm274.4359 0l0 -152.17188l-54.9375 0l0 -36.359375l151.89062 0l0 36.359375l-56.546875 0l0 152.17188l-40.40625 0zm204.95618 2.6875q-20.734375 0 -38.109375 -7.125q-17.359375 -7.140625 -30.15625 -20.203125q-12.796875 -13.0625 -19.796875 -30.96875q-7.0 -17.921875 -7.0 -39.1875q0 -20.75 7.265625 -38.390625q7.265625 -17.640625 20.46875 -30.703125q13.203125 -13.0625 30.96875 -20.328125q17.78125 -7.28125 38.515625 -7.28125q13.46875 0 26.53125 3.640625q13.0625 3.640625 23.96875 10.640625q10.90625 7.0 18.71875 16.703125l-25.3125 28.0q-6.203125 -6.453125 -13.203125 -11.171875q-7.0 -4.71875 -14.671875 -7.265625q-7.671875 -2.5625 -16.296875 -2.5625q-11.578125 0 -21.6875 4.3125q-10.09375 4.296875 -17.640625 11.984375q-7.53125 7.671875 -11.984375 18.578125q-4.4375 10.90625 -4.4375 24.109375q0 13.46875 4.3125 24.375q4.3125 10.90625 12.109375 18.578125q7.8125 7.671875 18.71875 11.859375q10.90625 4.171875 24.109375 4.171875q8.625 0 16.703125 -2.421875q8.078125 -2.4375 14.9375 -6.734375q6.875 -4.3125 12.265625 -9.96875l19.921875 31.515625q-6.734375 7.265625 -17.640625 13.1875q-10.90625 5.921875 -24.375 9.296875q-13.46875 3.359375 -27.203125 3.359375z" fill-rule="nonzero"/><path fill="#000000" fill-opacity="0.0" d="m-591.20105 584.7913c31.733582 -8.133423 209.60147 -31.600586 190.40158 -48.800537c-19.19992 -17.19989 -283.60104 -28.799194 -305.60104 -54.398926c-22.0 -25.599731 167.86743 -75.46588 173.60101 -99.19946c5.7336426 -23.733612 -115.99957 -36.00177 -139.19946 -43.202118" fill-rule="evenodd"/><path stroke="#111111" stroke-width="12.0" stroke-linejoin="round" stroke-linecap="butt" d="m-591.20105 584.7913c31.733582 -8.133423 209.60147 -31.600586 190.40158 -48.800537c-19.19992 -17.19989 -283.60104 -28.799194 -305.60104 -54.398926c-22.0 -25.599731 167.86743 -75.46588 173.60101 -99.19946c5.7336426 -23.733612 -115.99957 -36.00177 -139.19946 -43.202118" fill-rule="evenodd"/><path fill="#111111" d="m-1048.0 668.80444l458.91302 -90.20471l361.08698 90.20471z" fill-rule="evenodd"/><path stroke="#111111" stroke-width="1.0" stroke-linejoin="round" stroke-linecap="butt" d="m-1048.0 668.80444l458.91302 -90.20471l361.08698 90.20471z" fill-rule="evenodd"/><path fill="#fdfdfd" fill-opacity="0.9922" d="m-857.45667 670.7887l263.54327 -86.299194l-259.4803 97.82678z" fill-rule="evenodd"/><path fill="#fdfdfd" fill-opacity="0.9922" d="m-407.64307 673.4659l-188.0 -89.19684l182.26773 100.28345z" fill-rule="evenodd"/><path fill="#fdfdfd" fill-opacity="0.9922" d="m-628.27997 676.4679l33.44879 -91.33856l-44.850403 86.236206z" fill-rule="evenodd"/><path fill="#fdfdfd" fill-opacity="0.9922" d="m-1157.5092 668.80707l1036.0 0l0 15.748047l-1036.0 0z" fill-rule="evenodd"/><path fill="#000000" fill-opacity="0.0" d="m-611.9903 263.1966l-130.36224 157.82678" fill-rule="evenodd"/><path stroke="#111111" stroke-width="24.0" stroke-linejoin="round" stroke-linecap="butt" d="m-611.9903 263.1966l-130.36224 157.82678" fill-rule="evenodd"/><path fill="#ffffff" d="m-1226.4908 1756.0l1660.0 0l0 444.69287l-1660.0 0z" fill-rule="evenodd"/><path fill="#000000" fill-opacity="0.0" d="m-491.68896 1848.6793l1040.0 0l0 331.99988l-1040.0 0z" fill-rule="evenodd"/><path fill="#1abc9c" d="m-346.31754 2101.9434l0 -188.53137l36.078125 0l104.23436 140.8595l-7.546875 0q-1.078125 -8.343872 -1.890625 -16.281372q-0.796875 -7.953125 -1.46875 -16.171875q-0.671875 -8.21875 -1.078125 -16.96875q-0.40625 -8.75 -0.671875 -18.578125q-0.265625 -9.828125 -0.265625 -21.421875l0 -51.4375l39.59375 0l0 188.53137l-36.640625 0l-106.374985 -142.20325l10.234375 0.265625q1.34375 14.0 2.28125 23.84375q0.953125 9.828125 1.625 17.109375q0.671875 7.265625 0.9375 12.65625q0.265625 5.375 0.390625 10.234375q0.140625 4.84375 0.140625 10.21875l0 67.87512l-39.578125 0zm216.00111 0l0 -188.53137l36.890625 0l68.671875 111.765625l-24.234375 -0.265625l69.484375 -111.5l35.28125 0l0 188.53137l-39.59375 0l0 -64.64075q0 -24.234375 1.21875 -43.625q1.21875 -19.390625 4.171875 -38.515625l4.859375 12.65625l-55.21875 85.64075l-17.78125 0l-54.125004 -85.1095l4.578125 -13.1875q2.953125 18.046875 4.15625 37.03125q1.21875 18.984375 1.21875 45.109375l0 64.64075l-39.578125 0zm274.4359 0l0 -152.172l-54.9375 0l0 -36.359375l151.89062 0l0 36.359375l-56.546875 0l0 152.172l-40.40625 0zm204.95619 2.6875q-20.734375 0 -38.109375 -7.125q-17.359375 -7.140625 -30.15625 -20.203125q-12.796875 -13.0625 -19.796875 -30.968872q-7.0000153 -17.921875 -7.0000153 -39.1875q0 -20.75 7.2656403 -38.390625q7.265625 -17.640625 20.46875 -30.703125q13.203125 -13.0625 30.96875 -20.328125q17.78125 -7.28125 38.515625 -7.28125q13.46875 0 26.53125 3.640625q13.0625 3.640625 23.96875 10.640625q10.90625 7.0 18.71875 16.703125l-25.3125 28.0q-6.203125 -6.453125 -13.203125 -11.171875q-7.0 -4.71875 -14.671875 -7.265625q-7.671875 -2.5625 -16.296875 -2.5625q-11.578125 0 -21.6875 4.3125q-10.09375 4.296875 -17.640625 11.984375q-7.53125 7.671875 -11.984375 18.578125q-4.4375 10.90625 -4.4375 24.109375q0 13.46875 4.3125 24.375q4.3125 10.90625 12.109375 18.578247q7.8125 7.671875 18.71875 11.859375q10.90625 4.171875 24.109375 4.171875q8.625 0 16.703125 -2.421875q8.078125 -2.4375 14.9375 -6.734375q6.875 -4.3125 12.265625 -9.968872l19.921875 31.515747q-6.734375 7.265625 -17.640625 13.1875q-10.90625 5.921875 -24.375 9.296875q-13.46875 3.359375 -27.203125 3.359375z" fill-rule="nonzero"/><path fill="#fff9f8" d="m-1148.891 2094.7202l190.40015 -236.02283l255.49133 236.02283z" fill-rule="evenodd"/><path stroke="#5ecfb8" stroke-width="24.0" stroke-linejoin="round" stroke-linecap="butt" d="m-1148.891 2094.7202l190.40015 -236.02283l255.49133 236.02283z" fill-rule="evenodd"/><path fill="#fceeec" d="m-1025.8798 2094.7212l258.07294 -315.14746l328.6965 315.14746z" fill-rule="evenodd"/><path stroke="#1abc9c" stroke-width="24.0" stroke-linejoin="round" stroke-linecap="butt" d="m-1025.8798 2094.7212l258.07294 -315.14746l328.6965 315.14746z" fill-rule="evenodd"/><path fill="#000000" fill-opacity="0.0" d="m-745.6925 2100.916c31.733643 -8.133545 209.6015 -31.600586 190.40161 -48.800537c-19.199951 -17.199951 -279.7345 -29.046387 -305.60107 -54.398926c-25.866577 -25.35254 144.66797 -73.98291 150.40161 -97.71655c5.7335815 -23.733643 -96.66669 -37.23755 -116.0 -44.68506" fill-rule="evenodd"/><path stroke="#cc6f77" stroke-width="12.0" stroke-linejoin="round" stroke-linecap="butt" d="m-745.6925 2100.916c31.733643 -8.133545 209.6015 -31.600586 190.40161 -48.800537c-19.199951 -17.199951 -279.7345 -29.046387 -305.60107 -54.398926c-25.866577 -25.35254 144.66797 -73.98291 150.40161 -97.71655c5.7335815 -23.733643 -96.66669 -37.23755 -116.0 -44.68506" fill-rule="evenodd"/><path fill="#cc6f77" d="m-1202.4908 2184.9287l458.91302 -90.204834l361.087 90.204834z" fill-rule="evenodd"/><path stroke="#cc6f77" stroke-width="1.0" stroke-linejoin="round" stroke-linecap="butt" d="m-1202.4908 2184.9287l458.91302 -90.204834l361.087 90.204834z" fill-rule="evenodd"/><path fill="#fceeec" d="m-1011.9475 2186.9128l263.54333 -86.29932l-259.48035 97.826904z" fill-rule="evenodd"/><path fill="#fceeec" d="m-562.13385 2189.59l-188.0 -89.19702l182.2677 100.28369z" fill-rule="evenodd"/><path fill="#fceeec" d="m-782.7708 2192.592l33.448853 -91.33862l-44.850403 86.23633z" fill-rule="evenodd"/><path fill="#ffffff" d="m-1312.0 2184.9312l1036.0 0l0 15.748047l-1036.0 0z" fill-rule="evenodd"/><path fill="#000000" fill-opacity="0.0" d="m-766.48114 1779.3207l-130.36218 157.82678" fill-rule="evenodd"/><path stroke="#1abc9c" stroke-width="24.0" stroke-linejoin="round" stroke-linecap="butt" d="m-766.48114 1779.3207l-130.36218 157.82678" fill-rule="evenodd"/><path fill="#000000" fill-opacity="0.0" d="m1051.2179 645.67456l2072.0 0l0 332.0l-2072.0 0z" fill-rule="evenodd"/><path fill="#111111" d="m1081.4835 907.67456l0 -186.65625l35.734375 0l103.1875 139.45312l-7.453125 0q-1.078125 -8.265625 -1.875 -16.125q-0.796875 -7.875 -1.46875 -16.0q-0.65625 -8.140625 -1.0625 -16.796875q-0.40625 -8.671875 -0.671875 -18.40625q-0.265625 -9.734375 -0.265625 -21.203125l0 -50.921875l39.203125 0l0 186.65625l-36.265625 0l-105.328125 -140.79688l10.125 0.265625q1.34375 13.875 2.265625 23.609375q0.9375 9.71875 1.609375 16.921875q0.671875 7.203125 0.9375 12.546875q0.265625 5.328125 0.390625 10.125q0.140625 4.796875 0.140625 10.125l0 67.203125l-39.203125 0zm213.85815 0l0 -186.65625l36.53125 0l68.0 110.65625l-24.0 -0.265625l68.796875 -110.390625l34.9375 0l0 186.65625l-39.203125 0l0 -64.0q0 -24.0 1.203125 -43.1875q1.203125 -19.203125 4.125 -38.140625l4.796875 12.53125l-54.65625 84.796875l-17.59375 0l-53.609375 -84.265625l4.53125 -13.0625q2.9375 17.859375 4.140625 36.671875q1.203125 18.796875 1.203125 44.65625l0 64.0l-39.203125 0zm271.7284 0l0 -150.65625l-54.40625 0l0 -36.0l150.39062 0l0 36.0l-55.984375 0l0 150.65625l-40.0 0zm202.91528 2.671875q-20.53125 0 -37.734375 -7.0625q-17.1875 -7.078125 -29.859375 -20.0q-12.671875 -12.9375 -19.609375 -30.671875q-6.921875 -17.734375 -6.921875 -38.796875q0 -20.53125 7.203125 -38.0q7.203125 -17.46875 20.265625 -30.390625q13.0625 -12.9375 30.65625 -20.140625q17.609375 -7.203125 38.140625 -7.203125q13.328125 0 26.25 3.609375q12.9375 3.59375 23.734375 10.53125q10.8125 6.921875 18.546875 16.53125l-25.0625 27.734375q-6.140625 -6.40625 -13.078125 -11.0625q-6.921875 -4.671875 -14.53125 -7.203125q-7.59375 -2.546875 -16.125 -2.546875q-11.46875 0 -21.46875 4.265625q-10.0 4.265625 -17.46875 11.875q-7.46875 7.59375 -11.875 18.40625q-4.390625 10.796875 -4.390625 23.859375q0 13.328125 4.265625 24.125q4.265625 10.796875 12.0 18.40625q7.734375 7.59375 18.53125 11.734375q10.796875 4.125 23.875 4.125q8.53125 0 16.53125 -2.390625q8.0 -2.40625 14.796875 -6.671875q6.796875 -4.265625 12.125 -9.859375l19.734375 31.1875q-6.65625 7.203125 -17.46875 13.078125q-10.796875 5.859375 -24.125 9.203125q-13.328125 3.328125 -26.9375 3.328125z" fill-rule="nonzero"/><path fill="#fdfdfd" fill-opacity="0.9922" d="m1300.0 -688.0l828.0 0l0 828.0l-828.0 0z" fill-rule="evenodd"/><path fill="#fdfdfd" fill-opacity="0.9922" d="m1354.6444 -356.60074l190.40015 -236.0228l255.49133 236.0228z" fill-rule="evenodd"/><path stroke="#111111" stroke-width="24.0" stroke-linejoin="round" stroke-linecap="butt" d="m1354.6444 -356.60074l190.40015 -236.0228l255.49133 236.0228z" fill-rule="evenodd"/><path fill="#fdfdfd" fill-opacity="0.9922" d="m1477.6556 -356.59973l258.073 -315.14752l328.6964 315.14752z" fill-rule="evenodd"/><path stroke="#111111" stroke-width="24.0" stroke-linejoin="round" stroke-linecap="butt" d="m1477.6556 -356.59973l258.073 -315.14752l328.6964 315.14752z" fill-rule="evenodd"/><path fill="#000000" fill-opacity="0.0" d="m1745.5653 -340.79004c33.78003 -9.735779 219.83337 -39.612396 202.67981 -58.414673c-17.153564 -18.802277 -283.60107 -28.799225 -305.60107 -54.398956c-22.0 -25.599731 167.86755 -75.46591 173.60107 -99.19949c5.7336426 -23.733582 -115.99951 -36.00171 -139.19946 -43.202087" fill-rule="evenodd"/><path stroke="#111111" stroke-width="24.0" stroke-linejoin="round" stroke-linecap="butt" d="m1745.5653 -340.79004c33.78003 -9.735779 219.83337 -39.612396 202.67981 -58.414673c-17.153564 -18.802277 -283.60107 -28.799225 -305.60107 -54.398956c-22.0 -25.599731 167.86755 -75.46591 173.60107 -99.19949c5.7336426 -23.733582 -115.99951 -36.00171 -139.19946 -43.202087" fill-rule="evenodd"/><path fill="#111111" d="m1301.0447 -266.3924l458.91296 -90.20471l361.08704 90.20471z" fill-rule="evenodd"/><path fill="#fdfdfd" fill-opacity="0.9922" d="m1478.2231 -258.05252l277.37 -92.66141l-274.25195 101.543304z" fill-rule="evenodd"/><path fill="#fdfdfd" fill-opacity="0.9922" d="m1941.2153 -258.83493l-186.91345 -91.3071l183.35437 98.17323z" fill-rule="evenodd"/><path fill="#fdfdfd" fill-opacity="0.9922" d="m1720.5906 -258.80795l33.543335 -91.3071l-44.75598 86.26773z" fill-rule="evenodd"/><path fill="#fdfdfd" fill-opacity="0.9922" d="m1300.0 -266.39108l952.5669 0l0 28.409454l-952.5669 0z" fill-rule="evenodd"/><path fill="#000000" fill-opacity="0.0" d="m1737.0543 -672.00024l-130.36218 157.82678" fill-rule="evenodd"/><path stroke="#111111" stroke-width="24.0" stroke-linejoin="round" stroke-linecap="butt" d="m1737.0543 -672.00024l-130.36218 157.82678" fill-rule="evenodd"/><path fill="#fdfdfd" fill-opacity="0.9922" d="m1300.0 -247.30971l453.7953 -103.16536l-451.9685 110.944885z" fill-rule="evenodd"/><path fill="#fdfdfd" fill-opacity="0.9922" d="m2147.022 -219.05214l-391.74792 -130.83464l394.2047 123.212585z" fill-rule="evenodd"/><path fill="#fdfdfd" fill-opacity="0.9922" d="m1823.168 -262.2652l-68.236206 -87.653534l57.93701 94.70865z" fill-rule="evenodd"/><path fill="#fdfdfd" fill-opacity="0.9922" d="m1602.8557 -237.96866l149.60632 -111.71652l-156.72449 101.44881z" fill-rule="evenodd"/><path fill="#000000" fill-opacity="0.0" d="m1300.0 -226.0l2072.0 0l0 332.0l-2072.0 0z" fill-rule="evenodd"/><path fill="#111111" d="m1330.2656 36.0l0 -186.65625l35.734375 0l103.1875 139.45312l-7.453125 0q-1.078125 -8.265625 -1.875 -16.125q-0.796875 -7.875 -1.46875 -16.0q-0.65625 -8.140625 -1.0625 -16.796875q-0.40625 -8.671875 -0.671875 -18.40625q-0.265625 -9.734375 -0.265625 -21.203125l0 -50.921875l39.203125 0l0 186.65625l-36.265625 0l-105.328125 -140.79688l10.125 0.265625q1.34375 13.875 2.265625 23.609375q0.9375 9.71875 1.609375 16.921875q0.671875 7.203125 0.9375 12.546875q0.265625 5.328125 0.390625 10.125q0.140625 4.796875 0.140625 10.125l0 67.203125l-39.203125 0zm213.85828 0l0 -186.65625l36.53125 0l68.0 110.65625l-24.0 -0.265625l68.796875 -110.390625l34.9375 0l0 186.65625l-39.203125 0l0 -64.0q0 -24.0 1.203125 -43.1875q1.203125 -19.203125 4.125 -38.140625l4.796875 12.53125l-54.65625 84.796875l-17.59375 0l-53.609375 -84.265625l4.53125 -13.0625q2.9375 17.859375 4.140625 36.671875q1.203125 18.796875 1.203125 44.65625l0 64.0l-39.203125 0zm271.72827 0l0 -150.65625l-54.40625 0l0 -36.0l150.39062 0l0 36.0l-55.984375 0l0 150.65625l-40.0 0zm202.91528 2.671875q-20.53125 0 -37.734375 -7.0625q-17.1875 -7.078125 -29.859375 -20.0q-12.671875 -12.9375 -19.609375 -30.671875q-6.921875 -17.734375 -6.921875 -38.796875q0 -20.53125 7.203125 -38.0q7.203125 -17.46875 20.265625 -30.390625q13.0625 -12.9375 30.65625 -20.140625q17.609375 -7.203125 38.140625 -7.203125q13.328125 0 26.25 3.609375q12.937622 3.59375 23.734497 10.53125q10.8125 6.921875 18.546875 16.53125l-25.0625 27.734375q-6.140625 -6.40625 -13.078125 -11.0625q-6.921997 -4.671875 -14.531372 -7.203125q-7.59375 -2.546875 -16.125 -2.546875q-11.46875 0 -21.46875 4.265625q-10.0 4.265625 -17.46875 11.875q-7.46875 7.59375 -11.875 18.40625q-4.390625 10.796875 -4.390625 23.859375q0 13.328125 4.265625 24.125q4.265625 10.796875 12.0 18.40625q7.734375 7.59375 18.53125 11.734375q10.796875 4.125 23.875 4.125q8.53125 0 16.53125 -2.390625q8.000122 -2.40625 14.796997 -6.671875q6.796875 -4.265625 12.125 -9.859375l19.734375 31.1875q-6.65625 7.203125 -17.46875 13.078125q-10.796875 5.859375 -24.125122 9.203125q-13.328125 3.328125 -26.9375 3.328125z" fill-rule="nonzero"/><path fill="#cc6f77" d="m-0.5813969 418.29053l458.913 -90.20471l361.08698 90.20471z" fill-rule="evenodd"/><path fill="#000000" fill-opacity="0.0" d="m315.4462 158.53543l-72.356964 -65.03937l-189.43044 234.95801l122.76378 -0.81103516z" fill-rule="evenodd"/><path stroke="#fdfdfd" stroke-width="24.0" stroke-linejoin="round" stroke-linecap="butt" d="m315.4462 158.53543l-72.356964 -65.03937l-189.43044 234.95801l122.76378 -0.81103516z" fill-rule="evenodd"/><path fill="#fdfdfd" fill-opacity="0.9922" d="m383.31235 342.24933l-34.0 -24.123352l173.06296 -1.6246643l0.71917725 24.0l-10.81366 0l-53.561676 -13.125977z" fill-rule="evenodd"/><path fill="#000000" fill-opacity="0.0" d="m458.7517 340.24933c31.311462 -9.128601 207.49078 -36.576538 187.86877 -54.771637c-19.62207 -18.195099 -283.60107 -28.799225 -305.60107 -54.398956c-22.0 -25.599731 167.86746 -75.46588 173.60107 -99.19946c5.7335815 -23.733604 -115.99957 -36.001755 -139.1995 -43.20211" fill-rule="evenodd"/><path stroke="#cc6f77" stroke-width="24.0" stroke-linejoin="round" stroke-linecap="butt" d="m458.7517 340.24933c31.311462 -9.128601 207.49078 -36.576538 187.86877 -54.771637c-19.62207 -18.195099 -283.60107 -28.799225 -305.60107 -54.398956c-22.0 -25.599731 167.86746 -75.46588 173.60107 -99.19946c5.7335815 -23.733604 -115.99957 -36.001755 -139.1995 -43.20211" fill-rule="evenodd"/><path fill="#000000" fill-opacity="0.0" d="m-0.5813969 418.29053l820.0 0" fill-rule="evenodd"/><path stroke="#fff9f8" stroke-width="4.0" stroke-linejoin="round" stroke-linecap="butt" d="m-0.5813969 418.29053l820.0 0" fill-rule="evenodd"/><path fill="#000000" fill-opacity="0.0" d="m435.42828 12.682668l-130.36218 157.82678" fill-rule="evenodd"/><path stroke="#fdfdfd" stroke-width="24.0" stroke-linejoin="round" stroke-linecap="butt" d="m435.42828 12.682668l-130.36218 157.82678" fill-rule="evenodd"/><path fill="#fff9f8" d="m458.65616 327.37534l-54.46982 90.868744l13.937012 0z" fill-rule="evenodd"/><path fill="#fff9f8" d="m458.59317 327.31235l146.9974 90.99475l15.939636 0z" fill-rule="evenodd"/><path fill="#fff9f8" d="m458.71915 327.37534l45.4357 90.868744l15.249329 0z" fill-rule="evenodd"/><path fill="#fff9f8" d="m458.71915 327.37534l247.4357 90.99475l13.375366 0z" fill-rule="evenodd"/><path fill="#fff9f8" d="m819.40546 418.3076l-359.32806 -91.049866l348.70343 91.049866z" fill-rule="evenodd"/><path fill="#fff9f8" d="m458.59317 327.43832l-141.40683 90.868774l-15.687653 0z" fill-rule="evenodd"/><path fill="#fff9f8" d="m458.65616 327.37534l-241.5958 90.93176l-15.813644 0z" fill-rule="evenodd"/><path fill="#fff9f8" d="m118.3727 418.3071l-18.719162 0l359.0656 -90.93176z" fill-rule="evenodd"/><path fill="#fff9f8" d="m-0.43966457 418.3076l459.98425 -91.049866l-444.04462 91.049866z" fill-rule="evenodd"/></g></svg>